<?xml version="1.0" encoding="UTF-8" standalone="no"?>
<!DOCTYPE svg PUBLIC "-//W3C//DTD SVG 1.1//EN"
 "http://www.w3.org/Graphics/SVG/1.1/DTD/svg11.dtd">
<!-- Generated by graphviz version 2.38.0 (20140413.2041)
 -->
<!-- Title: %3 Pages: 1 -->
<svg width="576pt" height="244pt"
 viewBox="0.00 0.00 576.00 244.33" xmlns="http://www.w3.org/2000/svg" xmlns:xlink="http://www.w3.org/1999/xlink">
<g id="graph0" class="graph" transform="scale(0.698571 0.698571) rotate(0) translate(4 345.759)">
<title>%3</title>
<polygon fill="white" stroke="none" points="-4,4 -4,-345.759 820.54,-345.759 820.54,4 -4,4"/>
<!-- emfviews -->
<g id="node1" class="node"><title>emfviews</title>
<polygon fill="#ece5ce" stroke="#ece5ce" points="158,-108 78,-108 78,-72 158,-72 158,-108"/>
<text text-anchor="middle" x="118" y="-86.3" font-family="TeX Gyre Adventor" font-size="14.00" fill="#342015">emfviews</text>
</g>
<!-- emfviews.virtuallinksdelegator -->
<g id="node2" class="node"><title>emfviews.virtuallinksdelegator</title>
<polygon fill="#ece5ce" stroke="#ece5ce" points="228,-36 8,-36 8,-0 228,-0 228,-36"/>
<text text-anchor="middle" x="118" y="-14.3" font-family="TeX Gyre Adventor" font-size="14.00" fill="#342015">emfviews.virtuallinksdelegator</text>
</g>
<!-- emfviews&#45;&gt;emfviews.virtuallinksdelegator -->
<g id="edge1" class="edge"><title>emfviews&#45;&gt;emfviews.virtuallinksdelegator</title>
<path fill="none" stroke="#774f38" d="M131,-71C131,-71 127.917,-58.6672 124.753,-46.0138"/>
<polygon fill="none" stroke="#774f38" points="128.078,-44.8793 122.257,-36.0267 121.287,-46.5771 128.078,-44.8793"/>
</g>
<!-- emfviews.vlink&#45;mm -->
<g id="node3" class="node"><title>emfviews.vlink&#45;mm</title>
<polygon fill="#ece5ce" stroke="#ece5ce" points="389.5,-36 246.5,-36 246.5,-0 389.5,-0 389.5,-36"/>
<text text-anchor="middle" x="318" y="-14.3" font-family="TeX Gyre Adventor" font-size="14.00" fill="#342015">emfviews.vlink&#45;mm</text>
</g>
<!-- emfviews&#45;&gt;emfviews.vlink&#45;mm -->
<g id="edge2" class="edge"><title>emfviews&#45;&gt;emfviews.vlink&#45;mm</title>
<path fill="none" stroke="#774f38" d="M131,-71C131,-71 194.129,-53.4454 247.028,-38.7354"/>
<polygon fill="none" stroke="#774f38" points="248.072,-42.078 256.769,-36.0267 246.197,-35.3339 248.072,-42.078"/>
</g>
<!-- emfviews.editor -->
<g id="node4" class="node"><title>emfviews.editor</title>
<polygon fill="#ece5ce" stroke="#ece5ce" points="124,-269.759 7.10543e-15,-269.759 7.10543e-15,-233.759 124,-233.759 124,-269.759"/>
<text text-anchor="middle" x="62" y="-248.059" font-family="TeX Gyre Adventor" font-size="14.00" fill="#342015">emfviews.editor</text>
</g>
<!-- emfviews.editor&#45;&gt;emfviews -->
<g id="edge3" class="edge"><title>emfviews.editor&#45;&gt;emfviews</title>
<path fill="none" stroke="#774f38" d="M79,-232.759C79,-232.759 41.5269,-221.818 29,-197.759 17.9661,-176.566 17.1937,-164.772 29,-144 37.8399,-128.447 53.2483,-116.979 68.7856,-108.769"/>
<polygon fill="none" stroke="#774f38" points="70.4585,-111.847 77.9,-104.305 67.3798,-105.56 70.4585,-111.847"/>
</g>
<!-- emfviews.editor&#45;&gt;emfviews.vlink&#45;mm -->
<g id="edge4" class="edge"><title>emfviews.editor&#45;&gt;emfviews.vlink&#45;mm</title>
<path fill="none" stroke="#774f38" d="M79,-232.759C79,-232.759 32.954,-225.085 17,-197.759 -13.4943,-145.526 18.3266,-105.02 69,-72 69.9118,-71.4059 164.056,-51.4596 236.304,-36.2118"/>
<polygon fill="none" stroke="#774f38" points="237.279,-39.5832 246.341,-34.094 235.834,-32.734 237.279,-39.5832"/>
</g>
<!-- emfviews.ui -->
<g id="node5" class="node"><title>emfviews.ui</title>
<polygon fill="#ece5ce" stroke="#ece5ce" points="166.5,-188.879 71.5,-188.879 71.5,-152.879 166.5,-152.879 166.5,-188.879"/>
<text text-anchor="middle" x="119" y="-167.179" font-family="TeX Gyre Adventor" font-size="14.00" fill="#342015">emfviews.ui</text>
</g>
<!-- emfviews.editor&#45;&gt;emfviews.ui -->
<g id="edge5" class="edge"><title>emfviews.editor&#45;&gt;emfviews.ui</title>
<path fill="none" stroke="#774f38" d="M79,-232.759C79,-232.759 91.1963,-214.196 102.12,-197.571"/>
<polygon fill="none" stroke="#774f38" points="105.079,-199.441 107.645,-189.162 99.2283,-195.598 105.079,-199.441"/>
</g>
<!-- emfviews.util -->
<g id="node6" class="node"><title>emfviews.util</title>
<polygon fill="#ece5ce" stroke="#ece5ce" points="452.578,-72.0493 456.933,-72.1479 461.243,-72.2953 465.49,-72.4913 469.658,-72.7353 473.729,-73.0266 477.687,-73.3645 481.517,-73.7479 485.205,-74.1759 488.737,-74.6472 492.099,-75.1606 495.281,-75.7147 498.271,-76.308 501.061,-76.9388 503.642,-77.6054 506.006,-78.3059 508.149,-79.0385 510.065,-79.8012 511.751,-80.5918 513.205,-81.4082 514.426,-82.2481 515.415,-83.1093 516.171,-83.9894 516.699,-84.886 517.002,-85.7965 517.083,-86.7186 516.949,-87.6497 516.605,-88.5873 516.058,-89.5287 515.317,-90.4713 514.388,-91.4127 513.281,-92.3503 512.005,-93.2814 510.569,-94.2035 508.982,-95.114 507.254,-96.0106 505.395,-96.8907 503.415,-97.7519 501.322,-98.5918 499.126,-99.4082 496.837,-100.199 494.463,-100.961 492.012,-101.694 489.492,-102.395 486.911,-103.061 484.277,-103.692 481.594,-104.285 478.871,-104.839 476.112,-105.353 473.322,-105.824 470.506,-106.252 467.668,-106.636 464.812,-106.973 461.941,-107.265 459.057,-107.509 456.165,-107.705 453.266,-107.852 450.361,-107.951 447.454,-108 444.546,-108 441.639,-107.951 438.734,-107.852 435.835,-107.705 432.943,-107.509 430.059,-107.265 427.188,-106.973 424.332,-106.636 421.494,-106.252 418.678,-105.824 415.888,-105.353 413.129,-104.839 410.406,-104.285 407.723,-103.692 405.089,-103.061 402.508,-102.395 399.988,-101.694 397.537,-100.961 395.163,-100.199 392.874,-99.4082 390.678,-98.5918 388.585,-97.7519 386.605,-96.8907 384.746,-96.0106 383.018,-95.114 381.431,-94.2035 379.995,-93.2814 378.719,-92.3503 377.612,-91.4127 376.683,-90.4713 375.942,-89.5287 375.395,-88.5873 375.051,-87.6497 374.917,-86.7186 374.998,-85.7965 375.301,-84.886 375.829,-83.9894 376.585,-83.1093 377.574,-82.2481 378.795,-81.4082 380.249,-80.5918 381.935,-79.8012 383.851,-79.0385 385.994,-78.3059 388.358,-77.6054 390.939,-76.9388 393.729,-76.308 396.719,-75.7147 399.901,-75.1606 403.263,-74.6472 406.795,-74.1759 410.483,-73.7479 414.313,-73.3645 418.271,-73.0266 422.342,-72.7353 426.51,-72.4913 430.757,-72.2953 435.067,-72.1479 439.422,-72.0493 443.804,-72 448.196,-72 452.578,-72.0493"/>
<text text-anchor="middle" x="446" y="-86.3" font-family="TeX Gyre Adventor" font-size="14.00" fill="#342015">emfviews.util</text>
</g>
<!-- emfviews.editor&#45;&gt;emfviews.util -->
<g id="edge6" class="edge"><title>emfviews.editor&#45;&gt;emfviews.util</title>
<path fill="none" stroke="#774f38" d="M79,-232.759C79,-232.759 427.661,-228.85 456,-197.759 475.618,-176.235 467.524,-141.148 458.261,-117.113"/>
<polygon fill="none" stroke="#774f38" points="461.495,-115.773 454.436,-107.873 455.027,-118.451 461.495,-115.773"/>
</g>
<!-- emfviews.ui&#45;&gt;emfviews -->
<g id="edge7" class="edge"><title>emfviews.ui&#45;&gt;emfviews</title>
<path fill="none" stroke="#774f38" d="M136,-151.879C136,-151.879 130.81,-134.324 126.003,-118.068"/>
<polygon fill="none" stroke="#774f38" points="129.302,-116.88 123.11,-108.283 122.589,-118.865 129.302,-116.88"/>
</g>
<!-- emfviews.ui&#45;&gt;emfviews.vlink&#45;mm -->
<g id="edge8" class="edge"><title>emfviews.ui&#45;&gt;emfviews.vlink&#45;mm</title>
<path fill="none" stroke="#774f38" d="M136,-151.879C136,-151.879 234.187,-80.192 286.325,-42.1262"/>
<polygon fill="none" stroke="#774f38" points="288.567,-44.8231 294.579,-36.0996 284.439,-39.1696 288.567,-44.8231"/>
</g>
<!-- emfviews.ui&#45;&gt;emfviews.util -->
<g id="edge9" class="edge"><title>emfviews.ui&#45;&gt;emfviews.util</title>
<path fill="none" stroke="#774f38" d="M136,-151.879C136,-151.879 157.656,-147.448 175,-144 247.594,-129.568 331.194,-113.267 386.121,-102.6"/>
<polygon fill="none" stroke="#774f38" points="386.884,-106.017 396.034,-100.675 385.55,-99.1454 386.884,-106.017"/>
</g>
<!-- emfviews.util&#45;&gt;emfviews.vlink&#45;mm -->
<g id="edge10" class="edge"><title>emfviews.util&#45;&gt;emfviews.vlink&#45;mm</title>
<path fill="none" stroke="#774f38" d="M416.955,-73.1159C399.508,-63.5745 377.061,-51.2989 357.958,-40.852"/>
<polygon fill="none" stroke="#774f38" points="359.62,-37.7716 349.167,-36.0442 356.261,-43.9132 359.62,-37.7716"/>
</g>
<!-- emfviews.virtuallinksepsilondelegate -->
<g id="node7" class="node"><title>emfviews.virtuallinksepsilondelegate</title>
<polygon fill="#ece5ce" stroke="#ece5ce" points="447.5,-188.879 184.5,-188.879 184.5,-152.879 447.5,-152.879 447.5,-188.879"/>
<text text-anchor="middle" x="316" y="-167.179" font-family="TeX Gyre Adventor" font-size="14.00" fill="#342015">emfviews.virtuallinksepsilondelegate</text>
</g>
<!-- emfviews.virtuallinksepsilondelegate&#45;&gt;emfviews.virtuallinksdelegator -->
<g id="edge11" class="edge"><title>emfviews.virtuallinksepsilondelegate&#45;&gt;emfviews.virtuallinksdelegator</title>
<path fill="none" stroke="#774f38" d="M317,-151.879C317,-151.879 208.754,-79.5996 151.931,-41.657"/>
<polygon fill="none" stroke="#774f38" points="153.868,-38.7421 143.608,-36.0996 149.981,-44.5636 153.868,-38.7421"/>
</g>
<!-- emfviews.virtuallinksepsilondelegate&#45;&gt;emfviews.vlink&#45;mm -->
<g id="edge12" class="edge"><title>emfviews.virtuallinksepsilondelegate&#45;&gt;emfviews.vlink&#45;mm</title>
<path fill="none" stroke="#774f38" d="M317,-151.879C317,-151.879 317.502,-85.1294 317.795,-46.2484"/>
<polygon fill="none" stroke="#774f38" points="321.296,-46.1257 317.871,-36.0996 314.296,-46.073 321.296,-46.1257"/>
</g>
<!-- emfviews.virtuallinksepsilondelegate&#45;&gt;emfviews.util -->
<g id="edge13" class="edge"><title>emfviews.virtuallinksepsilondelegate&#45;&gt;emfviews.util</title>
<path fill="none" stroke="#774f38" d="M317,-151.879C317,-151.879 368.231,-127.702 406.122,-109.82"/>
<polygon fill="none" stroke="#774f38" points="407.879,-112.861 415.429,-105.428 404.892,-106.53 407.879,-112.861"/>
</g>
<!-- emfviews.\nvirtuallinksocldelegate -->
<g id="node8" class="node"><title>emfviews.\nvirtuallinksocldelegate</title>
<polygon fill="#c5e0dc" stroke="#c5e0dc" points="680.754,-144.194 688.536,-144.34 696.238,-144.559 703.828,-144.851 711.275,-145.213 718.55,-145.646 725.623,-146.149 732.468,-146.719 739.058,-147.355 745.369,-148.056 751.377,-148.819 757.063,-149.643 762.407,-150.525 767.392,-151.462 772.004,-152.453 776.229,-153.495 780.058,-154.584 783.482,-155.718 786.495,-156.893 789.093,-158.107 791.275,-159.355 793.041,-160.636 794.394,-161.944 795.337,-163.277 795.877,-164.63 796.023,-166.001 795.783,-167.385 795.168,-168.779 794.192,-170.179 792.866,-171.58 791.207,-172.979 789.229,-174.373 786.949,-175.757 784.382,-177.128 781.547,-178.482 778.459,-179.815 775.137,-181.123 771.598,-182.403 767.858,-183.652 763.935,-184.866 759.844,-186.041 755.601,-187.175 751.221,-188.264 746.719,-189.305 742.107,-190.296 737.399,-191.234 732.606,-192.116 727.739,-192.94 722.808,-193.703 717.823,-194.404 712.791,-195.04 707.72,-195.61 702.616,-196.112 697.485,-196.545 692.333,-196.908 687.164,-197.199 681.983,-197.419 676.793,-197.565 671.598,-197.638 666.402,-197.638 661.207,-197.565 656.017,-197.419 650.836,-197.199 645.667,-196.908 640.515,-196.545 635.384,-196.112 630.28,-195.61 625.209,-195.04 620.177,-194.404 615.192,-193.703 610.261,-192.94 605.394,-192.116 600.601,-191.234 595.893,-190.296 591.281,-189.305 586.779,-188.264 582.399,-187.175 578.156,-186.041 574.065,-184.866 570.142,-183.652 566.402,-182.403 562.863,-181.123 559.541,-179.815 556.453,-178.482 553.618,-177.128 551.051,-175.757 548.771,-174.373 546.793,-172.979 545.134,-171.58 543.808,-170.179 542.832,-168.779 542.217,-167.385 541.977,-166.001 542.123,-164.63 542.663,-163.277 543.606,-161.944 544.959,-160.636 546.725,-159.355 548.907,-158.107 551.505,-156.893 554.518,-155.718 557.942,-154.584 561.771,-153.495 565.996,-152.453 570.608,-151.462 575.593,-150.525 580.937,-149.643 586.623,-148.819 592.631,-148.056 598.942,-147.355 605.532,-146.719 612.377,-146.149 619.45,-145.646 626.725,-145.213 634.172,-144.851 641.762,-144.559 649.464,-144.34 657.246,-144.194 665.077,-144.12 672.923,-144.12 680.754,-144.194"/>
<text text-anchor="middle" x="669" y="-174.679" font-family="TeX Gyre Adventor" font-size="14.00" fill="#342015">emfviews.</text>
<text text-anchor="middle" x="669" y="-159.679" font-family="TeX Gyre Adventor" font-size="14.00" fill="#342015">virtuallinksocldelegate</text>
</g>
<!-- emfviews.\nvirtuallinksocldelegate&#45;&gt;emfviews.vlink&#45;mm -->
<g id="edge14" class="edge"><title>emfviews.\nvirtuallinksocldelegate&#45;&gt;emfviews.vlink&#45;mm</title>
<path fill="none" stroke="#c5e0dc" d="M608,-145.879C608,-145.879 569.25,-95.1479 526,-72 487.08,-51.1691 439.641,-38.2679 399.901,-30.4183"/>
<polygon fill="none" stroke="#c5e0dc" points="400.451,-26.9603 389.973,-28.5297 399.143,-33.8369 400.451,-26.9603"/>
</g>
<!-- emfviews.\nvirtuallinksocldelegate&#45;&gt;emfviews.util -->
<g id="edge15" class="edge"><title>emfviews.\nvirtuallinksocldelegate&#45;&gt;emfviews.util</title>
<path fill="none" stroke="#c5e0dc" d="M608,-145.879C608,-145.879 541.362,-123.305 493.564,-107.113"/>
<polygon fill="none" stroke="#c5e0dc" points="494.576,-103.76 483.982,-103.867 492.33,-110.39 494.576,-103.76"/>
</g>
<!-- emfviews.ui.linkingview -->
<g id="node9" class="node"><title>emfviews.ui.linkingview</title>
<polygon fill="#f1d4af" stroke="#f1d4af" points="486.5,-269.759 313.5,-269.759 313.5,-233.759 486.5,-233.759 486.5,-269.759"/>
<text text-anchor="middle" x="400" y="-248.059" font-family="TeX Gyre Adventor" font-size="14.00" fill="#342015">emfviews.ui.linkingview</text>
</g>
<!-- emfviews.ui.linkingview&#45;&gt;emfviews -->
<g id="edge16" class="edge"><title>emfviews.ui.linkingview&#45;&gt;emfviews</title>
<path fill="none" stroke="#e08e78" d="M387,-232.759C387,-232.759 86.2682,-224.781 62,-197.759 46.0354,-179.982 52.5538,-165.946 62,-144 66.7891,-132.874 75.1898,-122.991 84.0503,-114.863"/>
<polygon fill="none" stroke="#e08e78" points="86.5413,-117.338 91.876,-108.184 81.9973,-112.013 86.5413,-117.338"/>
</g>
<!-- emfviews.ui.linkingview&#45;&gt;emfviews.vlink&#45;mm -->
<g id="edge17" class="edge"><title>emfviews.ui.linkingview&#45;&gt;emfviews.vlink&#45;mm</title>
<path fill="none" stroke="#e08e78" d="M387,-232.759C387,-232.759 773.449,-232.062 805,-197.759 821.174,-180.173 819.284,-163.153 805,-144 756.858,-79.4494 525.146,-43.0151 399.474,-27.6991"/>
<polygon fill="none" stroke="#e08e78" points="399.85,-24.219 389.503,-26.501 399.014,-31.1691 399.85,-24.219"/>
</g>
<!-- emfviews.ui.linkingview&#45;&gt;emfviews.ui -->
<g id="edge18" class="edge"><title>emfviews.ui.linkingview&#45;&gt;emfviews.ui</title>
<path fill="none" stroke="#e08e78" d="M387,-232.759C387,-232.759 266.281,-225.821 175,-197.759 170.62,-196.412 166.141,-194.793 161.716,-193.03"/>
<polygon fill="none" stroke="#e08e78" points="162.754,-189.668 152.181,-188.99 160.023,-196.114 162.754,-189.668"/>
</g>
<!-- emfviews.ui.linkingview&#45;&gt;emfviews.util -->
<g id="edge19" class="edge"><title>emfviews.ui.linkingview&#45;&gt;emfviews.util</title>
<path fill="none" stroke="#e08e78" d="M387,-232.759C387,-232.759 461.844,-237.063 490,-197.759 503.914,-178.335 498.113,-166.473 490,-144 486.083,-133.149 478.87,-122.95 471.401,-114.452"/>
<polygon fill="none" stroke="#e08e78" points="473.952,-112.055 464.557,-107.156 468.846,-116.844 473.952,-112.055"/>
</g>
<!-- emfviews.ui.linkingviewprordelegate -->
<g id="node10" class="node"><title>emfviews.ui.linkingviewprordelegate</title>
<polygon fill="#f1d4af" stroke="#f1d4af" points="531.5,-341.759 268.5,-341.759 268.5,-305.759 531.5,-305.759 531.5,-341.759"/>
<text text-anchor="middle" x="400" y="-320.059" font-family="TeX Gyre Adventor" font-size="14.00" fill="#342015">emfviews.ui.linkingviewprordelegate</text>
</g>
<!-- emfviews.ui.linkingviewprordelegate&#45;&gt;emfviews.ui.linkingview -->
<g id="edge20" class="edge"><title>emfviews.ui.linkingviewprordelegate&#45;&gt;emfviews.ui.linkingview</title>
<path fill="none" stroke="#e08e78" d="M400,-305.455C400,-297.741 400,-288.471 400,-279.871"/>
<polygon fill="none" stroke="#e08e78" points="403.5,-279.863 400,-269.863 396.5,-279.863 403.5,-279.863"/>
</g>
</g>
</svg>
