<?xml version="1.0" encoding="UTF-8"?><svg xmlns="http://www.w3.org/2000/svg" xmlns:xlink="http://www.w3.org/1999/xlink" fill-opacity="1" color-rendering="auto" color-interpolation="auto" text-rendering="auto" stroke="black" stroke-linecap="square" width="857" stroke-miterlimit="10" shape-rendering="auto" stroke-opacity="1" fill="black" stroke-dasharray="none" font-weight="normal" stroke-width="1" height="478" font-family="'Dialog'" font-style="normal" stroke-linejoin="miter" font-size="12px" stroke-dashoffset="0" image-rendering="auto">
  <!--Generated by ySVG 2.5-->
  <defs id="genericDefs"/>
  <g>
    <defs id="defs1">
      <clipPath clipPathUnits="userSpaceOnUse" id="clipPath1">
        <path d="M0 0 L857 0 L857 478 L0 478 L0 0 Z"/>
      </clipPath>
      <clipPath clipPathUnits="userSpaceOnUse" id="clipPath2">
        <path d="M133 -282 L990 -282 L990 196 L133 196 L133 -282 Z"/>
      </clipPath>
      <clipPath clipPathUnits="userSpaceOnUse" id="clipPath3">
        <path d="M615 -91 L615 -63 L756 -63 L756 -91 Z"/>
      </clipPath>
      <clipPath clipPathUnits="userSpaceOnUse" id="clipPath4">
        <path d="M601 -219 L601 -191 L771 -191 L771 -219 Z"/>
      </clipPath>
      <clipPath clipPathUnits="userSpaceOnUse" id="clipPath5">
        <path d="M801 -91 L801 -63 L942 -63 L942 -91 Z"/>
      </clipPath>
      <clipPath clipPathUnits="userSpaceOnUse" id="clipPath6">
        <path d="M430 -91 L430 -63 L571 -63 L571 -91 Z"/>
      </clipPath>
      <clipPath clipPathUnits="userSpaceOnUse" id="clipPath7">
        <path d="M456 -219 L456 -191 L545 -191 L545 -219 Z"/>
      </clipPath>
      <clipPath clipPathUnits="userSpaceOnUse" id="clipPath8">
        <path d="M827 -219 L827 -191 L916 -191 L916 -219 Z"/>
      </clipPath>
      <clipPath clipPathUnits="userSpaceOnUse" id="clipPath9">
        <path d="M244 -91 L244 -43 L385 -43 L385 -91 Z"/>
      </clipPath>
      <clipPath clipPathUnits="userSpaceOnUse" id="clipPath10">
        <path d="M230 -219 L230 -191 L400 -191 L400 -219 Z"/>
      </clipPath>
      <clipPath clipPathUnits="userSpaceOnUse" id="clipPath11">
        <path d="M179 152 L179 180 L320 180 L320 152 Z"/>
      </clipPath>
      <clipPath clipPathUnits="userSpaceOnUse" id="clipPath12">
        <path d="M148 43 L148 71 L239 71 L239 43 Z"/>
      </clipPath>
      <clipPath clipPathUnits="userSpaceOnUse" id="clipPath13">
        <path d="M350 43 L350 71 L582 71 L582 43 Z"/>
      </clipPath>
      <clipPath clipPathUnits="userSpaceOnUse" id="clipPath14">
        <path d="M364 152 L364 180 L516 180 L516 152 Z"/>
      </clipPath>
      <clipPath clipPathUnits="userSpaceOnUse" id="clipPath15">
        <path d="M620 43 L620 71 L711 71 L711 43 Z"/>
      </clipPath>
      <clipPath clipPathUnits="userSpaceOnUse" id="clipPath16">
        <path d="M763 43 L763 71 L854 71 L854 43 Z"/>
      </clipPath>
    </defs>
    <g fill="white" text-rendering="geometricPrecision" shape-rendering="geometricPrecision" transform="translate(-133,282)" stroke="white">
      <rect x="133" width="857" height="478" y="-282" clip-path="url(#clipPath2)" stroke="none"/>
    </g>
    <g fill="white" text-rendering="geometricPrecision" shape-rendering="geometricPrecision" transform="matrix(1,0,0,1,-133,282)" stroke="white">
      <rect x="615.7444" width="141.984" height="28.1344" y="-91.4928" clip-path="url(#clipPath2)" stroke="none"/>
    </g>
    <g stroke-linecap="butt" transform="matrix(1,0,0,1,-133,282)" fill="rgb(153,153,153)" text-rendering="geometricPrecision" shape-rendering="geometricPrecision" stroke="rgb(153,153,153)" stroke-miterlimit="1.45">
      <rect fill="none" x="615.7444" width="141.984" height="28.1344" y="-91.4928" clip-path="url(#clipPath2)"/>
    </g>
    <g font-size="13px" stroke-linecap="butt" transform="matrix(1,0,0,1,-133,282)" text-rendering="geometricPrecision" font-family="sans-serif" shape-rendering="geometricPrecision" font-weight="bold" stroke-miterlimit="1.45">
      <text x="633.7081" xml:space="preserve" y="-74.4259" clip-path="url(#clipPath3)" stroke="none">VirtualEObject</text>
    </g>
    <g fill="white" text-rendering="geometricPrecision" shape-rendering="geometricPrecision" transform="matrix(1,0,0,1,-133,282)" stroke="white">
      <rect x="601.4844" width="170.504" height="28.1344" y="-219.4784" clip-path="url(#clipPath2)" stroke="none"/>
    </g>
    <g stroke-linecap="butt" transform="matrix(1,0,0,1,-133,282)" fill="rgb(153,153,153)" text-rendering="geometricPrecision" shape-rendering="geometricPrecision" stroke="rgb(153,153,153)" stroke-miterlimit="1.45">
      <rect fill="none" x="601.4844" width="170.504" height="28.1344" y="-219.4784" clip-path="url(#clipPath2)"/>
    </g>
    <g font-size="13px" stroke-linecap="butt" transform="matrix(1,0,0,1,-133,282)" text-rendering="geometricPrecision" font-family="sans-serif" shape-rendering="geometricPrecision" font-weight="bold" stroke-miterlimit="1.45">
      <text x="610.9486" xml:space="preserve" y="-202.4115" clip-path="url(#clipPath4)" stroke="none">DynamicEObjectImpl</text>
    </g>
    <g fill="white" text-rendering="geometricPrecision" shape-rendering="geometricPrecision" transform="matrix(1,0,0,1,-133,282)" stroke="white">
      <rect x="801.4661" width="141.984" height="28.1344" y="-91.4928" clip-path="url(#clipPath2)" stroke="none"/>
    </g>
    <g stroke-linecap="butt" transform="matrix(1,0,0,1,-133,282)" fill="rgb(153,153,153)" text-rendering="geometricPrecision" shape-rendering="geometricPrecision" stroke="rgb(153,153,153)" stroke-miterlimit="1.45">
      <rect fill="none" x="801.4661" width="141.984" height="28.1344" y="-91.4928" clip-path="url(#clipPath2)"/>
    </g>
    <g font-size="13px" stroke-linecap="butt" transform="matrix(1,0,0,1,-133,282)" text-rendering="geometricPrecision" font-family="sans-serif" shape-rendering="geometricPrecision" font-weight="bold" stroke-miterlimit="1.45">
      <text x="824.0826" xml:space="preserve" y="-74.4259" clip-path="url(#clipPath5)" stroke="none">VirtualEClass</text>
    </g>
    <g fill="white" text-rendering="geometricPrecision" shape-rendering="geometricPrecision" transform="matrix(1,0,0,1,-133,282)" stroke="white">
      <rect x="430.0228" width="141.984" height="28.1344" y="-91.4928" clip-path="url(#clipPath2)" stroke="none"/>
    </g>
    <g stroke-linecap="butt" transform="matrix(1,0,0,1,-133,282)" fill="rgb(153,153,153)" text-rendering="geometricPrecision" shape-rendering="geometricPrecision" stroke="rgb(153,153,153)" stroke-miterlimit="1.45">
      <rect fill="none" x="430.0228" width="141.984" height="28.1344" y="-91.4928" clip-path="url(#clipPath2)"/>
    </g>
    <g font-size="13px" stroke-linecap="butt" transform="matrix(1,0,0,1,-133,282)" text-rendering="geometricPrecision" font-family="sans-serif" shape-rendering="geometricPrecision" font-weight="bold" stroke-miterlimit="1.45">
      <text x="440.9882" xml:space="preserve" y="-74.4259" clip-path="url(#clipPath6)" stroke="none">VirtualEPackage</text>
    </g>
    <g fill="white" text-rendering="geometricPrecision" shape-rendering="geometricPrecision" transform="matrix(1,0,0,1,-133,282)" stroke="white">
      <rect x="456.2628" width="89.504" height="28.1344" y="-219.4784" clip-path="url(#clipPath2)" stroke="none"/>
    </g>
    <g stroke-linecap="butt" transform="matrix(1,0,0,1,-133,282)" fill="rgb(153,153,153)" text-rendering="geometricPrecision" shape-rendering="geometricPrecision" stroke="rgb(153,153,153)" stroke-miterlimit="1.45">
      <rect fill="none" x="456.2628" width="89.504" height="28.1344" y="-219.4784" clip-path="url(#clipPath2)"/>
    </g>
    <g stroke-linecap="butt" font-size="13px" transform="matrix(1,0,0,1,-133,282)" text-rendering="geometricPrecision" font-family="sans-serif" shape-rendering="geometricPrecision" font-style="italic" font-weight="bold" stroke-miterlimit="1.45">
      <text x="465.8011" xml:space="preserve" y="-202.4115" clip-path="url(#clipPath7)" stroke="none">EPackage</text>
    </g>
    <g fill="white" text-rendering="geometricPrecision" shape-rendering="geometricPrecision" transform="matrix(1,0,0,1,-133,282)" stroke="white">
      <rect x="827.7061" width="89.504" height="28.1344" y="-219.4784" clip-path="url(#clipPath2)" stroke="none"/>
    </g>
    <g stroke-linecap="butt" transform="matrix(1,0,0,1,-133,282)" fill="rgb(153,153,153)" text-rendering="geometricPrecision" shape-rendering="geometricPrecision" stroke="rgb(153,153,153)" stroke-miterlimit="1.45">
      <rect fill="none" x="827.7061" width="89.504" height="28.1344" y="-219.4784" clip-path="url(#clipPath2)"/>
    </g>
    <g stroke-linecap="butt" font-size="13px" transform="matrix(1,0,0,1,-133,282)" text-rendering="geometricPrecision" font-family="sans-serif" shape-rendering="geometricPrecision" font-style="italic" font-weight="bold" stroke-miterlimit="1.45">
      <text x="848.8956" xml:space="preserve" y="-202.4115" clip-path="url(#clipPath8)" stroke="none">EClass</text>
    </g>
    <g fill="white" text-rendering="geometricPrecision" shape-rendering="geometricPrecision" transform="matrix(1,0,0,1,-133,282)" stroke="white">
      <rect x="244.3011" width="141.984" height="48.6144" y="-91.4928" clip-path="url(#clipPath2)" stroke="none"/>
    </g>
    <g stroke-linecap="butt" transform="matrix(1,0,0,1,-133,282)" fill="rgb(153,153,153)" text-rendering="geometricPrecision" shape-rendering="geometricPrecision" stroke="rgb(153,153,153)" stroke-miterlimit="1.45">
      <rect fill="none" x="244.3011" width="141.984" height="48.6144" y="-91.4928" clip-path="url(#clipPath2)"/>
    </g>
    <g font-size="13px" stroke-linecap="butt" transform="matrix(1,0,0,1,-133,282)" text-rendering="geometricPrecision" font-family="sans-serif" shape-rendering="geometricPrecision" font-weight="bold" stroke-miterlimit="1.45">
      <text x="261.8966" xml:space="preserve" y="-74.4259" clip-path="url(#clipPath9)" stroke="none">VirtualFeature</text>
    </g>
    <g fill="rgb(153,153,153)" text-rendering="geometricPrecision" shape-rendering="geometricPrecision" transform="matrix(1,0,0,1,-133,282)" stroke="rgb(153,153,153)">
      <line y2="-66" fill="none" x1="245" clip-path="url(#clipPath9)" x2="385" y1="-66"/>
    </g>
    <g text-rendering="geometricPrecision" stroke-miterlimit="1.45" shape-rendering="geometricPrecision" font-family="sans-serif" transform="matrix(1,0,0,1,-133,282)" stroke-linecap="butt">
      <text x="249.3011" xml:space="preserve" y="-50.2213" clip-path="url(#clipPath9)" stroke="none">+ filtered: boolean</text>
    </g>
    <g fill="rgb(153,153,153)" text-rendering="geometricPrecision" shape-rendering="geometricPrecision" transform="matrix(1,0,0,1,-133,282)" stroke="rgb(153,153,153)">
      <line y2="-42" fill="none" x1="245" clip-path="url(#clipPath9)" x2="385" y1="-42"/>
      <rect x="230.0411" y="-219.4784" clip-path="url(#clipPath2)" fill="white" width="170.504" height="28.1344" stroke="none"/>
      <rect stroke-linecap="butt" x="230.0411" y="-219.4784" clip-path="url(#clipPath2)" fill="none" width="170.504" height="28.1344" stroke-miterlimit="1.45"/>
    </g>
    <g stroke-linecap="butt" font-size="13px" transform="matrix(1,0,0,1,-133,282)" text-rendering="geometricPrecision" font-family="sans-serif" shape-rendering="geometricPrecision" font-style="italic" font-weight="bold" stroke-miterlimit="1.45">
      <text x="245.2403" xml:space="preserve" y="-202.4115" clip-path="url(#clipPath10)" stroke="none">EStructuralFeature</text>
    </g>
    <g fill="white" text-rendering="geometricPrecision" shape-rendering="geometricPrecision" transform="matrix(1,0,0,1,-133,282)" stroke="white">
      <rect x="179.3011" width="141.984" height="28.1344" y="152.2222" clip-path="url(#clipPath2)" stroke="none"/>
    </g>
    <g stroke-linecap="butt" transform="matrix(1,0,0,1,-133,282)" fill="rgb(153,153,153)" text-rendering="geometricPrecision" shape-rendering="geometricPrecision" stroke="rgb(153,153,153)" stroke-miterlimit="1.45">
      <rect fill="none" x="179.3011" width="141.984" height="28.1344" y="152.2222" clip-path="url(#clipPath2)"/>
    </g>
    <g font-size="13px" stroke-linecap="butt" transform="matrix(1,0,0,1,-133,282)" text-rendering="geometricPrecision" font-family="sans-serif" shape-rendering="geometricPrecision" font-weight="bold" stroke-miterlimit="1.45">
      <text x="187.5655" xml:space="preserve" y="169.2891" clip-path="url(#clipPath11)" stroke="none">VirtualEAttribute</text>
    </g>
    <g fill="white" text-rendering="geometricPrecision" shape-rendering="geometricPrecision" transform="matrix(1,0,0,1,-133,282)" stroke="white">
      <rect x="148.3011" width="91.7057" height="28.1344" y="43.7006" clip-path="url(#clipPath2)" stroke="none"/>
    </g>
    <g stroke-linecap="butt" transform="matrix(1,0,0,1,-133,282)" fill="rgb(153,153,153)" text-rendering="geometricPrecision" shape-rendering="geometricPrecision" stroke="rgb(153,153,153)" stroke-miterlimit="1.45">
      <rect fill="none" x="148.3011" width="91.7057" height="28.1344" y="43.7006" clip-path="url(#clipPath2)"/>
    </g>
    <g stroke-linecap="butt" font-size="13px" transform="matrix(1,0,0,1,-133,282)" text-rendering="geometricPrecision" font-family="sans-serif" shape-rendering="geometricPrecision" font-style="italic" font-weight="bold" stroke-miterlimit="1.45">
      <text x="156.2394" xml:space="preserve" y="60.7675" clip-path="url(#clipPath12)" stroke="none">EAttribute</text>
    </g>
    <g fill="white" text-rendering="geometricPrecision" shape-rendering="geometricPrecision" transform="matrix(1,0,0,1,-133,282)" stroke="white">
      <rect x="350.2851" width="232.4217" height="28.1344" y="43.7006" clip-path="url(#clipPath2)" stroke="none"/>
    </g>
    <g stroke-linecap="butt" transform="matrix(1,0,0,1,-133,282)" fill="rgb(153,153,153)" text-rendering="geometricPrecision" shape-rendering="geometricPrecision" stroke="rgb(153,153,153)" stroke-miterlimit="1.45">
      <rect fill="none" x="350.2851" width="232.4217" height="28.1344" y="43.7006" clip-path="url(#clipPath2)"/>
    </g>
    <g stroke-linecap="butt" font-size="13px" transform="matrix(1,0,0,1,-133,282)" text-rendering="geometricPrecision" font-family="sans-serif" shape-rendering="geometricPrecision" font-style="italic" font-weight="bold" stroke-miterlimit="1.45">
      <text x="364.9651" xml:space="preserve" y="60.7675" clip-path="url(#clipPath13)" stroke="none">EStructuralFeature.Internal</text>
    </g>
    <g fill="white" text-rendering="geometricPrecision" shape-rendering="geometricPrecision" transform="matrix(1,0,0,1,-133,282)" stroke="white">
      <rect x="364.6021" width="152.984" height="28.1344" y="152.2222" clip-path="url(#clipPath2)" stroke="none"/>
    </g>
    <g stroke-linecap="butt" transform="matrix(1,0,0,1,-133,282)" fill="rgb(153,153,153)" text-rendering="geometricPrecision" shape-rendering="geometricPrecision" stroke="rgb(153,153,153)" stroke-miterlimit="1.45">
      <rect fill="none" x="364.6021" width="152.984" height="28.1344" y="152.2222" clip-path="url(#clipPath2)"/>
    </g>
    <g font-size="13px" stroke-linecap="butt" transform="matrix(1,0,0,1,-133,282)" text-rendering="geometricPrecision" font-family="sans-serif" shape-rendering="geometricPrecision" font-weight="bold" stroke-miterlimit="1.45">
      <text x="374.6881" xml:space="preserve" y="169.2891" clip-path="url(#clipPath14)" stroke="none">VirtualEReference</text>
    </g>
    <g fill="white" text-rendering="geometricPrecision" shape-rendering="geometricPrecision" transform="matrix(1,0,0,1,-133,282)" stroke="white">
      <rect x="620.9032" width="91.7057" height="28.1344" y="43.7006" clip-path="url(#clipPath2)" stroke="none"/>
    </g>
    <g stroke-linecap="butt" transform="matrix(1,0,0,1,-133,282)" fill="rgb(153,153,153)" text-rendering="geometricPrecision" shape-rendering="geometricPrecision" stroke="rgb(153,153,153)" stroke-miterlimit="1.45">
      <rect fill="none" x="620.9032" width="91.7057" height="28.1344" y="43.7006" clip-path="url(#clipPath2)"/>
    </g>
    <g stroke-linecap="butt" font-size="13px" transform="matrix(1,0,0,1,-133,282)" text-rendering="geometricPrecision" font-family="sans-serif" shape-rendering="geometricPrecision" font-style="italic" font-weight="bold" stroke-miterlimit="1.45">
      <text x="625.163" xml:space="preserve" y="60.7675" clip-path="url(#clipPath15)" stroke="none">EReference</text>
    </g>
    <g fill="white" text-rendering="geometricPrecision" shape-rendering="geometricPrecision" transform="matrix(1,0,0,1,-133,282)" stroke="white">
      <rect x="763.9264" width="91.7057" height="28.1344" y="43.7006" clip-path="url(#clipPath2)" stroke="none"/>
    </g>
    <g stroke-linecap="butt" transform="matrix(1,0,0,1,-133,282)" fill="rgb(153,153,153)" text-rendering="geometricPrecision" shape-rendering="geometricPrecision" stroke="rgb(153,153,153)" stroke-miterlimit="1.45">
      <rect fill="none" x="763.9264" width="91.7057" height="28.1344" y="43.7006" clip-path="url(#clipPath2)"/>
    </g>
    <g stroke-linecap="butt" font-size="13px" transform="matrix(1,0,0,1,-133,282)" text-rendering="geometricPrecision" font-family="sans-serif" shape-rendering="geometricPrecision" font-style="italic" font-weight="bold" stroke-miterlimit="1.45">
      <text x="771.3188" xml:space="preserve" y="60.7675" clip-path="url(#clipPath16)" stroke="none">EClassifier</text>
    </g>
    <g text-rendering="geometricPrecision" stroke-miterlimit="1.45" shape-rendering="geometricPrecision" transform="matrix(1,0,0,1,-133,282)" stroke-linecap="butt">
      <path fill="none" d="M686.7365 -91.4722 L686.7365 -176.3076" clip-path="url(#clipPath2)"/>
      <path fill="white" d="M686.7365 -191.3076 L680.7365 -175.3076 L692.7365 -175.3076 Z" clip-path="url(#clipPath2)" stroke="none"/>
      <path fill="none" d="M686.7365 -191.3076 L680.7365 -175.3076 L692.7365 -175.3076 Z" clip-path="url(#clipPath2)"/>
      <path fill="none" d="M857.725 -91.509 L857.725 -122.493 L703.9976 -122.493 L703.9976 -176.3118" clip-path="url(#clipPath2)"/>
      <path fill="white" d="M703.9976 -191.3118 L697.9976 -175.3118 L709.9976 -175.3118 Z" clip-path="url(#clipPath2)" stroke="none"/>
      <path fill="none" d="M703.9976 -191.3118 L697.9976 -175.3118 L709.9976 -175.3118 Z" clip-path="url(#clipPath2)"/>
      <path fill="none" d="M518.781 -91.493 L518.781 -120.733 L670.4563 -120.733 L670.4563 -176.3112" clip-path="url(#clipPath2)"/>
      <path fill="white" d="M670.4563 -191.3112 L664.4563 -175.3112 L676.4563 -175.3112 Z" clip-path="url(#clipPath2)" stroke="none"/>
      <path fill="none" d="M670.4563 -191.3112 L664.4563 -175.3112 L676.4563 -175.3112 Z" clip-path="url(#clipPath2)"/>
      <path fill="none" d="M501.0148 -56.3238 L501.0148 -39.3419 L817.2003 -39.3419 L817.2003 -63.3251" clip-path="url(#clipPath2)"/>
      <path d="M501.0148 -63.3238 L506.0148 -56.3238 L501.0148 -49.3238 L496.0148 -56.3238 Z" clip-path="url(#clipPath2)" stroke="none"/>
      <text x="704.3948" xml:space="preserve" y="-45.1014" clip-path="url(#clipPath2)" font-family="sans-serif" stroke="none">0..* virtualClasses</text>
      <path fill="none" stroke-dasharray="6,2" d="M501.0148 -91.5178 L501.0148 -176.3692" clip-path="url(#clipPath2)"/>
      <path fill="white" stroke-dasharray="6,2" d="M501.0148 -191.3692 L495.0148 -175.3692 L507.0148 -175.3692 Z" clip-path="url(#clipPath2)" stroke="none"/>
      <path fill="none" d="M501.0148 -191.3692 L495.0148 -175.3692 L507.0148 -175.3692 Z" clip-path="url(#clipPath2)"/>
      <path fill="none" stroke-dasharray="6,2" d="M872.4581 -91.5178 L872.4581 -176.3692" clip-path="url(#clipPath2)"/>
      <path fill="white" stroke-dasharray="6,2" d="M872.4581 -191.3692 L866.4581 -175.3692 L878.4581 -175.3692 Z" clip-path="url(#clipPath2)" stroke="none"/>
      <path fill="none" d="M872.4581 -191.3692 L866.4581 -175.3692 L878.4581 -175.3692 Z" clip-path="url(#clipPath2)"/>
      <path fill="none" d="M872.4581 -56.3639 L872.4581 -15.7589 L348.0547 -15.7589 L348.0547 -42.8891" clip-path="url(#clipPath2)"/>
      <path d="M872.4581 -63.3639 L877.4581 -56.3639 L872.4581 -49.3639 L867.4581 -56.3639 Z" clip-path="url(#clipPath2)" stroke="none"/>
      <text x="355.4664" xml:space="preserve" y="-22.7446" clip-path="url(#clipPath2)" font-family="sans-serif" stroke="none">0..* virtualFeatures</text>
      <path fill="none" d="M328.6689 -91.5566 L328.6689 -131.933 L652.368 -131.933 L652.368 -176.3206" clip-path="url(#clipPath2)"/>
      <path fill="white" d="M652.368 -191.3206 L646.368 -175.3206 L658.368 -175.3206 Z" clip-path="url(#clipPath2)" stroke="none"/>
      <path fill="none" d="M652.368 -191.3206 L646.368 -175.3206 L658.368 -175.3206 Z" clip-path="url(#clipPath2)"/>
      <path fill="none" stroke-dasharray="6,2" d="M315.2931 -91.5168 L315.2931 -176.369" clip-path="url(#clipPath2)"/>
      <path fill="white" stroke-dasharray="6,2" d="M315.2931 -191.369 L309.2931 -175.369 L321.2931 -175.369 Z" clip-path="url(#clipPath2)" stroke="none"/>
      <path fill="none" d="M315.2931 -191.369 L309.2931 -175.369 L321.2931 -175.369 Z" clip-path="url(#clipPath2)"/>
      <path fill="none" d="M943.475 -77.4256 L974.4379 -77.4256 L974.4379 -246.9675 L315.2931 -246.9675 L315.2931 -219.4929" clip-path="url(#clipPath2)"/>
      <text x="315.435" xml:space="preserve" y="-253.0137" clip-path="url(#clipPath2)" font-family="sans-serif" stroke="none">0..* filteredFeatures</text>
      <path fill="none" d="M250.2931 152.2221 L250.2931 110.779 L299.725 110.779 L299.725 -27.8669" clip-path="url(#clipPath2)"/>
      <path fill="white" d="M299.725 -42.8669 L293.725 -26.8669 L305.725 -26.8669 Z" clip-path="url(#clipPath2)" stroke="none"/>
      <path fill="none" d="M299.725 -42.8669 L293.725 -26.8669 L305.725 -26.8669 Z" clip-path="url(#clipPath2)"/>
      <path fill="none" stroke-dasharray="6,2" d="M194.1539 152.1967 L194.1539 86.8307" clip-path="url(#clipPath2)"/>
      <path fill="white" stroke-dasharray="6,2" d="M194.1539 71.8307 L188.1539 87.8307 L200.1539 87.8307 Z" clip-path="url(#clipPath2)" stroke="none"/>
      <path fill="none" d="M194.1539 71.8307 L188.1539 87.8307 L200.1539 87.8307 Z" clip-path="url(#clipPath2)"/>
      <path fill="none" stroke-dasharray="6,2" d="M289.053 149.4988 L289.053 124.899 L463.133 124.899 L463.133 86.8588" clip-path="url(#clipPath2)"/>
      <path fill="white" stroke-dasharray="6,2" d="M463.133 71.8588 L457.133 87.8588 L469.133 87.8588 Z" clip-path="url(#clipPath2)" stroke="none"/>
      <path fill="none" d="M463.133 71.8588 L457.133 87.8588 L469.133 87.8588 Z" clip-path="url(#clipPath2)"/>
      <path fill="none" d="M441.0941 152.2017 L441.0941 110.267 L315.2931 110.267 L315.2931 -27.8623" clip-path="url(#clipPath2)"/>
      <path fill="white" d="M315.2931 -42.8623 L309.2931 -26.8623 L321.2931 -26.8623 Z" clip-path="url(#clipPath2)" stroke="none"/>
      <path fill="none" d="M315.2931 -42.8623 L309.2931 -26.8623 L321.2931 -26.8623 Z" clip-path="url(#clipPath2)"/>
      <path fill="none" stroke-dasharray="6,2" d="M476.87 152.2035 L476.87 86.8372" clip-path="url(#clipPath2)"/>
      <path fill="white" stroke-dasharray="6,2" d="M476.87 71.8372 L470.87 87.8372 L482.87 87.8372 Z" clip-path="url(#clipPath2)" stroke="none"/>
      <path fill="none" d="M476.87 71.8372 L470.87 87.8372 L482.87 87.8372 Z" clip-path="url(#clipPath2)"/>
      <path fill="none" stroke-dasharray="6,2" d="M490.0947 152.1948 L490.0947 123.363 L666.756 123.363 L666.756 86.8478" clip-path="url(#clipPath2)"/>
      <path fill="white" stroke-dasharray="6,2" d="M666.756 71.8478 L660.756 87.8478 L672.756 87.8478 Z" clip-path="url(#clipPath2)" stroke="none"/>
      <path fill="none" d="M666.756 71.8478 L660.756 87.8478 L672.756 87.8478 Z" clip-path="url(#clipPath2)"/>
      <path fill="none" d="M488.2581 -63.3311 L488.2581 26.7889 L809.7793 26.7889 L809.7793 43.6799" clip-path="url(#clipPath2)"/>
      <text x="685.3532" xml:space="preserve" y="21.7681" clip-path="url(#clipPath2)" font-family="sans-serif" stroke="none">0..* filteredClassifier</text>
    </g>
  </g>
</svg>
