<?xml version="1.0" encoding="UTF-8" standalone="no"?>
<!DOCTYPE svg PUBLIC "-//W3C//DTD SVG 1.1//EN"
 "http://www.w3.org/Graphics/SVG/1.1/DTD/svg11.dtd">
<!-- Generated by graphviz version 2.38.0 (20140413.2041)
 -->
<!-- Title: %3 Pages: 1 -->
<svg width="576pt" height="267pt"
 viewBox="0.00 0.00 576.00 266.91" xmlns="http://www.w3.org/2000/svg" xmlns:xlink="http://www.w3.org/1999/xlink">
<g id="graph0" class="graph" transform="scale(0.763137 0.763137) rotate(0) translate(4 345.759)">
<title>%3</title>
<polygon fill="white" stroke="none" points="-4,4 -4,-345.759 750.779,-345.759 750.779,4 -4,4"/>
<!-- emfviews -->
<g id="node1" class="node"><title>emfviews</title>
<polygon fill="#ece5ce" stroke="#ece5ce" points="389.279,-116.879 309.279,-116.879 309.279,-80.8793 389.279,-80.8793 389.279,-116.879"/>
<text text-anchor="middle" x="349.279" y="-95.1793" font-family="TeX Gyre Adventor" font-size="14.00" fill="#342015">emfviews</text>
</g>
<!-- emfviews.virtuallinksdelegator -->
<g id="node2" class="node"><title>emfviews.virtuallinksdelegator</title>
<polygon fill="#ece5ce" stroke="#ece5ce" points="645.279,-36 425.279,-36 425.279,-0 645.279,-0 645.279,-36"/>
<text text-anchor="middle" x="535.279" y="-14.3" font-family="TeX Gyre Adventor" font-size="14.00" fill="#342015">emfviews.virtuallinksdelegator</text>
</g>
<!-- emfviews&#45;&gt;emfviews.virtuallinksdelegator -->
<g id="edge1" class="edge"><title>emfviews&#45;&gt;emfviews.virtuallinksdelegator</title>
<path fill="none" stroke="#774f38" d="M352.279,-79.8793C352.279,-79.8793 420.883,-57.0563 474.082,-39.3585"/>
<polygon fill="none" stroke="#774f38" points="475.432,-42.598 483.816,-36.1203 473.223,-35.9559 475.432,-42.598"/>
</g>
<!-- emfviews.vlink&#45;mm -->
<g id="node3" class="node"><title>emfviews.vlink&#45;mm</title>
<polygon fill="#ece5ce" stroke="#ece5ce" points="327.779,-36 184.779,-36 184.779,-0 327.779,-0 327.779,-36"/>
<text text-anchor="middle" x="256.279" y="-14.3" font-family="TeX Gyre Adventor" font-size="14.00" fill="#342015">emfviews.vlink&#45;mm</text>
</g>
<!-- emfviews&#45;&gt;emfviews.vlink&#45;mm -->
<g id="edge2" class="edge"><title>emfviews&#45;&gt;emfviews.vlink&#45;mm</title>
<path fill="none" stroke="#774f38" d="M352.279,-79.8793C352.279,-79.8793 319.214,-58.911 291.895,-41.5861"/>
<polygon fill="none" stroke="#774f38" points="293.595,-38.5201 283.276,-36.1203 289.846,-44.4316 293.595,-38.5201"/>
</g>
<!-- emfviews.editor -->
<g id="node4" class="node"><title>emfviews.editor</title>
<polygon fill="#ece5ce" stroke="#ece5ce" points="479.279,-269.759 355.279,-269.759 355.279,-233.759 479.279,-233.759 479.279,-269.759"/>
<text text-anchor="middle" x="417.279" y="-248.059" font-family="TeX Gyre Adventor" font-size="14.00" fill="#342015">emfviews.editor</text>
</g>
<!-- emfviews.editor&#45;&gt;emfviews -->
<g id="edge3" class="edge"><title>emfviews.editor&#45;&gt;emfviews</title>
<path fill="none" stroke="#774f38" d="M410.279,-232.759C410.279,-232.759 379.11,-164.863 361.333,-126.137"/>
<polygon fill="none" stroke="#774f38" points="364.482,-124.607 357.129,-116.979 358.12,-127.527 364.482,-124.607"/>
</g>
<!-- emfviews.ui -->
<g id="node5" class="node"><title>emfviews.ui</title>
<polygon fill="#ece5ce" stroke="#ece5ce" points="350.779,-197.759 255.779,-197.759 255.779,-161.759 350.779,-161.759 350.779,-197.759"/>
<text text-anchor="middle" x="303.279" y="-176.059" font-family="TeX Gyre Adventor" font-size="14.00" fill="#342015">emfviews.ui</text>
</g>
<!-- emfviews.editor&#45;&gt;emfviews.ui -->
<g id="edge4" class="edge"><title>emfviews.editor&#45;&gt;emfviews.ui</title>
<path fill="none" stroke="#774f38" d="M410.279,-232.759C410.279,-232.759 377.092,-216.63 347.683,-202.338"/>
<polygon fill="none" stroke="#774f38" points="348.839,-199.008 338.315,-197.785 345.779,-205.304 348.839,-199.008"/>
</g>
<!-- emfviews.util -->
<g id="node6" class="node"><title>emfviews.util</title>
<polygon fill="#ece5ce" stroke="#ece5ce" points="484.857,-80.9286 489.212,-81.0271 493.522,-81.1746 497.769,-81.3706 501.936,-81.6146 506.007,-81.9059 509.966,-82.2437 513.796,-82.6272 517.484,-83.0551 521.015,-83.5265 524.378,-84.0399 527.56,-84.594 530.55,-85.1873 533.34,-85.8181 535.921,-86.4846 538.285,-87.1852 540.428,-87.9178 542.344,-88.6805 544.03,-89.4711 545.484,-90.2875 546.705,-91.1274 547.693,-91.9886 548.45,-92.8687 548.978,-93.7652 549.28,-94.6758 549.362,-95.5979 549.227,-96.529 548.884,-97.4665 548.337,-98.4079 547.596,-99.3506 546.667,-100.292 545.56,-101.23 544.284,-102.161 542.848,-103.083 541.261,-103.993 539.533,-104.89 537.674,-105.77 535.694,-106.631 533.601,-107.471 531.405,-108.287 529.116,-109.078 526.741,-109.841 524.29,-110.573 521.771,-111.274 519.19,-111.94 516.555,-112.571 513.873,-113.165 511.15,-113.719 508.39,-114.232 505.601,-114.703 502.785,-115.131 499.947,-115.515 497.09,-115.853 494.219,-116.144 491.336,-116.388 488.444,-116.584 485.544,-116.731 482.64,-116.83 479.733,-116.879 476.825,-116.879 473.918,-116.83 471.013,-116.731 468.114,-116.584 465.221,-116.388 462.338,-116.144 459.467,-115.853 456.611,-115.515 453.773,-115.131 450.957,-114.703 448.167,-114.232 445.408,-113.719 442.684,-113.165 440.002,-112.571 437.368,-111.94 434.787,-111.274 432.267,-110.573 429.816,-109.841 427.442,-109.078 425.152,-108.287 422.957,-107.471 420.864,-106.631 418.883,-105.77 417.024,-104.89 415.297,-103.993 413.71,-103.083 412.274,-102.161 410.997,-101.23 409.891,-100.292 408.962,-99.3506 408.22,-98.4079 407.674,-97.4665 407.33,-96.529 407.196,-95.5979 407.277,-94.6758 407.58,-93.7652 408.107,-92.8687 408.864,-91.9886 409.853,-91.1274 411.074,-90.2875 412.528,-89.4711 414.214,-88.6805 416.13,-87.9178 418.272,-87.1852 420.637,-86.4846 423.218,-85.8181 426.007,-85.1873 428.998,-84.594 432.18,-84.0399 435.542,-83.5265 439.074,-83.0551 442.761,-82.6272 446.592,-82.2437 450.55,-81.9059 454.621,-81.6146 458.789,-81.3706 463.036,-81.1746 467.346,-81.0271 471.701,-80.9286 476.083,-80.8793 480.474,-80.8793 484.857,-80.9286"/>
<text text-anchor="middle" x="478.279" y="-95.1793" font-family="TeX Gyre Adventor" font-size="14.00" fill="#342015">emfviews.util</text>
</g>
<!-- emfviews.editor&#45;&gt;emfviews.util -->
<g id="edge5" class="edge"><title>emfviews.editor&#45;&gt;emfviews.util</title>
<path fill="none" stroke="#774f38" d="M410.279,-232.759C410.279,-232.759 422.677,-213.73 431.279,-197.759 444.125,-173.906 457.361,-145.987 466.5,-126.084"/>
<polygon fill="none" stroke="#774f38" points="469.795,-127.292 470.759,-116.741 463.426,-124.388 469.795,-127.292"/>
</g>
<!-- emfviews.ui&#45;&gt;emfviews -->
<g id="edge6" class="edge"><title>emfviews.ui&#45;&gt;emfviews</title>
<path fill="none" stroke="#774f38" d="M312.279,-160.759C312.279,-160.759 323.354,-142.535 333.386,-126.029"/>
<polygon fill="none" stroke="#774f38" points="336.572,-127.525 338.775,-117.162 330.59,-123.89 336.572,-127.525"/>
</g>
<!-- emfviews.ui&#45;&gt;emfviews.vlink&#45;mm -->
<g id="edge7" class="edge"><title>emfviews.ui&#45;&gt;emfviews.vlink&#45;mm</title>
<path fill="none" stroke="#774f38" d="M312.279,-160.759C312.279,-160.759 49.341,-149.576 28.2788,-125.759 12.451,-107.86 13.4194,-90.7098 28.2788,-72 46.5185,-49.0341 116.667,-35.1174 174.393,-27.3462"/>
<polygon fill="none" stroke="#774f38" points="175.178,-30.7736 184.642,-26.0122 174.274,-23.8321 175.178,-30.7736"/>
</g>
<!-- emfviews.ui&#45;&gt;emfviews.util -->
<g id="edge8" class="edge"><title>emfviews.ui&#45;&gt;emfviews.util</title>
<path fill="none" stroke="#774f38" d="M312.279,-160.759C312.279,-160.759 383.61,-134.599 432.754,-116.575"/>
<polygon fill="none" stroke="#774f38" points="434.076,-119.818 442.259,-113.089 431.666,-113.246 434.076,-119.818"/>
</g>
<!-- emfviews.util&#45;&gt;emfviews.vlink&#45;mm -->
<g id="edge9" class="edge"><title>emfviews.util&#45;&gt;emfviews.vlink&#45;mm</title>
<path fill="none" stroke="#774f38" d="M437.043,-83.2275C402.364,-70.9058 352.407,-53.1556 313.796,-39.4365"/>
<polygon fill="none" stroke="#774f38" points="314.835,-36.0914 304.24,-36.0413 312.491,-42.6874 314.835,-36.0914"/>
</g>
<!-- emfviews.virtuallinksepsilondelegate -->
<g id="node7" class="node"><title>emfviews.virtuallinksepsilondelegate</title>
<polygon fill="#ece5ce" stroke="#ece5ce" points="746.779,-197.759 483.779,-197.759 483.779,-161.759 746.779,-161.759 746.779,-197.759"/>
<text text-anchor="middle" x="615.279" y="-176.059" font-family="TeX Gyre Adventor" font-size="14.00" fill="#342015">emfviews.virtuallinksepsilondelegate</text>
</g>
<!-- emfviews.virtuallinksepsilondelegate&#45;&gt;emfviews.virtuallinksdelegator -->
<g id="edge10" class="edge"><title>emfviews.virtuallinksepsilondelegate&#45;&gt;emfviews.virtuallinksdelegator</title>
<path fill="none" stroke="#774f38" d="M593.279,-160.759C593.279,-160.759 607.286,-108.065 591.279,-72 586.323,-60.8336 577.783,-50.8928 568.845,-42.723"/>
<polygon fill="none" stroke="#774f38" points="570.849,-39.8331 560.967,-36.0131 566.31,-45.162 570.849,-39.8331"/>
</g>
<!-- emfviews.virtuallinksepsilondelegate&#45;&gt;emfviews.vlink&#45;mm -->
<g id="edge11" class="edge"><title>emfviews.virtuallinksepsilondelegate&#45;&gt;emfviews.vlink&#45;mm</title>
<path fill="none" stroke="#774f38" d="M593.279,-160.759C593.279,-160.759 591.132,-98.8104 558.279,-72 541.312,-58.1539 421.368,-40.2086 337.849,-29.1555"/>
<polygon fill="none" stroke="#774f38" points="338.224,-25.6748 327.854,-27.8424 337.313,-32.6152 338.224,-25.6748"/>
</g>
<!-- emfviews.virtuallinksepsilondelegate&#45;&gt;emfviews.util -->
<g id="edge12" class="edge"><title>emfviews.virtuallinksepsilondelegate&#45;&gt;emfviews.util</title>
<path fill="none" stroke="#774f38" d="M593.279,-160.759C593.279,-160.759 548.891,-137.26 515.269,-119.461"/>
<polygon fill="none" stroke="#774f38" points="516.593,-116.202 506.117,-114.616 513.318,-122.388 516.593,-116.202"/>
</g>
<!-- emfviews.\nvirtuallinksocldelegate -->
<g id="node8" class="node"><title>emfviews.\nvirtuallinksocldelegate</title>
<polygon fill="#c5e0dc" stroke="#c5e0dc" points="176.033,-72.1935 183.815,-72.34 191.517,-72.5593 199.107,-72.8506 206.554,-73.2133 213.829,-73.6464 220.902,-74.1486 227.747,-74.7186 234.337,-75.3549 240.647,-76.0556 246.656,-76.8189 252.342,-77.6426 257.686,-78.5245 262.671,-79.4623 267.282,-80.4532 271.508,-81.4947 275.337,-82.5838 278.761,-83.7176 281.774,-84.8929 284.372,-86.1066 286.554,-87.3552 288.32,-88.6355 289.672,-89.9438 290.616,-91.2767 291.156,-92.6303 291.301,-94.0011 291.061,-95.3853 290.447,-96.7791 289.47,-98.1786 288.145,-99.58 286.486,-100.979 284.508,-102.373 282.228,-103.757 279.661,-105.128 276.825,-106.482 273.738,-107.815 270.416,-109.123 266.877,-110.403 263.137,-111.652 259.214,-112.866 255.123,-114.041 250.88,-115.175 246.5,-116.264 241.997,-117.305 237.386,-118.296 232.678,-119.234 227.885,-120.116 223.018,-120.94 218.087,-121.703 213.102,-122.404 208.07,-123.04 202.998,-123.61 197.895,-124.112 192.764,-124.545 187.612,-124.908 182.443,-125.199 177.262,-125.419 172.072,-125.565 166.877,-125.638 161.68,-125.638 156.485,-125.565 151.296,-125.419 146.114,-125.199 140.946,-124.908 135.794,-124.545 130.663,-124.112 125.559,-123.61 120.488,-123.04 115.456,-122.404 110.47,-121.703 105.54,-120.94 100.673,-120.116 95.8801,-119.234 91.1719,-118.296 86.5603,-117.305 82.0578,-116.264 77.678,-115.175 73.4351,-114.041 69.3441,-112.866 65.4206,-111.652 61.6809,-110.403 58.1415,-109.123 54.8196,-107.815 51.7321,-106.482 48.8966,-105.128 46.33,-103.757 44.0495,-102.373 42.0716,-100.979 40.4124,-99.58 39.0873,-98.1786 38.1107,-96.7791 37.4963,-95.3853 37.2562,-94.0011 37.4016,-92.6303 37.942,-91.2767 38.8853,-89.9438 40.2377,-88.6355 42.0037,-87.3552 44.1856,-86.1066 46.7839,-84.8929 49.797,-83.7176 53.2209,-82.5838 57.0497,-81.4947 61.2752,-80.4532 65.8868,-79.4623 70.8719,-78.5245 76.2158,-77.6426 81.9016,-76.8189 87.9102,-76.0556 94.2209,-75.3549 100.811,-74.7186 107.655,-74.1486 114.729,-73.6464 122.003,-73.2133 129.451,-72.8506 137.041,-72.5593 144.742,-72.34 152.525,-72.1935 160.355,-72.1202 168.202,-72.1202 176.033,-72.1935"/>
<text text-anchor="middle" x="164.279" y="-102.679" font-family="TeX Gyre Adventor" font-size="14.00" fill="#342015">emfviews.</text>
<text text-anchor="middle" x="164.279" y="-87.6793" font-family="TeX Gyre Adventor" font-size="14.00" fill="#342015">virtuallinksocldelegate</text>
</g>
<!-- emfviews.\nvirtuallinksocldelegate&#45;&gt;emfviews.vlink&#45;mm -->
<g id="edge13" class="edge"><title>emfviews.\nvirtuallinksocldelegate&#45;&gt;emfviews.vlink&#45;mm</title>
<path fill="none" stroke="#c5e0dc" d="M193.895,-72.4872C205.054,-62.9196 217.692,-52.0834 228.662,-42.6784"/>
<polygon fill="none" stroke="#c5e0dc" points="230.996,-45.2878 236.309,-36.1217 226.439,-39.9736 230.996,-45.2878"/>
</g>
<!-- emfviews.ui.linkingview -->
<g id="node9" class="node"><title>emfviews.ui.linkingview</title>
<polygon fill="#f1d4af" stroke="#f1d4af" points="324.779,-269.759 151.779,-269.759 151.779,-233.759 324.779,-233.759 324.779,-269.759"/>
<text text-anchor="middle" x="238.279" y="-248.059" font-family="TeX Gyre Adventor" font-size="14.00" fill="#342015">emfviews.ui.linkingview</text>
</g>
<!-- emfviews.ui.linkingview&#45;&gt;emfviews -->
<g id="edge14" class="edge"><title>emfviews.ui.linkingview&#45;&gt;emfviews</title>
<path fill="none" stroke="#e08e78" d="M251.279,-232.759C251.279,-232.759 230.701,-189.291 246.279,-161.759 249.925,-155.315 281.197,-136.991 308.337,-121.944"/>
<polygon fill="none" stroke="#e08e78" points="310.265,-124.877 317.337,-116.988 306.889,-118.746 310.265,-124.877"/>
</g>
<!-- emfviews.ui.linkingview&#45;&gt;emfviews.vlink&#45;mm -->
<g id="edge15" class="edge"><title>emfviews.ui.linkingview&#45;&gt;emfviews.vlink&#45;mm</title>
<path fill="none" stroke="#e08e78" d="M251.279,-232.759C251.279,-232.759 -66.7887,-171.413 13.2788,-72 33.3869,-47.0335 111.918,-33.1988 174.336,-25.9818"/>
<polygon fill="none" stroke="#e08e78" points="175.047,-29.4242 184.597,-24.8372 174.271,-22.4674 175.047,-29.4242"/>
</g>
<!-- emfviews.ui.linkingview&#45;&gt;emfviews.ui -->
<g id="edge16" class="edge"><title>emfviews.ui.linkingview&#45;&gt;emfviews.ui</title>
<path fill="none" stroke="#e08e78" d="M251.279,-232.759C251.279,-232.759 265.38,-218.657 278.897,-205.141"/>
<polygon fill="none" stroke="#e08e78" points="281.656,-207.331 286.252,-197.785 276.706,-202.381 281.656,-207.331"/>
</g>
<!-- emfviews.ui.linkingview&#45;&gt;emfviews.util -->
<g id="edge17" class="edge"><title>emfviews.ui.linkingview&#45;&gt;emfviews.util</title>
<path fill="none" stroke="#e08e78" d="M251.279,-232.759C251.279,-232.759 315.019,-221.987 359.279,-197.759 396.011,-177.651 432.317,-145.535 454.984,-123.616"/>
<polygon fill="none" stroke="#e08e78" points="457.727,-125.827 462.41,-116.324 452.823,-120.832 457.727,-125.827"/>
</g>
<!-- emfviews.ui.linkingviewprordelegate -->
<g id="node10" class="node"><title>emfviews.ui.linkingviewprordelegate</title>
<polygon fill="#f1d4af" stroke="#f1d4af" points="369.779,-341.759 106.779,-341.759 106.779,-305.759 369.779,-305.759 369.779,-341.759"/>
<text text-anchor="middle" x="238.279" y="-320.059" font-family="TeX Gyre Adventor" font-size="14.00" fill="#342015">emfviews.ui.linkingviewprordelegate</text>
</g>
<!-- emfviews.ui.linkingviewprordelegate&#45;&gt;emfviews.ui.linkingview -->
<g id="edge18" class="edge"><title>emfviews.ui.linkingviewprordelegate&#45;&gt;emfviews.ui.linkingview</title>
<path fill="none" stroke="#e08e78" d="M238.279,-305.455C238.279,-297.741 238.279,-288.471 238.279,-279.871"/>
<polygon fill="none" stroke="#e08e78" points="241.779,-279.863 238.279,-269.863 234.779,-279.863 241.779,-279.863"/>
</g>
</g>
</svg>
