<?xml version="1.0" encoding="UTF-8"?><svg xmlns="http://www.w3.org/2000/svg" xmlns:xlink="http://www.w3.org/1999/xlink" fill-opacity="1" color-rendering="auto" color-interpolation="auto" text-rendering="auto" stroke="black" stroke-linecap="square" width="857" stroke-miterlimit="10" shape-rendering="auto" stroke-opacity="1" fill="black" stroke-dasharray="none" font-weight="normal" stroke-width="1" height="498" font-family="'Dialog'" font-style="normal" stroke-linejoin="miter" font-size="12px" stroke-dashoffset="0" image-rendering="auto">
  <!--Generated by ySVG 2.5-->
  <defs id="genericDefs"/>
  <g>
    <defs id="defs1">
      <clipPath clipPathUnits="userSpaceOnUse" id="clipPath1">
        <path d="M0 0 L857 0 L857 498 L0 498 L0 0 Z"/>
      </clipPath>
      <clipPath clipPathUnits="userSpaceOnUse" id="clipPath2">
        <path d="M133 -302 L990 -302 L990 196 L133 196 L133 -302 Z"/>
      </clipPath>
      <clipPath clipPathUnits="userSpaceOnUse" id="clipPath3">
        <path d="M615 -91 L615 -63 L756 -63 L756 -91 Z"/>
      </clipPath>
      <clipPath clipPathUnits="userSpaceOnUse" id="clipPath4">
        <path d="M601 -219 L601 -191 L771 -191 L771 -219 Z"/>
      </clipPath>
      <clipPath clipPathUnits="userSpaceOnUse" id="clipPath5">
        <path d="M801 -91 L801 -63 L942 -63 L942 -91 Z"/>
      </clipPath>
      <clipPath clipPathUnits="userSpaceOnUse" id="clipPath6">
        <path d="M430 -91 L430 -63 L571 -63 L571 -91 Z"/>
      </clipPath>
      <clipPath clipPathUnits="userSpaceOnUse" id="clipPath7">
        <path d="M456 -219 L456 -191 L545 -191 L545 -219 Z"/>
      </clipPath>
      <clipPath clipPathUnits="userSpaceOnUse" id="clipPath8">
        <path d="M827 -219 L827 -191 L916 -191 L916 -219 Z"/>
      </clipPath>
      <clipPath clipPathUnits="userSpaceOnUse" id="clipPath9">
        <path d="M231 -91 L231 -63 L372 -63 L372 -91 Z"/>
      </clipPath>
      <clipPath clipPathUnits="userSpaceOnUse" id="clipPath10">
        <path d="M192 -180 L192 -152 L413 -152 L413 -180 Z"/>
      </clipPath>
      <clipPath clipPathUnits="userSpaceOnUse" id="clipPath11">
        <path d="M148 152 L148 180 L289 180 L289 152 Z"/>
      </clipPath>
      <clipPath clipPathUnits="userSpaceOnUse" id="clipPath12">
        <path d="M153 43 L153 71 L244 71 L244 43 Z"/>
      </clipPath>
      <clipPath clipPathUnits="userSpaceOnUse" id="clipPath13">
        <path d="M320 152 L320 180 L472 180 L472 152 Z"/>
      </clipPath>
      <clipPath clipPathUnits="userSpaceOnUse" id="clipPath14">
        <path d="M373 43 L373 71 L464 71 L464 43 Z"/>
      </clipPath>
      <clipPath clipPathUnits="userSpaceOnUse" id="clipPath15">
        <path d="M763 43 L763 71 L854 71 L854 43 Z"/>
      </clipPath>
      <clipPath clipPathUnits="userSpaceOnUse" id="clipPath16">
        <path d="M221 -246 L221 -218 L383 -218 L383 -246 Z"/>
      </clipPath>
    </defs>
    <g fill="white" text-rendering="geometricPrecision" shape-rendering="geometricPrecision" transform="translate(-133,302)" stroke="white">
      <rect x="133" width="857" height="498" y="-302" clip-path="url(#clipPath2)" stroke="none"/>
    </g>
    <g fill="white" text-rendering="geometricPrecision" shape-rendering="geometricPrecision" transform="matrix(1,0,0,1,-133,302)" stroke="white">
      <rect x="615.7444" width="141.984" height="28.1344" y="-91.4928" clip-path="url(#clipPath2)" stroke="none"/>
    </g>
    <g stroke-linecap="butt" transform="matrix(1,0,0,1,-133,302)" fill="rgb(153,153,153)" text-rendering="geometricPrecision" shape-rendering="geometricPrecision" stroke="rgb(153,153,153)" stroke-miterlimit="1.45">
      <rect fill="none" x="615.7444" width="141.984" height="28.1344" y="-91.4928" clip-path="url(#clipPath2)"/>
    </g>
    <g font-size="13px" stroke-linecap="butt" transform="matrix(1,0,0,1,-133,302)" text-rendering="geometricPrecision" font-family="sans-serif" shape-rendering="geometricPrecision" font-weight="bold" stroke-miterlimit="1.45">
      <text x="633.7081" xml:space="preserve" y="-74.4259" clip-path="url(#clipPath3)" stroke="none">VirtualEObject</text>
    </g>
    <g fill="white" text-rendering="geometricPrecision" shape-rendering="geometricPrecision" transform="matrix(1,0,0,1,-133,302)" stroke="white">
      <rect x="601.4844" width="170.504" height="28.1344" y="-219.4784" clip-path="url(#clipPath2)" stroke="none"/>
    </g>
    <g stroke-linecap="butt" transform="matrix(1,0,0,1,-133,302)" fill="rgb(153,153,153)" text-rendering="geometricPrecision" shape-rendering="geometricPrecision" stroke="rgb(153,153,153)" stroke-miterlimit="1.45">
      <rect fill="none" x="601.4844" width="170.504" height="28.1344" y="-219.4784" clip-path="url(#clipPath2)"/>
    </g>
    <g font-size="13px" stroke-linecap="butt" transform="matrix(1,0,0,1,-133,302)" text-rendering="geometricPrecision" font-family="sans-serif" shape-rendering="geometricPrecision" font-weight="bold" stroke-miterlimit="1.45">
      <text x="610.9486" xml:space="preserve" y="-202.4115" clip-path="url(#clipPath4)" stroke="none">DynamicEObjectImpl</text>
    </g>
    <g fill="white" text-rendering="geometricPrecision" shape-rendering="geometricPrecision" transform="matrix(1,0,0,1,-133,302)" stroke="white">
      <rect x="801.4661" width="141.984" height="28.1344" y="-91.4928" clip-path="url(#clipPath2)" stroke="none"/>
    </g>
    <g stroke-linecap="butt" transform="matrix(1,0,0,1,-133,302)" fill="rgb(153,153,153)" text-rendering="geometricPrecision" shape-rendering="geometricPrecision" stroke="rgb(153,153,153)" stroke-miterlimit="1.45">
      <rect fill="none" x="801.4661" width="141.984" height="28.1344" y="-91.4928" clip-path="url(#clipPath2)"/>
    </g>
    <g font-size="13px" stroke-linecap="butt" transform="matrix(1,0,0,1,-133,302)" text-rendering="geometricPrecision" font-family="sans-serif" shape-rendering="geometricPrecision" font-weight="bold" stroke-miterlimit="1.45">
      <text x="824.0826" xml:space="preserve" y="-74.4259" clip-path="url(#clipPath5)" stroke="none">VirtualEClass</text>
    </g>
    <g fill="white" text-rendering="geometricPrecision" shape-rendering="geometricPrecision" transform="matrix(1,0,0,1,-133,302)" stroke="white">
      <rect x="430.0228" width="141.984" height="28.1344" y="-91.4928" clip-path="url(#clipPath2)" stroke="none"/>
    </g>
    <g stroke-linecap="butt" transform="matrix(1,0,0,1,-133,302)" fill="rgb(153,153,153)" text-rendering="geometricPrecision" shape-rendering="geometricPrecision" stroke="rgb(153,153,153)" stroke-miterlimit="1.45">
      <rect fill="none" x="430.0228" width="141.984" height="28.1344" y="-91.4928" clip-path="url(#clipPath2)"/>
    </g>
    <g font-size="13px" stroke-linecap="butt" transform="matrix(1,0,0,1,-133,302)" text-rendering="geometricPrecision" font-family="sans-serif" shape-rendering="geometricPrecision" font-weight="bold" stroke-miterlimit="1.45">
      <text x="440.9882" xml:space="preserve" y="-74.4259" clip-path="url(#clipPath6)" stroke="none">VirtualEPackage</text>
    </g>
    <g fill="white" text-rendering="geometricPrecision" shape-rendering="geometricPrecision" transform="matrix(1,0,0,1,-133,302)" stroke="white">
      <rect x="456.2628" width="89.504" height="28.1344" y="-219.4784" clip-path="url(#clipPath2)" stroke="none"/>
    </g>
    <g stroke-linecap="butt" transform="matrix(1,0,0,1,-133,302)" fill="rgb(153,153,153)" text-rendering="geometricPrecision" shape-rendering="geometricPrecision" stroke="rgb(153,153,153)" stroke-miterlimit="1.45">
      <rect fill="none" x="456.2628" width="89.504" height="28.1344" y="-219.4784" clip-path="url(#clipPath2)"/>
    </g>
    <g stroke-linecap="butt" font-size="13px" transform="matrix(1,0,0,1,-133,302)" text-rendering="geometricPrecision" font-family="sans-serif" shape-rendering="geometricPrecision" font-style="italic" font-weight="bold" stroke-miterlimit="1.45">
      <text x="465.8011" xml:space="preserve" y="-202.4115" clip-path="url(#clipPath7)" stroke="none">EPackage</text>
    </g>
    <g fill="white" text-rendering="geometricPrecision" shape-rendering="geometricPrecision" transform="matrix(1,0,0,1,-133,302)" stroke="white">
      <rect x="827.7061" width="89.504" height="28.1344" y="-219.4784" clip-path="url(#clipPath2)" stroke="none"/>
    </g>
    <g stroke-linecap="butt" transform="matrix(1,0,0,1,-133,302)" fill="rgb(153,153,153)" text-rendering="geometricPrecision" shape-rendering="geometricPrecision" stroke="rgb(153,153,153)" stroke-miterlimit="1.45">
      <rect fill="none" x="827.7061" width="89.504" height="28.1344" y="-219.4784" clip-path="url(#clipPath2)"/>
    </g>
    <g stroke-linecap="butt" font-size="13px" transform="matrix(1,0,0,1,-133,302)" text-rendering="geometricPrecision" font-family="sans-serif" shape-rendering="geometricPrecision" font-style="italic" font-weight="bold" stroke-miterlimit="1.45">
      <text x="848.8956" xml:space="preserve" y="-202.4115" clip-path="url(#clipPath8)" stroke="none">EClass</text>
    </g>
    <g fill="white" text-rendering="geometricPrecision" shape-rendering="geometricPrecision" transform="matrix(1,0,0,1,-133,302)" stroke="white">
      <rect x="231.7311" width="141.984" height="28.1344" y="-91.4928" clip-path="url(#clipPath2)" stroke="none"/>
    </g>
    <g stroke-linecap="butt" transform="matrix(1,0,0,1,-133,302)" fill="rgb(153,153,153)" text-rendering="geometricPrecision" shape-rendering="geometricPrecision" stroke="rgb(153,153,153)" stroke-miterlimit="1.45">
      <rect fill="none" x="231.7311" width="141.984" height="28.1344" y="-91.4928" clip-path="url(#clipPath2)"/>
    </g>
    <g font-size="13px" stroke-linecap="butt" transform="matrix(1,0,0,1,-133,302)" text-rendering="geometricPrecision" font-family="sans-serif" shape-rendering="geometricPrecision" font-weight="bold" stroke-miterlimit="1.45">
      <text x="249.3266" xml:space="preserve" y="-74.4259" clip-path="url(#clipPath9)" stroke="none">VirtualFeature</text>
    </g>
    <g fill="white" text-rendering="geometricPrecision" shape-rendering="geometricPrecision" transform="matrix(1,0,0,1,-133,302)" stroke="white">
      <rect x="192.1011" width="221.244" height="28.1344" y="-180.0674" clip-path="url(#clipPath2)" stroke="none"/>
    </g>
    <g stroke-linecap="butt" transform="matrix(1,0,0,1,-133,302)" fill="rgb(153,153,153)" text-rendering="geometricPrecision" shape-rendering="geometricPrecision" stroke="rgb(153,153,153)" stroke-miterlimit="1.45">
      <rect fill="none" x="192.1011" width="221.244" height="28.1344" y="-180.0674" clip-path="url(#clipPath2)"/>
    </g>
    <g stroke-linecap="butt" font-size="13px" transform="matrix(1,0,0,1,-133,302)" text-rendering="geometricPrecision" font-family="sans-serif" shape-rendering="geometricPrecision" font-style="italic" font-weight="bold" stroke-miterlimit="1.45">
      <text x="201.1923" xml:space="preserve" y="-163.0005" clip-path="url(#clipPath10)" stroke="none">EStructuralFeature.Internal</text>
    </g>
    <g fill="white" text-rendering="geometricPrecision" shape-rendering="geometricPrecision" transform="matrix(1,0,0,1,-133,302)" stroke="white">
      <rect x="148.3011" width="141.984" height="28.1344" y="152.2222" clip-path="url(#clipPath2)" stroke="none"/>
    </g>
    <g stroke-linecap="butt" transform="matrix(1,0,0,1,-133,302)" fill="rgb(153,153,153)" text-rendering="geometricPrecision" shape-rendering="geometricPrecision" stroke="rgb(153,153,153)" stroke-miterlimit="1.45">
      <rect fill="none" x="148.3011" width="141.984" height="28.1344" y="152.2222" clip-path="url(#clipPath2)"/>
    </g>
    <g font-size="13px" stroke-linecap="butt" transform="matrix(1,0,0,1,-133,302)" text-rendering="geometricPrecision" font-family="sans-serif" shape-rendering="geometricPrecision" font-weight="bold" stroke-miterlimit="1.45">
      <text x="156.5655" xml:space="preserve" y="169.2891" clip-path="url(#clipPath11)" stroke="none">VirtualEAttribute</text>
    </g>
    <g fill="white" text-rendering="geometricPrecision" shape-rendering="geometricPrecision" transform="matrix(1,0,0,1,-133,302)" stroke="white">
      <rect x="153.9011" width="91.7057" height="28.1344" y="43.7006" clip-path="url(#clipPath2)" stroke="none"/>
    </g>
    <g stroke-linecap="butt" transform="matrix(1,0,0,1,-133,302)" fill="rgb(153,153,153)" text-rendering="geometricPrecision" shape-rendering="geometricPrecision" stroke="rgb(153,153,153)" stroke-miterlimit="1.45">
      <rect fill="none" x="153.9011" width="91.7057" height="28.1344" y="43.7006" clip-path="url(#clipPath2)"/>
    </g>
    <g stroke-linecap="butt" font-size="13px" transform="matrix(1,0,0,1,-133,302)" text-rendering="geometricPrecision" font-family="sans-serif" shape-rendering="geometricPrecision" font-style="italic" font-weight="bold" stroke-miterlimit="1.45">
      <text x="161.8394" xml:space="preserve" y="60.7675" clip-path="url(#clipPath12)" stroke="none">EAttribute</text>
    </g>
    <g fill="white" text-rendering="geometricPrecision" shape-rendering="geometricPrecision" transform="matrix(1,0,0,1,-133,302)" stroke="white">
      <rect x="320.2851" width="152.984" height="28.1344" y="152.2222" clip-path="url(#clipPath2)" stroke="none"/>
    </g>
    <g stroke-linecap="butt" transform="matrix(1,0,0,1,-133,302)" fill="rgb(153,153,153)" text-rendering="geometricPrecision" shape-rendering="geometricPrecision" stroke="rgb(153,153,153)" stroke-miterlimit="1.45">
      <rect fill="none" x="320.2851" width="152.984" height="28.1344" y="152.2222" clip-path="url(#clipPath2)"/>
    </g>
    <g font-size="13px" stroke-linecap="butt" transform="matrix(1,0,0,1,-133,302)" text-rendering="geometricPrecision" font-family="sans-serif" shape-rendering="geometricPrecision" font-weight="bold" stroke-miterlimit="1.45">
      <text x="330.3711" xml:space="preserve" y="169.2891" clip-path="url(#clipPath13)" stroke="none">VirtualEReference</text>
    </g>
    <g fill="white" text-rendering="geometricPrecision" shape-rendering="geometricPrecision" transform="matrix(1,0,0,1,-133,302)" stroke="white">
      <rect x="373.3861" width="91.7057" height="28.1344" y="43.7006" clip-path="url(#clipPath2)" stroke="none"/>
    </g>
    <g stroke-linecap="butt" transform="matrix(1,0,0,1,-133,302)" fill="rgb(153,153,153)" text-rendering="geometricPrecision" shape-rendering="geometricPrecision" stroke="rgb(153,153,153)" stroke-miterlimit="1.45">
      <rect fill="none" x="373.3861" width="91.7057" height="28.1344" y="43.7006" clip-path="url(#clipPath2)"/>
    </g>
    <g stroke-linecap="butt" font-size="13px" transform="matrix(1,0,0,1,-133,302)" text-rendering="geometricPrecision" font-family="sans-serif" shape-rendering="geometricPrecision" font-style="italic" font-weight="bold" stroke-miterlimit="1.45">
      <text x="377.646" xml:space="preserve" y="60.7675" clip-path="url(#clipPath14)" stroke="none">EReference</text>
    </g>
    <g fill="white" text-rendering="geometricPrecision" shape-rendering="geometricPrecision" transform="matrix(1,0,0,1,-133,302)" stroke="white">
      <rect x="763.9264" width="91.7057" height="28.1344" y="43.7006" clip-path="url(#clipPath2)" stroke="none"/>
    </g>
    <g stroke-linecap="butt" transform="matrix(1,0,0,1,-133,302)" fill="rgb(153,153,153)" text-rendering="geometricPrecision" shape-rendering="geometricPrecision" stroke="rgb(153,153,153)" stroke-miterlimit="1.45">
      <rect fill="none" x="763.9264" width="91.7057" height="28.1344" y="43.7006" clip-path="url(#clipPath2)"/>
    </g>
    <g stroke-linecap="butt" font-size="13px" transform="matrix(1,0,0,1,-133,302)" text-rendering="geometricPrecision" font-family="sans-serif" shape-rendering="geometricPrecision" font-style="italic" font-weight="bold" stroke-miterlimit="1.45">
      <text x="771.3188" xml:space="preserve" y="60.7675" clip-path="url(#clipPath15)" stroke="none">EClassifier</text>
    </g>
    <g fill="white" text-rendering="geometricPrecision" shape-rendering="geometricPrecision" transform="matrix(1,0,0,1,-133,302)" stroke="white">
      <rect x="221.7011" width="162.044" height="28.1344" y="-246.9798" clip-path="url(#clipPath2)" stroke="none"/>
    </g>
    <g stroke-linecap="butt" transform="matrix(1,0,0,1,-133,302)" fill="rgb(153,153,153)" text-rendering="geometricPrecision" shape-rendering="geometricPrecision" stroke="rgb(153,153,153)" stroke-miterlimit="1.45">
      <rect fill="none" x="221.7011" width="162.044" height="28.1344" y="-246.9798" clip-path="url(#clipPath2)"/>
    </g>
    <g stroke-linecap="butt" font-size="13px" transform="matrix(1,0,0,1,-133,302)" text-rendering="geometricPrecision" font-family="sans-serif" shape-rendering="geometricPrecision" font-style="italic" font-weight="bold" stroke-miterlimit="1.45">
      <text x="232.6703" xml:space="preserve" y="-229.9129" clip-path="url(#clipPath16)" stroke="none">EStructuralFeature</text>
    </g>
    <g text-rendering="geometricPrecision" stroke-miterlimit="1.45" shape-rendering="geometricPrecision" transform="matrix(1,0,0,1,-133,302)" stroke-linecap="butt">
      <path fill="none" d="M686.7365 -91.4722 L686.7365 -176.3076" clip-path="url(#clipPath2)"/>
      <path fill="white" d="M686.7365 -191.3076 L680.7365 -175.3076 L692.7365 -175.3076 Z" clip-path="url(#clipPath2)" stroke="none"/>
      <path fill="none" d="M686.7365 -191.3076 L680.7365 -175.3076 L692.7365 -175.3076 Z" clip-path="url(#clipPath2)"/>
      <path fill="none" d="M857.725 -91.509 L857.725 -122.493 L703.9976 -122.493 L703.9976 -176.3118" clip-path="url(#clipPath2)"/>
      <path fill="white" d="M703.9976 -191.3118 L697.9976 -175.3118 L709.9976 -175.3118 Z" clip-path="url(#clipPath2)" stroke="none"/>
      <path fill="none" d="M703.9976 -191.3118 L697.9976 -175.3118 L709.9976 -175.3118 Z" clip-path="url(#clipPath2)"/>
      <path fill="none" d="M518.781 -91.493 L518.781 -120.733 L670.4563 -120.733 L670.4563 -176.3112" clip-path="url(#clipPath2)"/>
      <path fill="white" d="M670.4563 -191.3112 L664.4563 -175.3112 L676.4563 -175.3112 Z" clip-path="url(#clipPath2)" stroke="none"/>
      <path fill="none" d="M670.4563 -191.3112 L664.4563 -175.3112 L676.4563 -175.3112 Z" clip-path="url(#clipPath2)"/>
      <path fill="none" d="M501.0148 -56.3238 L501.0148 -39.3419 L817.2003 -39.3419 L817.2003 -63.3251" clip-path="url(#clipPath2)"/>
      <path d="M501.0148 -63.3238 L506.0148 -56.3238 L501.0148 -49.3238 L496.0148 -56.3238 Z" clip-path="url(#clipPath2)" stroke="none"/>
      <text x="704.3948" xml:space="preserve" y="-45.1014" clip-path="url(#clipPath2)" font-family="sans-serif" stroke="none">0..* virtualClasses</text>
      <path fill="none" stroke-dasharray="6,2" d="M501.0148 -91.5178 L501.0148 -176.3692" clip-path="url(#clipPath2)"/>
      <path fill="white" stroke-dasharray="6,2" d="M501.0148 -191.3692 L495.0148 -175.3692 L507.0148 -175.3692 Z" clip-path="url(#clipPath2)" stroke="none"/>
      <path fill="none" d="M501.0148 -191.3692 L495.0148 -175.3692 L507.0148 -175.3692 Z" clip-path="url(#clipPath2)"/>
      <path fill="none" stroke-dasharray="6,2" d="M872.4581 -91.5178 L872.4581 -176.3692" clip-path="url(#clipPath2)"/>
      <path fill="white" stroke-dasharray="6,2" d="M872.4581 -191.3692 L866.4581 -175.3692 L878.4581 -175.3692 Z" clip-path="url(#clipPath2)" stroke="none"/>
      <path fill="none" d="M872.4581 -191.3692 L866.4581 -175.3692 L878.4581 -175.3692 Z" clip-path="url(#clipPath2)"/>
      <path fill="none" d="M872.4581 -56.3639 L872.4581 -15.7589 L335.4847 -15.7589 L335.4847 -63.3334" clip-path="url(#clipPath2)"/>
      <path d="M872.4581 -63.3639 L877.4581 -56.3639 L872.4581 -49.3639 L867.4581 -56.3639 Z" clip-path="url(#clipPath2)" stroke="none"/>
      <text x="344.4639" xml:space="preserve" y="-22.7446" clip-path="url(#clipPath2)" font-family="sans-serif" stroke="none">0..* virtualFeatures</text>
      <path fill="none" d="M316.0989 -91.5297 L316.0989 -131.933 L652.368 -131.933 L652.368 -176.3206" clip-path="url(#clipPath2)"/>
      <path fill="white" d="M652.368 -191.3206 L646.368 -175.3206 L658.368 -175.3206 Z" clip-path="url(#clipPath2)" stroke="none"/>
      <path fill="none" d="M652.368 -191.3206 L646.368 -175.3206 L658.368 -175.3206 Z" clip-path="url(#clipPath2)"/>
      <path fill="none" stroke-dasharray="6,2" d="M302.7231 -91.4816 L302.7231 -136.9188" clip-path="url(#clipPath2)"/>
      <path fill="white" stroke-dasharray="6,2" d="M302.7231 -151.9188 L296.7231 -135.9188 L308.7231 -135.9188 Z" clip-path="url(#clipPath2)" stroke="none"/>
      <path fill="none" d="M302.7231 -151.9188 L296.7231 -135.9188 L308.7231 -135.9188 Z" clip-path="url(#clipPath2)"/>
      <path fill="none" d="M225.4931 152.1956 L225.4931 110.779 L287.155 110.779 L287.155 -48.3309" clip-path="url(#clipPath2)"/>
      <path fill="white" d="M287.155 -63.3309 L281.155 -47.3309 L293.155 -47.3309 Z" clip-path="url(#clipPath2)" stroke="none"/>
      <path fill="none" d="M287.155 -63.3309 L281.155 -47.3309 L293.155 -47.3309 Z" clip-path="url(#clipPath2)"/>
      <path fill="none" stroke-dasharray="6,2" d="M199.7539 152.1956 L199.7539 86.8305" clip-path="url(#clipPath2)"/>
      <path fill="white" stroke-dasharray="6,2" d="M199.7539 71.8305 L193.7539 87.8305 L205.7539 87.8305 Z" clip-path="url(#clipPath2)" stroke="none"/>
      <path fill="none" d="M199.7539 71.8305 L193.7539 87.8305 L205.7539 87.8305 Z" clip-path="url(#clipPath2)"/>
      <path fill="none" d="M385.3771 152.2081 L385.3771 110.267 L302.7231 110.267 L302.7231 -48.3283" clip-path="url(#clipPath2)"/>
      <path fill="white" d="M302.7231 -63.3283 L296.7231 -47.3283 L308.7231 -47.3283 Z" clip-path="url(#clipPath2)" stroke="none"/>
      <path fill="none" d="M302.7231 -63.3283 L296.7231 -47.3283 L308.7231 -47.3283 Z" clip-path="url(#clipPath2)"/>
      <path fill="none" stroke-dasharray="6,2" d="M419.239 152.192 L419.239 86.8619" clip-path="url(#clipPath2)"/>
      <path fill="white" stroke-dasharray="6,2" d="M419.239 71.8619 L413.239 87.8619 L425.239 87.8619 Z" clip-path="url(#clipPath2)" stroke="none"/>
      <path fill="none" d="M419.239 71.8619 L413.239 87.8619 L425.239 87.8619 Z" clip-path="url(#clipPath2)"/>
      <path fill="none" d="M488.2581 -63.3311 L488.2581 26.7889 L809.7793 26.7889 L809.7793 43.6799" clip-path="url(#clipPath2)"/>
      <text x="685.3532" xml:space="preserve" y="21.7681" clip-path="url(#clipPath2)" font-family="sans-serif" stroke="none">0..* filteredClassifier</text>
      <path fill="none" stroke-dasharray="6,2" d="M302.7231 -180.0819 L302.7231 -203.8536" clip-path="url(#clipPath2)"/>
      <path fill="white" stroke-dasharray="6,2" d="M302.7231 -218.8536 L296.7231 -202.8536 L308.7231 -202.8536 Z" clip-path="url(#clipPath2)" stroke="none"/>
      <path fill="none" d="M302.7231 -218.8536 L296.7231 -202.8536 L308.7231 -202.8536 Z" clip-path="url(#clipPath2)"/>
      <path fill="none" d="M943.475 -77.4256 L974.4379 -77.4256 L974.4379 -269.1856 L302.7231 -269.1856 L302.7231 -247.0108" clip-path="url(#clipPath2)"/>
      <text x="299.7729" xml:space="preserve" y="-273.38" clip-path="url(#clipPath2)" font-family="sans-serif" stroke="none">0..* filteredFeatures</text>
    </g>
  </g>
</svg>
