<?xml version="1.0" encoding="UTF-8"?><svg xmlns="http://www.w3.org/2000/svg" xmlns:xlink="http://www.w3.org/1999/xlink" fill-opacity="1" color-rendering="auto" color-interpolation="auto" text-rendering="auto" stroke="black" stroke-linecap="square" width="1168" stroke-miterlimit="10" shape-rendering="auto" stroke-opacity="1" fill="black" stroke-dasharray="none" font-weight="normal" stroke-width="1" height="637" font-family="'Dialog'" font-style="normal" stroke-linejoin="miter" font-size="12px" stroke-dashoffset="0" image-rendering="auto">
  <!--Generated by ySVG 2.5-->
  <defs id="genericDefs"/>
  <g>
    <defs id="defs1">
      <clipPath clipPathUnits="userSpaceOnUse" id="clipPath1">
        <path d="M0 0 L1168 0 L1168 637 L0 637 L0 0 Z"/>
      </clipPath>
      <clipPath clipPathUnits="userSpaceOnUse" id="clipPath2">
        <path d="M74 -301 L1242 -301 L1242 336 L74 336 L74 -301 Z"/>
      </clipPath>
      <clipPath clipPathUnits="userSpaceOnUse" id="clipPath3">
        <path d="M401 -94 L401 -66 L542 -66 L542 -94 Z"/>
      </clipPath>
      <clipPath clipPathUnits="userSpaceOnUse" id="clipPath4">
        <path d="M579 -285 L579 -257 L788 -257 L788 -285 Z"/>
      </clipPath>
      <clipPath clipPathUnits="userSpaceOnUse" id="clipPath5">
        <path d="M801 -94 L801 -66 L942 -66 L942 -94 Z"/>
      </clipPath>
      <clipPath clipPathUnits="userSpaceOnUse" id="clipPath6">
        <path d="M609 -94 L609 -66 L750 -66 L750 -94 Z"/>
      </clipPath>
      <clipPath clipPathUnits="userSpaceOnUse" id="clipPath7">
        <path d="M639 -197 L639 -169 L728 -169 L728 -197 Z"/>
      </clipPath>
      <clipPath clipPathUnits="userSpaceOnUse" id="clipPath8">
        <path d="M1037 -197 L1037 -169 L1126 -169 L1126 -197 Z"/>
      </clipPath>
      <clipPath clipPathUnits="userSpaceOnUse" id="clipPath9">
        <path d="M690 125 L690 153 L831 153 L831 125 Z"/>
      </clipPath>
      <clipPath clipPathUnits="userSpaceOnUse" id="clipPath10">
        <path d="M928 125 L928 153 L1149 153 L1149 125 Z"/>
      </clipPath>
      <clipPath clipPathUnits="userSpaceOnUse" id="clipPath11">
        <path d="M609 292 L609 320 L750 320 L750 292 Z"/>
      </clipPath>
      <clipPath clipPathUnits="userSpaceOnUse" id="clipPath12">
        <path d="M614 202 L614 230 L705 230 L705 202 Z"/>
      </clipPath>
      <clipPath clipPathUnits="userSpaceOnUse" id="clipPath13">
        <path d="M773 292 L773 320 L925 320 L925 292 Z"/>
      </clipPath>
      <clipPath clipPathUnits="userSpaceOnUse" id="clipPath14">
        <path d="M826 202 L826 230 L917 230 L917 202 Z"/>
      </clipPath>
      <clipPath clipPathUnits="userSpaceOnUse" id="clipPath15">
        <path d="M775 15 L775 43 L866 43 L866 15 Z"/>
      </clipPath>
      <clipPath clipPathUnits="userSpaceOnUse" id="clipPath16">
        <path d="M958 16 L958 44 L1120 44 L1120 16 Z"/>
      </clipPath>
      <clipPath clipPathUnits="userSpaceOnUse" id="clipPath17">
        <path d="M835 -197 L835 -169 L1019 -169 L1019 -197 Z"/>
      </clipPath>
      <clipPath clipPathUnits="userSpaceOnUse" id="clipPath18">
        <path d="M278 22 L278 70 L476 70 L476 22 Z"/>
      </clipPath>
      <clipPath clipPathUnits="userSpaceOnUse" id="clipPath19">
        <path d="M202 159 L202 187 L293 187 L293 159 Z"/>
      </clipPath>
      <clipPath clipPathUnits="userSpaceOnUse" id="clipPath20">
        <path d="M216 -94 L216 -66 L278 -66 L278 -94 Z"/>
      </clipPath>
      <clipPath clipPathUnits="userSpaceOnUse" id="clipPath21">
        <path d="M493 -197 L493 -169 L570 -169 L570 -197 Z"/>
      </clipPath>
      <clipPath clipPathUnits="userSpaceOnUse" id="clipPath22">
        <path d="M89 32 L89 60 L174 60 L174 32 Z"/>
      </clipPath>
      <clipPath clipPathUnits="userSpaceOnUse" id="clipPath23">
        <path d="M-923.4147 -196.9207 L244.5796 -193.2602 L242.5833 443.7367 L-925.411 440.0762 L-923.4147 -196.9207 Z"/>
      </clipPath>
      <clipPath clipPathUnits="userSpaceOnUse" id="clipPath24">
        <path d="M-708.1483 -362.1924 L459.846 -358.5318 L457.8496 278.465 L-710.1447 274.8045 L-708.1483 -362.1924 Z"/>
      </clipPath>
      <clipPath clipPathUnits="userSpaceOnUse" id="clipPath25">
        <path d="M-478.6589 -456.5288 L689.3354 -452.8683 L687.339 184.1285 L-480.6552 180.468 L-478.6589 -456.5288 Z"/>
      </clipPath>
      <clipPath clipPathUnits="userSpaceOnUse" id="clipPath26">
        <path d="M-225.5198 -223.7071 L942.4744 -220.0466 L940.4781 416.9503 L-227.5162 413.2898 L-225.5198 -223.7071 Z"/>
      </clipPath>
    </defs>
    <g fill="white" text-rendering="geometricPrecision" shape-rendering="geometricPrecision" transform="translate(-74,301)" stroke="white">
      <rect x="74" width="1168" height="637" y="-301" clip-path="url(#clipPath2)" stroke="none"/>
    </g>
    <g fill="white" text-rendering="geometricPrecision" shape-rendering="geometricPrecision" transform="matrix(1,0,0,1,-74,301)" stroke="white">
      <rect x="401.6194" width="141.984" height="28.1344" y="-94.421" clip-path="url(#clipPath2)" stroke="none"/>
    </g>
    <g stroke-linecap="butt" transform="matrix(1,0,0,1,-74,301)" fill="rgb(153,153,153)" text-rendering="geometricPrecision" shape-rendering="geometricPrecision" stroke="rgb(153,153,153)" stroke-miterlimit="1.45">
      <rect fill="none" x="401.6194" width="141.984" height="28.1344" y="-94.421" clip-path="url(#clipPath2)"/>
    </g>
    <g font-size="13px" stroke-linecap="butt" transform="matrix(1,0,0,1,-74,301)" text-rendering="geometricPrecision" font-family="sans-serif" shape-rendering="geometricPrecision" font-weight="bold" stroke-miterlimit="1.45">
      <text x="419.5831" xml:space="preserve" y="-77.3541" clip-path="url(#clipPath3)" stroke="none">VirtualEObject</text>
    </g>
    <g fill="white" text-rendering="geometricPrecision" shape-rendering="geometricPrecision" transform="matrix(1,0,0,1,-74,301)" stroke="white">
      <rect x="579.4844" width="209.504" height="28.1344" y="-285.8784" clip-path="url(#clipPath2)" stroke="none"/>
    </g>
    <g stroke-linecap="butt" transform="matrix(1,0,0,1,-74,301)" fill="rgb(153,153,153)" text-rendering="geometricPrecision" shape-rendering="geometricPrecision" stroke="rgb(153,153,153)" stroke-miterlimit="1.45">
      <rect fill="none" x="579.4844" width="209.504" height="28.1344" y="-285.8784" clip-path="url(#clipPath2)"/>
    </g>
    <g font-size="13px" stroke-linecap="butt" transform="matrix(1,0,0,1,-74,301)" text-rendering="geometricPrecision" font-family="sans-serif" shape-rendering="geometricPrecision" font-style="italic" stroke-miterlimit="1.45">
      <text x="616.1134" xml:space="preserve" y="-268.8115" clip-path="url(#clipPath4)" stroke="none">DynamicEObjectImpl</text>
    </g>
    <g fill="white" text-rendering="geometricPrecision" shape-rendering="geometricPrecision" transform="matrix(1,0,0,1,-74,301)" stroke="white">
      <rect x="801.4661" width="141.984" height="28.1344" y="-94.421" clip-path="url(#clipPath2)" stroke="none"/>
    </g>
    <g stroke-linecap="butt" transform="matrix(1,0,0,1,-74,301)" fill="rgb(153,153,153)" text-rendering="geometricPrecision" shape-rendering="geometricPrecision" stroke="rgb(153,153,153)" stroke-miterlimit="1.45">
      <rect fill="none" x="801.4661" width="141.984" height="28.1344" y="-94.421" clip-path="url(#clipPath2)"/>
    </g>
    <g font-size="13px" stroke-linecap="butt" transform="matrix(1,0,0,1,-74,301)" text-rendering="geometricPrecision" font-family="sans-serif" shape-rendering="geometricPrecision" font-weight="bold" stroke-miterlimit="1.45">
      <text x="824.0826" xml:space="preserve" y="-77.3541" clip-path="url(#clipPath5)" stroke="none">VirtualEClass</text>
    </g>
    <g fill="white" text-rendering="geometricPrecision" shape-rendering="geometricPrecision" transform="matrix(1,0,0,1,-74,301)" stroke="white">
      <rect x="609.2228" width="141.984" height="28.1344" y="-94.421" clip-path="url(#clipPath2)" stroke="none"/>
    </g>
    <g stroke-linecap="butt" transform="matrix(1,0,0,1,-74,301)" fill="rgb(153,153,153)" text-rendering="geometricPrecision" shape-rendering="geometricPrecision" stroke="rgb(153,153,153)" stroke-miterlimit="1.45">
      <rect fill="none" x="609.2228" width="141.984" height="28.1344" y="-94.421" clip-path="url(#clipPath2)"/>
    </g>
    <g font-size="13px" stroke-linecap="butt" transform="matrix(1,0,0,1,-74,301)" text-rendering="geometricPrecision" font-family="sans-serif" shape-rendering="geometricPrecision" font-weight="bold" stroke-miterlimit="1.45">
      <text x="620.1882" xml:space="preserve" y="-77.3541" clip-path="url(#clipPath6)" stroke="none">VirtualEPackage</text>
    </g>
    <g fill="white" text-rendering="geometricPrecision" shape-rendering="geometricPrecision" transform="matrix(1,0,0,1,-74,301)" stroke="white">
      <rect x="639.4844" width="89.504" height="28.1344" y="-197.3984" clip-path="url(#clipPath2)" stroke="none"/>
    </g>
    <g stroke-linecap="butt" transform="matrix(1,0,0,1,-74,301)" fill="rgb(153,153,153)" text-rendering="geometricPrecision" shape-rendering="geometricPrecision" stroke="rgb(153,153,153)" stroke-miterlimit="1.45">
      <rect fill="none" x="639.4844" width="89.504" height="28.1344" y="-197.3984" clip-path="url(#clipPath2)"/>
    </g>
    <g font-size="13px" stroke-linecap="butt" transform="matrix(1,0,0,1,-74,301)" text-rendering="geometricPrecision" font-family="sans-serif" shape-rendering="geometricPrecision" font-style="italic" stroke-miterlimit="1.45">
      <text x="652.7806" xml:space="preserve" y="-180.3315" clip-path="url(#clipPath7)" stroke="none">EPackage</text>
    </g>
    <g fill="white" text-rendering="geometricPrecision" shape-rendering="geometricPrecision" transform="matrix(1,0,0,1,-74,301)" stroke="white">
      <rect x="1037.1141" width="89.504" height="28.1344" y="-197.3984" clip-path="url(#clipPath2)" stroke="none"/>
    </g>
    <g stroke-linecap="butt" transform="matrix(1,0,0,1,-74,301)" fill="rgb(153,153,153)" text-rendering="geometricPrecision" shape-rendering="geometricPrecision" stroke="rgb(153,153,153)" stroke-miterlimit="1.45">
      <rect fill="none" x="1037.1141" width="89.504" height="28.1344" y="-197.3984" clip-path="url(#clipPath2)"/>
    </g>
    <g font-size="13px" stroke-linecap="butt" transform="matrix(1,0,0,1,-74,301)" text-rendering="geometricPrecision" font-family="sans-serif" shape-rendering="geometricPrecision" font-style="italic" stroke-miterlimit="1.45">
      <text x="1060.6586" xml:space="preserve" y="-180.3315" clip-path="url(#clipPath8)" stroke="none">EClass</text>
    </g>
    <g fill="white" text-rendering="geometricPrecision" shape-rendering="geometricPrecision" transform="matrix(1,0,0,1,-74,301)" stroke="white">
      <rect x="690.9311" width="141.984" height="28.1344" y="125.3072" clip-path="url(#clipPath2)" stroke="none"/>
    </g>
    <g stroke-linecap="butt" transform="matrix(1,0,0,1,-74,301)" fill="rgb(153,153,153)" text-rendering="geometricPrecision" shape-rendering="geometricPrecision" stroke="rgb(153,153,153)" stroke-miterlimit="1.45">
      <rect fill="none" x="690.9311" width="141.984" height="28.1344" y="125.3072" clip-path="url(#clipPath2)"/>
    </g>
    <g font-size="13px" stroke-linecap="butt" transform="matrix(1,0,0,1,-74,301)" text-rendering="geometricPrecision" font-family="sans-serif" shape-rendering="geometricPrecision" font-weight="bold" stroke-miterlimit="1.45">
      <text x="708.5266" xml:space="preserve" y="142.3741" clip-path="url(#clipPath9)" stroke="none">VirtualFeature</text>
    </g>
    <g fill="white" text-rendering="geometricPrecision" shape-rendering="geometricPrecision" transform="matrix(1,0,0,1,-74,301)" stroke="white">
      <rect x="928.4901" width="221.244" height="28.1344" y="125.3072" clip-path="url(#clipPath2)" stroke="none"/>
    </g>
    <g stroke-linecap="butt" transform="matrix(1,0,0,1,-74,301)" fill="rgb(153,153,153)" text-rendering="geometricPrecision" shape-rendering="geometricPrecision" stroke="rgb(153,153,153)" stroke-miterlimit="1.45">
      <rect fill="none" x="928.4901" width="221.244" height="28.1344" y="125.3072" clip-path="url(#clipPath2)"/>
    </g>
    <g font-size="13px" stroke-linecap="butt" transform="matrix(1,0,0,1,-74,301)" text-rendering="geometricPrecision" font-family="sans-serif" shape-rendering="geometricPrecision" font-style="italic" stroke-miterlimit="1.45">
      <text x="950.5433" xml:space="preserve" y="142.3741" clip-path="url(#clipPath10)" stroke="none">EStructuralFeature.Internal</text>
    </g>
    <g fill="white" text-rendering="geometricPrecision" shape-rendering="geometricPrecision" transform="matrix(1,0,0,1,-74,301)" stroke="white">
      <rect x="609.2228" width="141.984" height="28.1344" y="292.1566" clip-path="url(#clipPath2)" stroke="none"/>
    </g>
    <g stroke-linecap="butt" transform="matrix(1,0,0,1,-74,301)" fill="rgb(153,153,153)" text-rendering="geometricPrecision" shape-rendering="geometricPrecision" stroke="rgb(153,153,153)" stroke-miterlimit="1.45">
      <rect fill="none" x="609.2228" width="141.984" height="28.1344" y="292.1566" clip-path="url(#clipPath2)"/>
    </g>
    <g font-size="13px" stroke-linecap="butt" transform="matrix(1,0,0,1,-74,301)" text-rendering="geometricPrecision" font-family="sans-serif" shape-rendering="geometricPrecision" font-weight="bold" stroke-miterlimit="1.45">
      <text x="617.4872" xml:space="preserve" y="309.2235" clip-path="url(#clipPath11)" stroke="none">VirtualEAttribute</text>
    </g>
    <g fill="white" text-rendering="geometricPrecision" shape-rendering="geometricPrecision" transform="matrix(1,0,0,1,-74,301)" stroke="white">
      <rect x="614.8228" width="91.7057" height="28.1344" y="202.067" clip-path="url(#clipPath2)" stroke="none"/>
    </g>
    <g stroke-linecap="butt" transform="matrix(1,0,0,1,-74,301)" fill="rgb(153,153,153)" text-rendering="geometricPrecision" shape-rendering="geometricPrecision" stroke="rgb(153,153,153)" stroke-miterlimit="1.45">
      <rect fill="none" x="614.8228" width="91.7057" height="28.1344" y="202.067" clip-path="url(#clipPath2)"/>
    </g>
    <g font-size="13px" stroke-linecap="butt" transform="matrix(1,0,0,1,-74,301)" text-rendering="geometricPrecision" font-family="sans-serif" shape-rendering="geometricPrecision" font-style="italic" stroke-miterlimit="1.45">
      <text x="627.7535" xml:space="preserve" y="219.1339" clip-path="url(#clipPath12)" stroke="none">EAttribute</text>
    </g>
    <g fill="white" text-rendering="geometricPrecision" shape-rendering="geometricPrecision" transform="matrix(1,0,0,1,-74,301)" stroke="white">
      <rect x="773.0295" width="152.984" height="28.1344" y="292.1566" clip-path="url(#clipPath2)" stroke="none"/>
    </g>
    <g stroke-linecap="butt" transform="matrix(1,0,0,1,-74,301)" fill="rgb(153,153,153)" text-rendering="geometricPrecision" shape-rendering="geometricPrecision" stroke="rgb(153,153,153)" stroke-miterlimit="1.45">
      <rect fill="none" x="773.0295" width="152.984" height="28.1344" y="292.1566" clip-path="url(#clipPath2)"/>
    </g>
    <g font-size="13px" stroke-linecap="butt" transform="matrix(1,0,0,1,-74,301)" text-rendering="geometricPrecision" font-family="sans-serif" shape-rendering="geometricPrecision" font-weight="bold" stroke-miterlimit="1.45">
      <text x="783.1155" xml:space="preserve" y="309.2235" clip-path="url(#clipPath13)" stroke="none">VirtualEReference</text>
    </g>
    <g fill="white" text-rendering="geometricPrecision" shape-rendering="geometricPrecision" transform="matrix(1,0,0,1,-74,301)" stroke="white">
      <rect x="826.6053" width="91.7057" height="28.1344" y="202.067" clip-path="url(#clipPath2)" stroke="none"/>
    </g>
    <g stroke-linecap="butt" transform="matrix(1,0,0,1,-74,301)" fill="rgb(153,153,153)" text-rendering="geometricPrecision" shape-rendering="geometricPrecision" stroke="rgb(153,153,153)" stroke-miterlimit="1.45">
      <rect fill="none" x="826.6053" width="91.7057" height="28.1344" y="202.067" clip-path="url(#clipPath2)"/>
    </g>
    <g font-size="13px" stroke-linecap="butt" transform="matrix(1,0,0,1,-74,301)" text-rendering="geometricPrecision" font-family="sans-serif" shape-rendering="geometricPrecision" font-style="italic" stroke-miterlimit="1.45">
      <text x="835.1847" xml:space="preserve" y="219.1339" clip-path="url(#clipPath14)" stroke="none">EReference</text>
    </g>
    <g fill="white" text-rendering="geometricPrecision" shape-rendering="geometricPrecision" transform="matrix(1,0,0,1,-74,301)" stroke="white">
      <rect x="775.4622" width="91.7057" height="28.1344" y="15.4431" clip-path="url(#clipPath2)" stroke="none"/>
    </g>
    <g stroke-linecap="butt" transform="matrix(1,0,0,1,-74,301)" fill="rgb(153,153,153)" text-rendering="geometricPrecision" shape-rendering="geometricPrecision" stroke="rgb(153,153,153)" stroke-miterlimit="1.45">
      <rect fill="none" x="775.4622" width="91.7057" height="28.1344" y="15.4431" clip-path="url(#clipPath2)"/>
    </g>
    <g font-size="13px" stroke-linecap="butt" transform="matrix(1,0,0,1,-74,301)" text-rendering="geometricPrecision" font-family="sans-serif" shape-rendering="geometricPrecision" font-style="italic" stroke-miterlimit="1.45">
      <text x="787.536" xml:space="preserve" y="32.51" clip-path="url(#clipPath15)" stroke="none">EClassifier</text>
    </g>
    <g fill="white" text-rendering="geometricPrecision" shape-rendering="geometricPrecision" transform="matrix(1,0,0,1,-74,301)" stroke="white">
      <rect x="958.0901" width="162.044" height="28.1344" y="16.9072" clip-path="url(#clipPath2)" stroke="none"/>
    </g>
    <g stroke-linecap="butt" transform="matrix(1,0,0,1,-74,301)" fill="rgb(153,153,153)" text-rendering="geometricPrecision" shape-rendering="geometricPrecision" stroke="rgb(153,153,153)" stroke-miterlimit="1.45">
      <rect fill="none" x="958.0901" width="162.044" height="28.1344" y="16.9072" clip-path="url(#clipPath2)"/>
    </g>
    <g font-size="13px" stroke-linecap="butt" transform="matrix(1,0,0,1,-74,301)" text-rendering="geometricPrecision" font-family="sans-serif" shape-rendering="geometricPrecision" font-style="italic" stroke-miterlimit="1.45">
      <text x="977.7747" xml:space="preserve" y="33.9741" clip-path="url(#clipPath16)" stroke="none">EStructuralFeature</text>
    </g>
    <g fill="white" text-rendering="geometricPrecision" shape-rendering="geometricPrecision" transform="matrix(1,0,0,1,-74,301)" stroke="white">
      <rect x="835.0821" width="184.904" height="28.1344" y="-197.3984" clip-path="url(#clipPath2)" stroke="none"/>
    </g>
    <g stroke-linecap="butt" transform="matrix(1,0,0,1,-74,301)" fill="rgb(153,153,153)" text-rendering="geometricPrecision" shape-rendering="geometricPrecision" stroke="rgb(153,153,153)" stroke-miterlimit="1.45">
      <rect fill="none" x="835.0821" width="184.904" height="28.1344" y="-197.3984" clip-path="url(#clipPath2)"/>
    </g>
    <g font-size="13px" stroke-linecap="butt" transform="matrix(1,0,0,1,-74,301)" text-rendering="geometricPrecision" font-family="sans-serif" shape-rendering="geometricPrecision" font-style="italic" stroke-miterlimit="1.45">
      <text x="854.9487" xml:space="preserve" y="-180.3315" clip-path="url(#clipPath17)" stroke="none">ESuperAdapter.Holder</text>
    </g>
    <g fill="white" text-rendering="geometricPrecision" shape-rendering="geometricPrecision" transform="matrix(1,0,0,1,-74,301)" stroke="white">
      <rect x="278.5011" width="198.504" height="48.1344" y="22.779" clip-path="url(#clipPath2)" stroke="none"/>
    </g>
    <g stroke-linecap="butt" transform="matrix(1,0,0,1,-74,301)" fill="rgb(153,153,153)" text-rendering="geometricPrecision" shape-rendering="geometricPrecision" stroke="rgb(153,153,153)" stroke-miterlimit="1.45">
      <rect fill="none" x="278.5011" width="198.504" height="48.1344" y="22.779" clip-path="url(#clipPath2)"/>
    </g>
    <g stroke-linecap="butt" font-size="13px" transform="matrix(1,0,0,1,-74,301)" text-rendering="geometricPrecision" font-family="sans-serif" shape-rendering="geometricPrecision" font-style="italic" font-weight="bold" stroke-miterlimit="1.45">
      <text x="339.3148" xml:space="preserve" y="39.8459" clip-path="url(#clipPath18)" stroke="none">Virtualizer</text>
    </g>
    <g fill="rgb(153,153,153)" text-rendering="geometricPrecision" shape-rendering="geometricPrecision" transform="matrix(1,0,0,1,-74,301)" stroke="rgb(153,153,153)">
      <line y2="47" fill="none" x1="279" clip-path="url(#clipPath18)" x2="476" y1="47"/>
    </g>
    <g text-rendering="geometricPrecision" stroke-miterlimit="1.45" shape-rendering="geometricPrecision" font-family="sans-serif" transform="matrix(1,0,0,1,-74,301)" stroke-linecap="butt">
      <text x="283.5011" xml:space="preserve" y="64.0505" clip-path="url(#clipPath18)" stroke="none">getVirtual(EObject): EObject</text>
    </g>
    <g fill="rgb(153,153,153)" text-rendering="geometricPrecision" shape-rendering="geometricPrecision" transform="matrix(1,0,0,1,-74,301)" stroke="rgb(153,153,153)">
      <line y2="71" fill="none" x1="279" clip-path="url(#clipPath18)" x2="476" y1="71"/>
      <rect x="202.1176" y="159.979" clip-path="url(#clipPath2)" fill="white" width="91.7057" height="28.1344" stroke="none"/>
      <rect stroke-linecap="butt" x="202.1176" y="159.979" clip-path="url(#clipPath2)" fill="none" width="91.7057" height="28.1344" stroke-miterlimit="1.45"/>
    </g>
    <g font-size="13px" stroke-linecap="butt" transform="matrix(1,0,0,1,-74,301)" text-rendering="geometricPrecision" font-family="sans-serif" shape-rendering="geometricPrecision" font-weight="bold" stroke-miterlimit="1.45">
      <text x="211.2175" xml:space="preserve" y="177.0459" clip-path="url(#clipPath19)" stroke="none">Viewpoint</text>
    </g>
    <g fill="white" text-rendering="geometricPrecision" shape-rendering="geometricPrecision" transform="matrix(1,0,0,1,-74,301)" stroke="white">
      <rect x="216.5176" width="62.9057" height="28.1344" y="-94.421" clip-path="url(#clipPath2)" stroke="none"/>
    </g>
    <g stroke-linecap="butt" transform="matrix(1,0,0,1,-74,301)" fill="rgb(153,153,153)" text-rendering="geometricPrecision" shape-rendering="geometricPrecision" stroke="rgb(153,153,153)" stroke-miterlimit="1.45">
      <rect fill="none" x="216.5176" width="62.9057" height="28.1344" y="-94.421" clip-path="url(#clipPath2)"/>
    </g>
    <g font-size="13px" stroke-linecap="butt" transform="matrix(1,0,0,1,-74,301)" text-rendering="geometricPrecision" font-family="sans-serif" shape-rendering="geometricPrecision" font-weight="bold" stroke-miterlimit="1.45">
      <text x="230.2985" xml:space="preserve" y="-77.3541" clip-path="url(#clipPath20)" stroke="none">View</text>
    </g>
    <g fill="white" text-rendering="geometricPrecision" shape-rendering="geometricPrecision" transform="matrix(1,0,0,1,-74,301)" stroke="white">
      <rect x="493.3705" width="77.504" height="28.1344" y="-197.3984" clip-path="url(#clipPath2)" stroke="none"/>
    </g>
    <g stroke-linecap="butt" transform="matrix(1,0,0,1,-74,301)" fill="rgb(153,153,153)" text-rendering="geometricPrecision" shape-rendering="geometricPrecision" stroke="rgb(153,153,153)" stroke-miterlimit="1.45">
      <rect fill="none" x="493.3705" width="77.504" height="28.1344" y="-197.3984" clip-path="url(#clipPath2)"/>
    </g>
    <g font-size="13px" stroke-linecap="butt" transform="matrix(1,0,0,1,-74,301)" text-rendering="geometricPrecision" font-family="sans-serif" shape-rendering="geometricPrecision" font-style="italic" stroke-miterlimit="1.45">
      <text x="506.8461" xml:space="preserve" y="-180.3315" clip-path="url(#clipPath21)" stroke="none">EObject</text>
    </g>
    <g fill="white" text-rendering="geometricPrecision" shape-rendering="geometricPrecision" transform="matrix(1,0,0,1,-74,301)" stroke="white">
      <rect x="89.6388" width="85.504" height="28.1344" y="32.779" clip-path="url(#clipPath2)" stroke="none"/>
    </g>
    <g stroke-linecap="butt" transform="matrix(1,0,0,1,-74,301)" fill="rgb(153,153,153)" text-rendering="geometricPrecision" shape-rendering="geometricPrecision" stroke="rgb(153,153,153)" stroke-miterlimit="1.45">
      <rect fill="none" x="89.6388" width="85.504" height="28.1344" y="32.779" clip-path="url(#clipPath2)"/>
    </g>
    <g font-size="13px" stroke-linecap="butt" transform="matrix(1,0,0,1,-74,301)" text-rendering="geometricPrecision" font-family="sans-serif" shape-rendering="geometricPrecision" font-style="italic" stroke-miterlimit="1.45">
      <text x="102.1474" xml:space="preserve" y="49.8459" clip-path="url(#clipPath22)" stroke="none">Resource</text>
      <path fill="none" d="M528.3874 -94.4345 L528.3874 -126.3602 L590.8745 -126.3602 L590.8745 -242.7308" clip-path="url(#clipPath2)"/>
    </g>
    <g stroke-linecap="butt" transform="matrix(1,0,0,1,-74,301)" fill="white" text-rendering="geometricPrecision" shape-rendering="geometricPrecision" stroke="white" stroke-miterlimit="1.45">
      <path d="M590.8745 -257.7308 L584.8745 -241.7308 L596.8745 -241.7308 Z" stroke="none" clip-path="url(#clipPath2)"/>
      <path fill="none" d="M590.8745 -257.7308 L584.8745 -241.7308 L596.8745 -241.7308 Z" clip-path="url(#clipPath2)" stroke="black"/>
      <path fill="none" d="M821.6904 -94.4132 L821.6904 -216.1634 L761.1301 -216.1634 L761.1301 -242.7338" clip-path="url(#clipPath2)" stroke="black"/>
      <path d="M761.1301 -257.7338 L755.1301 -241.7338 L767.1301 -241.7338 Z" clip-path="url(#clipPath2)" stroke="none"/>
      <path fill="none" d="M761.1301 -257.7338 L755.1301 -241.7338 L767.1301 -241.7338 Z" clip-path="url(#clipPath2)" stroke="black"/>
      <path fill="none" d="M626.6819 -94.4445 L626.6819 -242.7279" clip-path="url(#clipPath2)" stroke="black"/>
      <path d="M626.6819 -257.7279 L620.6819 -241.7279 L632.6819 -241.7279 Z" clip-path="url(#clipPath2)" stroke="none"/>
      <path fill="none" d="M626.6819 -257.7279 L620.6819 -241.7279 L632.6819 -241.7279 Z" clip-path="url(#clipPath2)" stroke="black"/>
      <path fill="none" d="M719.9067 -59.2702 L719.9067 -27.8731 L857.6443 -27.8731 L857.6443 -66.2559" clip-path="url(#clipPath2)" stroke="black"/>
      <path fill="black" d="M719.9067 -66.2702 L724.9067 -59.2702 L719.9067 -52.2702 L714.9067 -59.2702 Z" clip-path="url(#clipPath2)" stroke="none"/>
      <text x="765.9615" y="-33.4653" clip-path="url(#clipPath2)" fill="black" font-family="sans-serif" stroke="none" xml:space="preserve">virtualClasses</text>
      <text x="833.5418" y="-50.775" clip-path="url(#clipPath2)" fill="black" font-family="sans-serif" stroke="none" xml:space="preserve">0..*</text>
      <path fill="none" stroke-dasharray="6,2" d="M657.6712 -94.4475 L657.6712 -154.238" clip-path="url(#clipPath2)" stroke="black"/>
      <path stroke-dasharray="6,2" d="M657.6712 -169.238 L651.6712 -153.238 L663.6712 -153.238 Z" clip-path="url(#clipPath2)" stroke="none"/>
      <path fill="none" d="M657.6712 -169.238 L651.6712 -153.238 L663.6712 -153.238 Z" clip-path="url(#clipPath2)" stroke="black"/>
      <path fill="none" d="M751.2085 -85.8586 L787.0443 -85.8586 L787.0443 -183.3312 L728.9914 -183.3312" clip-path="url(#clipPath2)" stroke="black"/>
      <text x="679.2311" y="-151.629" clip-path="url(#clipPath2)" fill="black" font-family="sans-serif" stroke="none" xml:space="preserve">concretePackage</text>
      <path fill="none" stroke-dasharray="6,2" d="M901.0191 -94.4551 L901.0191 -130.6723 L1064.9274 -130.6723 L1064.9274 -154.2562" clip-path="url(#clipPath2)" stroke="black"/>
      <path stroke-dasharray="6,2" d="M1064.9274 -169.2562 L1058.9274 -153.2562 L1070.9274 -153.2562 Z" clip-path="url(#clipPath2)" stroke="none"/>
      <path fill="none" d="M1064.9274 -169.2562 L1058.9274 -153.2562 L1070.9274 -153.2562 Z" clip-path="url(#clipPath2)" stroke="black"/>
      <path fill="none" d="M943.4893 -73.8838 L1112.2971 -73.8838 L1112.2971 -169.2476" clip-path="url(#clipPath2)" stroke="black"/>
      <text x="1115.4712" y="-142.447" clip-path="url(#clipPath2)" fill="black" font-family="sans-serif" stroke="none" xml:space="preserve">virtualSuperTypes</text>
      <text x="1116.4318" y="-156.0095" clip-path="url(#clipPath2)" fill="black" font-family="sans-serif" stroke="none" xml:space="preserve">0..*</text>
      <path fill="none" d="M943.4634 -88.6479 L1091.6909 -88.6479 L1091.6909 -169.241" clip-path="url(#clipPath2)" stroke="black"/>
    </g>
    <g text-rendering="geometricPrecision" stroke-miterlimit="1.45" shape-rendering="geometricPrecision" font-family="sans-serif" transform="matrix(1,-0.0031,0.0031,1,924.0273,194.0258)" stroke-linecap="butt">
      <text x="2" xml:space="preserve" y="13.1387" clip-path="url(#clipPath23)" stroke="none">concreteClass</text>
    </g>
    <g text-rendering="geometricPrecision" stroke-miterlimit="1.45" shape-rendering="geometricPrecision" transform="matrix(1,0,0,1,-74,301)" stroke-linecap="butt">
      <path fill="none" d="M901.9235 -59.2784 L901.9235 78.9909 L783.8713 78.9909 L783.8713 125.274" clip-path="url(#clipPath2)"/>
      <path d="M901.9235 -66.2784 L906.9235 -59.2784 L901.9235 -52.2784 L896.9235 -59.2784 Z" clip-path="url(#clipPath2)" stroke="none"/>
    </g>
    <g text-rendering="geometricPrecision" stroke-miterlimit="1.45" shape-rendering="geometricPrecision" font-family="sans-serif" transform="matrix(1,-0.0031,0.0031,1,709.2799,359.9712)" stroke-linecap="butt">
      <text x="2" xml:space="preserve" y="13.1387" clip-path="url(#clipPath24)" stroke="none">virtualFeatures</text>
    </g>
    <g text-rendering="geometricPrecision" stroke-miterlimit="1.45" shape-rendering="geometricPrecision" font-family="sans-serif" transform="matrix(1,0,0,1,-74,301)" stroke-linecap="butt">
      <text x="786.6348" xml:space="preserve" y="121.703" clip-path="url(#clipPath2)" stroke="none">0..*</text>
      <path fill="none" d="M744.8188 125.2909 L744.8188 91.4573 L579.8776 91.4573 L579.8776 -109.029 L610.0638 -109.029 L610.0638 -242.7111" clip-path="url(#clipPath2)"/>
      <path fill="white" d="M610.0638 -257.7111 L604.0638 -241.7111 L616.0638 -241.7111 Z" clip-path="url(#clipPath2)" stroke="none"/>
      <path fill="none" d="M610.0638 -257.7111 L604.0638 -241.7111 L616.0638 -241.7111 Z" clip-path="url(#clipPath2)"/>
      <path fill="none" stroke-dasharray="6,2" d="M832.946 139.3744 L913.5042 139.3744" clip-path="url(#clipPath2)"/>
    </g>
    <g stroke-linecap="butt" transform="matrix(1,0,0,1,-74,301)" fill="white" text-rendering="geometricPrecision" shape-rendering="geometricPrecision" stroke-dasharray="6,2" stroke="white" stroke-miterlimit="1.45">
      <path d="M928.5042 139.3744 L912.5042 133.3744 L912.5042 145.3744 Z" stroke="none" clip-path="url(#clipPath2)"/>
      <path fill="none" stroke-dasharray="none" d="M928.5042 139.3744 L912.5042 133.3744 L912.5042 145.3744 Z" clip-path="url(#clipPath2)" stroke="black"/>
      <path fill="none" stroke-dasharray="none" d="M694.0947 292.1457 L694.0947 261.179 L746.355 261.179 L746.355 168.4529" clip-path="url(#clipPath2)" stroke="black"/>
      <path stroke-dasharray="none" d="M746.355 153.4529 L740.355 169.4529 L752.355 169.4529 Z" clip-path="url(#clipPath2)" stroke="none"/>
      <path fill="none" stroke-dasharray="none" d="M746.355 153.4529 L740.355 169.4529 L752.355 169.4529 Z" clip-path="url(#clipPath2)" stroke="black"/>
      <path fill="none" d="M660.6756 292.13 L660.6756 245.1979" clip-path="url(#clipPath2)" stroke="black"/>
      <path d="M660.6756 230.1979 L654.6756 246.1979 L666.6756 246.1979 Z" clip-path="url(#clipPath2)" stroke="none"/>
      <path fill="none" stroke-dasharray="none" d="M660.6756 230.1979 L654.6756 246.1979 L666.6756 246.1979 Z" clip-path="url(#clipPath2)" stroke="black"/>
      <path fill="none" stroke-dasharray="none" d="M838.1215 292.1425 L838.1215 260.667 L785.1767 260.667 L785.1767 168.4298" clip-path="url(#clipPath2)" stroke="black"/>
      <path stroke-dasharray="none" d="M785.1767 153.4298 L779.1767 169.4298 L791.1767 169.4298 Z" clip-path="url(#clipPath2)" stroke="none"/>
      <path fill="none" stroke-dasharray="none" d="M785.1767 153.4298 L779.1767 169.4298 L791.1767 169.4298 Z" clip-path="url(#clipPath2)" stroke="black"/>
      <path fill="none" d="M871.9836 292.1354 L872.343 245.2189" clip-path="url(#clipPath2)" stroke="black"/>
      <path d="M872.4579 230.2193 L866.3355 246.1729 L878.3352 246.2648 Z" clip-path="url(#clipPath2)" stroke="none"/>
      <path fill="none" stroke-dasharray="none" d="M872.4579 230.2193 L866.3355 246.1729 L878.3352 246.2648 Z" clip-path="url(#clipPath2)" stroke="black"/>
      <path fill="none" stroke-dasharray="none" d="M926.0494 306.2238 L1018.0466 306.2238 L1018.0466 216.1342 L918.3509 216.1342" clip-path="url(#clipPath2)" stroke="black"/>
    </g>
    <g text-rendering="geometricPrecision" stroke-miterlimit="1.45" shape-rendering="geometricPrecision" font-family="sans-serif" transform="matrix(1,0,0,1,-74,301)" stroke-linecap="butt">
      <text x="924.4293" xml:space="preserve" y="210.9725" clip-path="url(#clipPath2)" stroke="none">virtualOpposite</text>
      <path fill="none" d="M661.704 -66.2488 L661.704 29.5103 L775.4432 29.5103" clip-path="url(#clipPath2)"/>
      <text x="666.6105" xml:space="preserve" y="21.9419" clip-path="url(#clipPath2)" stroke="none">filteredClassifiers</text>
      <text x="747.1985" xml:space="preserve" y="43.7198" clip-path="url(#clipPath2)" stroke="none">0..*</text>
      <path fill="none" d="M924.9765 -66.239 L924.9765 -12.1456 L1039.1121 -12.1456 L1039.1121 16.8911" clip-path="url(#clipPath2)"/>
      <text x="1046.3431" xml:space="preserve" y="7.3191" clip-path="url(#clipPath2)" stroke="none">filteredFeatures</text>
      <text x="1009.9836" xml:space="preserve" y="6.8579" clip-path="url(#clipPath2)" stroke="none">0..*</text>
      <path fill="none" stroke-dasharray="6,2" d="M1039.1121 125.3216 L1039.1121 60.0251" clip-path="url(#clipPath2)"/>
    </g>
    <g stroke-linecap="butt" transform="matrix(1,0,0,1,-74,301)" fill="white" text-rendering="geometricPrecision" shape-rendering="geometricPrecision" stroke-dasharray="6,2" stroke="white" stroke-miterlimit="1.45">
      <path d="M1039.1121 45.0251 L1033.1121 61.0251 L1045.1121 61.0251 Z" stroke="none" clip-path="url(#clipPath2)"/>
      <path fill="none" stroke-dasharray="none" d="M1039.1121 45.0251 L1033.1121 61.0251 L1045.1121 61.0251 Z" clip-path="url(#clipPath2)" stroke="black"/>
      <path fill="none" stroke-dasharray="none" d="M823.0198 125.2986 L823.0198 109.0698 L1008.4903 109.0698 L1008.4903 45.0459" clip-path="url(#clipPath2)" stroke="black"/>
    </g>
    <g text-rendering="geometricPrecision" stroke-miterlimit="1.45" shape-rendering="geometricPrecision" font-family="sans-serif" transform="matrix(1,0,0,1,-74,301)" stroke-linecap="butt">
      <text x="906.0198" xml:space="preserve" y="104.4273" clip-path="url(#clipPath2)" stroke="none">concreteFeature</text>
      <path fill="none" stroke-dasharray="6,2" d="M884.5261 -94.4409 L884.5261 -154.2589" clip-path="url(#clipPath2)"/>
    </g>
    <g stroke-linecap="butt" transform="matrix(1,0,0,1,-74,301)" fill="white" text-rendering="geometricPrecision" shape-rendering="geometricPrecision" stroke-dasharray="6,2" stroke="white" stroke-miterlimit="1.45">
      <path d="M884.5261 -169.2589 L878.5261 -153.2589 L890.5261 -153.2589 Z" stroke="none" clip-path="url(#clipPath2)"/>
      <path fill="none" stroke-dasharray="none" d="M884.5261 -169.2589 L878.5261 -153.2589 L890.5261 -153.2589 Z" clip-path="url(#clipPath2)" stroke="black"/>
      <path fill="none" stroke-dasharray="none" d="M690.889 139.3744 L496.7557 139.3744 L428.4551 70.9368" clip-path="url(#clipPath2)" stroke="black"/>
      <path fill="none" stroke-dasharray="none" d="M872.4581 -66.2721 L872.4581 -11.3224 L495.6881 -11.3224 L444.7375 22.7644" clip-path="url(#clipPath2)" stroke="black"/>
      <path fill="none" stroke-dasharray="none" d="M487.9714 -66.2753 L487.9714 -24.9224 L418.8906 22.7713" clip-path="url(#clipPath2)" stroke="black"/>
      <path fill="none" stroke-dasharray="none" d="M622.5057 -66.2436 L622.5057 -17.9749 L490.7221 -17.9749 L432.9267 22.7778" clip-path="url(#clipPath2)" stroke="black"/>
      <path fill="none" d="M262.3238 159.9784 L342.4948 81.4028" clip-path="url(#clipPath2)" stroke="black"/>
      <path d="M353.2075 70.9034 L337.5808 77.8177 L345.9804 86.3879 Z" clip-path="url(#clipPath2)" stroke="none"/>
      <path fill="none" stroke-dasharray="none" d="M353.2075 70.9034 L337.5808 77.8177 L345.9804 86.3879 Z" clip-path="url(#clipPath2)" stroke="black"/>
      <path fill="none" stroke-dasharray="none" d="M300.8497 174.0462 L652.538 174.0462 L652.538 -66.2592" clip-path="url(#clipPath2)" stroke="black"/>
      <path fill="black" stroke-dasharray="none" d="M293.8497 174.0462 L300.8497 169.0462 L307.8497 174.0462 L300.8497 179.0462 Z" clip-path="url(#clipPath2)" stroke="none"/>
    </g>
    <g text-rendering="geometricPrecision" stroke-miterlimit="1.45" shape-rendering="geometricPrecision" font-family="sans-serif" transform="matrix(1,-0.0031,0.0031,1,480.0873,455.0265)" stroke-linecap="butt">
      <text x="2" xml:space="preserve" y="13.1387" clip-path="url(#clipPath25)" stroke="none">virtualContents</text>
    </g>
    <g text-rendering="geometricPrecision" stroke-miterlimit="1.45" shape-rendering="geometricPrecision" font-family="sans-serif" transform="matrix(1,0,0,1,-74,301)" stroke-linecap="butt">
      <text x="628.5107" xml:space="preserve" y="-54.3738" clip-path="url(#clipPath2)" stroke="none">0..*</text>
      <path fill="none" stroke-dasharray="6,2" d="M262.3238 -66.286 L342.4948 12.2896" clip-path="url(#clipPath2)"/>
    </g>
    <g stroke-linecap="butt" transform="matrix(1,0,0,1,-74,301)" fill="white" text-rendering="geometricPrecision" shape-rendering="geometricPrecision" stroke-dasharray="6,2" stroke="white" stroke-miterlimit="1.45">
      <path d="M353.2075 22.789 L345.9804 7.3045 L337.5808 15.8747 Z" stroke="none" clip-path="url(#clipPath2)"/>
      <path fill="none" stroke-dasharray="none" d="M353.2075 22.789 L345.9804 7.3045 L337.5808 15.8747 Z" clip-path="url(#clipPath2)" stroke="black"/>
      <path fill="none" stroke-dasharray="none" d="M286.4234 -80.3538 L401.628 -80.3538" clip-path="url(#clipPath2)" stroke="black"/>
      <path fill="black" stroke-dasharray="none" d="M279.4234 -80.3538 L286.4234 -85.3538 L293.4234 -80.3538 L286.4234 -75.3538 Z" clip-path="url(#clipPath2)" stroke="none"/>
    </g>
    <g text-rendering="geometricPrecision" stroke-miterlimit="1.45" shape-rendering="geometricPrecision" font-family="sans-serif" transform="matrix(1,-0.0031,0.0031,1,226.2198,222.9992)" stroke-linecap="butt">
      <text x="2" xml:space="preserve" y="13.1387" clip-path="url(#clipPath26)" stroke="none">virtualContents</text>
    </g>
    <g text-rendering="geometricPrecision" stroke-miterlimit="1.45" shape-rendering="geometricPrecision" font-family="sans-serif" transform="matrix(1,0,0,1,-74,301)" stroke-linecap="butt">
      <text x="373.3557" xml:space="preserve" y="-85.9474" clip-path="url(#clipPath2)" stroke="none">0..*</text>
      <path fill="none" d="M422.2556 -94.4513 L422.2556 -183.3312 L493.3813 -183.3312" clip-path="url(#clipPath2)"/>
      <text x="394.2199" xml:space="preserve" y="-188.3262" clip-path="url(#clipPath2)" stroke="none">concreteObject</text>
      <path fill="none" stroke-dasharray="6,2" d="M235.1878 159.9784 L155.2525 72.0064" clip-path="url(#clipPath2)"/>
    </g>
    <g stroke-linecap="butt" transform="matrix(1,0,0,1,-74,301)" fill="white" text-rendering="geometricPrecision" shape-rendering="geometricPrecision" stroke-dasharray="6,2" stroke="white" stroke-miterlimit="1.45">
      <path d="M145.1651 60.9049 L151.4844 76.7815 L160.3656 68.7116 Z" stroke="none" clip-path="url(#clipPath2)"/>
      <path fill="none" stroke-dasharray="none" d="M145.1651 60.9049 L151.4844 76.7815 L160.3656 68.7116 Z" clip-path="url(#clipPath2)" stroke="black"/>
      <path fill="none" d="M235.1878 -66.286 L155.2525 21.686" clip-path="url(#clipPath2)" stroke="black"/>
      <path d="M145.1651 32.7875 L160.3656 24.9808 L151.4844 16.9109 Z" clip-path="url(#clipPath2)" stroke="none"/>
      <path fill="none" stroke-dasharray="none" d="M145.1651 32.7875 L160.3656 24.9808 L151.4844 16.9109 Z" clip-path="url(#clipPath2)" stroke="black"/>
    </g>
  </g>
</svg>
