<?xml version="1.0" encoding="UTF-8"?><svg xmlns="http://www.w3.org/2000/svg" xmlns:xlink="http://www.w3.org/1999/xlink" fill-opacity="1" color-rendering="auto" color-interpolation="auto" text-rendering="auto" stroke="black" stroke-linecap="square" width="1036" stroke-miterlimit="10" shape-rendering="auto" stroke-opacity="1" fill="black" stroke-dasharray="none" font-weight="normal" stroke-width="1" height="750" font-family="'Dialog'" font-style="normal" stroke-linejoin="miter" font-size="12px" stroke-dashoffset="0" image-rendering="auto">
  <!--Generated by ySVG 2.5-->
  <defs id="genericDefs"/>
  <g>
    <defs id="defs1">
      <clipPath clipPathUnits="userSpaceOnUse" id="clipPath1">
        <path d="M0 0 L1036 0 L1036 750 L0 750 L0 0 Z"/>
      </clipPath>
      <clipPath clipPathUnits="userSpaceOnUse" id="clipPath2">
        <path d="M-6 -431 L1030 -431 L1030 319 L-6 319 L-6 -431 Z"/>
      </clipPath>
      <clipPath clipPathUnits="userSpaceOnUse" id="clipPath3">
        <path d="M367 11 L367 38 L508 38 L508 11 Z"/>
      </clipPath>
      <clipPath clipPathUnits="userSpaceOnUse" id="clipPath4">
        <path d="M457 -313 L457 -267 L598 -267 L598 -313 Z"/>
      </clipPath>
      <clipPath clipPathUnits="userSpaceOnUse" id="clipPath5">
        <path d="M457 -415 L457 -369 L598 -369 L598 -415 Z"/>
      </clipPath>
      <clipPath clipPathUnits="userSpaceOnUse" id="clipPath6">
        <path d="M343 -188 L343 -127 L467 -127 L467 -188 Z"/>
      </clipPath>
      <clipPath clipPathUnits="userSpaceOnUse" id="clipPath7">
        <path d="M152 -188 L152 -160 L276 -160 L276 -188 Z"/>
      </clipPath>
      <clipPath clipPathUnits="userSpaceOnUse" id="clipPath8">
        <path d="M868 57 L868 103 L1009 103 L1009 57 Z"/>
      </clipPath>
      <clipPath clipPathUnits="userSpaceOnUse" id="clipPath9">
        <path d="M527 -185 L527 -122 L651 -122 L651 -185 Z"/>
      </clipPath>
      <clipPath clipPathUnits="userSpaceOnUse" id="clipPath10">
        <path d="M539 57 L539 103 L680 103 L680 57 Z"/>
      </clipPath>
      <clipPath clipPathUnits="userSpaceOnUse" id="clipPath11">
        <path d="M221 -313 L221 -286 L345 -286 L345 -313 Z"/>
      </clipPath>
      <clipPath clipPathUnits="userSpaceOnUse" id="clipPath12">
        <path d="M738 -185 L738 -157 L854 -157 L854 -185 Z"/>
      </clipPath>
    </defs>
    <g fill="white" text-rendering="geometricPrecision" shape-rendering="geometricPrecision" transform="translate(6,431)" stroke="white">
      <rect x="-6" width="1036" height="750" y="-431" clip-path="url(#clipPath2)" stroke="none"/>
    </g>
    <g fill="white" text-rendering="geometricPrecision" shape-rendering="geometricPrecision" transform="matrix(1,0,0,1,6,431)" stroke="white">
      <rect x="367.7282" width="141.984" height="28" y="11.5552" clip-path="url(#clipPath2)" stroke="none"/>
    </g>
    <g stroke-linecap="butt" transform="matrix(1,0,0,1,6,431)" fill="rgb(153,153,153)" text-rendering="geometricPrecision" shape-rendering="geometricPrecision" stroke="rgb(153,153,153)" stroke-miterlimit="1.45">
      <rect fill="none" x="367.7282" width="141.984" height="28" y="11.5552" clip-path="url(#clipPath2)"/>
    </g>
    <g stroke-linecap="butt" font-size="13px" transform="matrix(1,0,0,1,6,431)" text-rendering="geometricPrecision" font-family="sans-serif" shape-rendering="geometricPrecision" font-style="italic" font-weight="bold" stroke-miterlimit="1.45">
      <text x="384.3462" xml:space="preserve" y="28.6221" clip-path="url(#clipPath3)" stroke="none">LinkedElement</text>
    </g>
    <g fill="white" text-rendering="geometricPrecision" shape-rendering="geometricPrecision" transform="matrix(1,0,0,1,6,431)" stroke="white">
      <rect x="457.8282" width="141.984" height="46.9952" y="-313.2704" clip-path="url(#clipPath2)" stroke="none"/>
    </g>
    <g stroke-linecap="butt" transform="matrix(1,0,0,1,6,431)" fill="rgb(153,153,153)" text-rendering="geometricPrecision" shape-rendering="geometricPrecision" stroke="rgb(153,153,153)" stroke-miterlimit="1.45">
      <rect fill="none" x="457.8282" width="141.984" height="46.9952" y="-313.2704" clip-path="url(#clipPath2)"/>
    </g>
    <g font-size="13px" stroke-linecap="butt" transform="matrix(1,0,0,1,6,431)" text-rendering="geometricPrecision" font-family="sans-serif" shape-rendering="geometricPrecision" font-weight="bold" stroke-miterlimit="1.45">
      <text x="488.6872" xml:space="preserve" y="-296.2035" clip-path="url(#clipPath4)" stroke="none">VirtualLink</text>
    </g>
    <g fill="rgb(153,153,153)" text-rendering="geometricPrecision" shape-rendering="geometricPrecision" transform="matrix(1,0,0,1,6,431)" stroke="rgb(153,153,153)">
      <line y2="-288" fill="none" x1="458" clip-path="url(#clipPath4)" x2="598" y1="-288"/>
    </g>
    <g text-rendering="geometricPrecision" stroke-miterlimit="1.45" shape-rendering="geometricPrecision" font-family="sans-serif" transform="matrix(1,0,0,1,6,431)" stroke-linecap="butt">
      <text x="462.8282" xml:space="preserve" y="-271.9989" clip-path="url(#clipPath4)" stroke="none">name: String</text>
    </g>
    <g fill="rgb(153,153,153)" text-rendering="geometricPrecision" shape-rendering="geometricPrecision" transform="matrix(1,0,0,1,6,431)" stroke="rgb(153,153,153)">
      <line y2="-264" fill="none" x1="458" clip-path="url(#clipPath4)" x2="598" y1="-264"/>
      <rect x="457.8282" y="-415.4704" clip-path="url(#clipPath2)" fill="white" width="141.984" height="46.9952" stroke="none"/>
      <rect stroke-linecap="butt" x="457.8282" y="-415.4704" clip-path="url(#clipPath2)" fill="none" width="141.984" height="46.9952" stroke-miterlimit="1.45"/>
    </g>
    <g font-size="13px" stroke-linecap="butt" transform="matrix(1,0,0,1,6,431)" text-rendering="geometricPrecision" font-family="sans-serif" shape-rendering="geometricPrecision" font-weight="bold" stroke-miterlimit="1.45">
      <text x="474.8874" xml:space="preserve" y="-398.4035" clip-path="url(#clipPath5)" stroke="none">WeavingModel</text>
    </g>
    <g fill="rgb(153,153,153)" text-rendering="geometricPrecision" shape-rendering="geometricPrecision" transform="matrix(1,0,0,1,6,431)" stroke="rgb(153,153,153)">
      <line y2="-390" fill="none" x1="458" clip-path="url(#clipPath5)" x2="598" y1="-390"/>
    </g>
    <g text-rendering="geometricPrecision" stroke-miterlimit="1.45" shape-rendering="geometricPrecision" font-family="sans-serif" transform="matrix(1,0,0,1,6,431)" stroke-linecap="butt">
      <text x="462.8282" xml:space="preserve" y="-374.1989" clip-path="url(#clipPath5)" stroke="none">blacklist: bool</text>
    </g>
    <g fill="rgb(153,153,153)" text-rendering="geometricPrecision" shape-rendering="geometricPrecision" transform="matrix(1,0,0,1,6,431)" stroke="rgb(153,153,153)">
      <line y2="-366" fill="none" x1="458" clip-path="url(#clipPath5)" x2="598" y1="-366"/>
      <rect x="343.3706" y="-188.9392" clip-path="url(#clipPath2)" fill="white" width="124.92" height="61.408" stroke="none"/>
      <rect stroke-linecap="butt" x="343.3706" y="-188.9392" clip-path="url(#clipPath2)" fill="none" width="124.92" height="61.408" stroke-miterlimit="1.45"/>
    </g>
    <g font-size="13px" stroke-linecap="butt" transform="matrix(1,0,0,1,6,431)" text-rendering="geometricPrecision" font-family="sans-serif" shape-rendering="geometricPrecision" font-weight="bold" stroke-miterlimit="1.45">
      <text x="357.9312" xml:space="preserve" y="-171.8723" clip-path="url(#clipPath6)" stroke="none">NewProperty</text>
    </g>
    <g fill="rgb(153,153,153)" text-rendering="geometricPrecision" shape-rendering="geometricPrecision" transform="matrix(1,0,0,1,6,431)" stroke="rgb(153,153,153)">
      <line y2="-163" fill="none" x1="344" clip-path="url(#clipPath6)" x2="467" y1="-163"/>
    </g>
    <g text-rendering="geometricPrecision" stroke-miterlimit="1.45" shape-rendering="geometricPrecision" font-family="sans-serif" transform="matrix(1,0,0,1,6,431)" stroke-linecap="butt">
      <text x="348.3705" xml:space="preserve" y="-147.6677" clip-path="url(#clipPath6)" stroke="none">type: String</text>
      <text x="348.3705" xml:space="preserve" y="-133.699" clip-path="url(#clipPath6)" stroke="none">optional: bool</text>
    </g>
    <g fill="rgb(153,153,153)" text-rendering="geometricPrecision" shape-rendering="geometricPrecision" transform="matrix(1,0,0,1,6,431)" stroke="rgb(153,153,153)">
      <line y2="-125" fill="none" x1="344" clip-path="url(#clipPath6)" x2="467" y1="-125"/>
      <rect x="152.9482" y="-188.9392" clip-path="url(#clipPath2)" fill="white" width="124.92" height="28.1344" stroke="none"/>
      <rect stroke-linecap="butt" x="152.9482" y="-188.9392" clip-path="url(#clipPath2)" fill="none" width="124.92" height="28.1344" stroke-miterlimit="1.45"/>
    </g>
    <g font-size="13px" stroke-linecap="butt" transform="matrix(1,0,0,1,6,431)" text-rendering="geometricPrecision" font-family="sans-serif" shape-rendering="geometricPrecision" font-weight="bold" stroke-miterlimit="1.45">
      <text x="169.6702" xml:space="preserve" y="-171.8723" clip-path="url(#clipPath7)" stroke="none">NewConcept</text>
    </g>
    <g fill="white" text-rendering="geometricPrecision" shape-rendering="geometricPrecision" transform="matrix(1,0,0,1,6,431)" stroke="white">
      <rect x="868.3449" width="141.984" height="46.9952" y="57.8048" clip-path="url(#clipPath2)" stroke="none"/>
    </g>
    <g stroke-linecap="butt" transform="matrix(1,0,0,1,6,431)" fill="rgb(153,153,153)" text-rendering="geometricPrecision" shape-rendering="geometricPrecision" stroke="rgb(153,153,153)" stroke-miterlimit="1.45">
      <rect fill="none" x="868.3449" width="141.984" height="46.9952" y="57.8048" clip-path="url(#clipPath2)"/>
    </g>
    <g font-size="13px" stroke-linecap="butt" transform="matrix(1,0,0,1,6,431)" text-rendering="geometricPrecision" font-family="sans-serif" shape-rendering="geometricPrecision" font-weight="bold" stroke-miterlimit="1.45">
      <text x="870.814" xml:space="preserve" y="74.8717" clip-path="url(#clipPath8)" stroke="none">ContributingModel</text>
    </g>
    <g fill="rgb(153,153,153)" text-rendering="geometricPrecision" shape-rendering="geometricPrecision" transform="matrix(1,0,0,1,6,431)" stroke="rgb(153,153,153)">
      <line y2="82" fill="none" x1="869" clip-path="url(#clipPath8)" x2="1009" y1="82"/>
    </g>
    <g text-rendering="geometricPrecision" stroke-miterlimit="1.45" shape-rendering="geometricPrecision" font-family="sans-serif" transform="matrix(1,0,0,1,6,431)" stroke-linecap="butt">
      <text x="873.3449" xml:space="preserve" y="99.0763" clip-path="url(#clipPath8)" stroke="none">URI: String</text>
    </g>
    <g fill="rgb(153,153,153)" text-rendering="geometricPrecision" shape-rendering="geometricPrecision" transform="matrix(1,0,0,1,6,431)" stroke="rgb(153,153,153)">
      <line y2="106" fill="none" x1="869" clip-path="url(#clipPath8)" x2="1009" y1="106"/>
      <rect x="527.8906" y="-185.0992" clip-path="url(#clipPath2)" fill="white" width="124.92" height="63.072" stroke="none"/>
      <rect stroke-linecap="butt" x="527.8906" y="-185.0992" clip-path="url(#clipPath2)" fill="none" width="124.92" height="63.072" stroke-miterlimit="1.45"/>
    </g>
    <g font-size="13px" stroke-linecap="butt" transform="matrix(1,0,0,1,6,431)" text-rendering="geometricPrecision" font-family="sans-serif" shape-rendering="geometricPrecision" font-weight="bold" stroke-miterlimit="1.45">
      <text x="532.3679" xml:space="preserve" y="-168.0323" clip-path="url(#clipPath9)" stroke="none">NewAssociation</text>
    </g>
    <g fill="rgb(153,153,153)" text-rendering="geometricPrecision" shape-rendering="geometricPrecision" transform="matrix(1,0,0,1,6,431)" stroke="rgb(153,153,153)">
      <line y2="-159" fill="none" x1="528" clip-path="url(#clipPath9)" x2="651" y1="-159"/>
    </g>
    <g text-rendering="geometricPrecision" stroke-miterlimit="1.45" shape-rendering="geometricPrecision" font-family="sans-serif" transform="matrix(1,0,0,1,6,431)" stroke-linecap="butt">
      <text x="532.8906" xml:space="preserve" y="-143.8277" clip-path="url(#clipPath9)" stroke="none">lowerBound: int</text>
      <text x="532.8906" xml:space="preserve" y="-129.859" clip-path="url(#clipPath9)" stroke="none">upperBound: int</text>
    </g>
    <g fill="rgb(153,153,153)" text-rendering="geometricPrecision" shape-rendering="geometricPrecision" transform="matrix(1,0,0,1,6,431)" stroke="rgb(153,153,153)">
      <line y2="-122" fill="none" x1="528" clip-path="url(#clipPath9)" x2="651" y1="-122"/>
      <path fill="rgb(255,255,153)" d="M9.1001 173.1375 L438.7163 173.1375 L438.7163 188.1375 L453.7163 188.1375 L453.7163 205.1375 L9.1001 205.1375 Z" clip-path="url(#clipPath2)" stroke="none"/>
      <path fill="white" d="M438.7163 173.1375 L438.7163 188.1375 L453.7163 188.1375 Z" clip-path="url(#clipPath2)" fill-rule="evenodd" stroke="none"/>
    </g>
    <g text-rendering="geometricPrecision" stroke-miterlimit="1.45" shape-rendering="geometricPrecision" transform="matrix(1,0,0,1,6,431)" stroke-linecap="butt">
      <path fill="none" d="M9.1001 173.1375 L438.7163 173.1375 L438.7163 188.1375 L453.7163 188.1375 L453.7163 205.1375 L9.1001 205.1375 Z" clip-path="url(#clipPath2)"/>
      <path fill="none" d="M438.7163 173.1375 L438.7163 188.1375 L453.7163 188.1375 Z" clip-path="url(#clipPath2)" fill-rule="evenodd"/>
      <text x="11.1001" xml:space="preserve" y="193.2918" clip-path="url(#clipPath2)" font-family="sans-serif" stroke="none">Problem 1: whitelisting/blacklisting at properties level is not possible</text>
    </g>
    <g fill="rgb(204,255,204)" text-rendering="geometricPrecision" shape-rendering="geometricPrecision" transform="matrix(1,0,0,1,6,431)" stroke="rgb(204,255,204)">
      <path d="M838.8489 152.3375 L999.3289 152.3375 L999.3289 167.3375 L1014.3289 167.3375 L1014.3289 184.3375 L838.8489 184.3375 Z" stroke="none" clip-path="url(#clipPath2)"/>
      <path fill="white" d="M999.3289 152.3375 L999.3289 167.3375 L1014.3289 167.3375 Z" clip-path="url(#clipPath2)" fill-rule="evenodd" stroke="none"/>
    </g>
    <g text-rendering="geometricPrecision" stroke-miterlimit="1.45" shape-rendering="geometricPrecision" transform="matrix(1,0,0,1,6,431)" stroke-linecap="butt">
      <path fill="none" d="M838.8489 152.3375 L999.3289 152.3375 L999.3289 167.3375 L1014.3289 167.3375 L1014.3289 184.3375 L838.8489 184.3375 Z" clip-path="url(#clipPath2)"/>
      <path fill="none" d="M999.3289 152.3375 L999.3289 167.3375 L1014.3289 167.3375 Z" clip-path="url(#clipPath2)" fill-rule="evenodd"/>
      <text x="840.8489" xml:space="preserve" y="172.4918" clip-path="url(#clipPath2)" font-family="sans-serif" stroke="none">Model is a reified concept</text>
    </g>
    <g fill="rgb(204,255,204)" text-rendering="geometricPrecision" shape-rendering="geometricPrecision" transform="matrix(1,0,0,1,6,431)" stroke="rgb(204,255,204)">
      <path d="M813.2489 214.3375 L999.3289 214.3375 L999.3289 229.3375 L1014.3289 229.3375 L1014.3289 246.3375 L813.2489 246.3375 Z" stroke="none" clip-path="url(#clipPath2)"/>
      <path fill="white" d="M999.3289 214.3375 L999.3289 229.3375 L1014.3289 229.3375 Z" clip-path="url(#clipPath2)" fill-rule="evenodd" stroke="none"/>
    </g>
    <g text-rendering="geometricPrecision" stroke-miterlimit="1.45" shape-rendering="geometricPrecision" transform="matrix(1,0,0,1,6,431)" stroke-linecap="butt">
      <path fill="none" d="M813.2489 214.3375 L999.3289 214.3375 L999.3289 229.3375 L1014.3289 229.3375 L1014.3289 246.3375 L813.2489 246.3375 Z" clip-path="url(#clipPath2)"/>
      <path fill="none" d="M999.3289 214.3375 L999.3289 229.3375 L1014.3289 229.3375 Z" clip-path="url(#clipPath2)" fill-rule="evenodd"/>
      <text x="815.2489" xml:space="preserve" y="234.4918" clip-path="url(#clipPath2)" font-family="sans-serif" stroke="none">Extension concepts/properties</text>
    </g>
    <g fill="white" text-rendering="geometricPrecision" shape-rendering="geometricPrecision" transform="matrix(1,0,0,1,6,431)" stroke="white">
      <rect x="539.7122" width="141.984" height="46.9952" y="57.8048" clip-path="url(#clipPath2)" stroke="none"/>
    </g>
    <g stroke-linecap="butt" transform="matrix(1,0,0,1,6,431)" fill="rgb(153,153,153)" text-rendering="geometricPrecision" shape-rendering="geometricPrecision" stroke="rgb(153,153,153)" stroke-miterlimit="1.45">
      <rect fill="none" x="539.7122" width="141.984" height="46.9952" y="57.8048" clip-path="url(#clipPath2)"/>
    </g>
    <g font-size="13px" stroke-linecap="butt" transform="matrix(1,0,0,1,6,431)" text-rendering="geometricPrecision" font-family="sans-serif" shape-rendering="geometricPrecision" font-weight="bold" stroke-miterlimit="1.45">
      <text x="547.8656" xml:space="preserve" y="74.8717" clip-path="url(#clipPath10)" stroke="none">ConcreteElement</text>
    </g>
    <g fill="rgb(153,153,153)" text-rendering="geometricPrecision" shape-rendering="geometricPrecision" transform="matrix(1,0,0,1,6,431)" stroke="rgb(153,153,153)">
      <line y2="82" fill="none" x1="540" clip-path="url(#clipPath10)" x2="680" y1="82"/>
    </g>
    <g text-rendering="geometricPrecision" stroke-miterlimit="1.45" shape-rendering="geometricPrecision" font-family="sans-serif" transform="matrix(1,0,0,1,6,431)" stroke-linecap="butt">
      <text x="544.7122" xml:space="preserve" y="99.0763" clip-path="url(#clipPath10)" stroke="none">path: String (FQN)</text>
    </g>
    <g fill="rgb(153,153,153)" text-rendering="geometricPrecision" shape-rendering="geometricPrecision" transform="matrix(1,0,0,1,6,431)" stroke="rgb(153,153,153)">
      <line y2="106" fill="none" x1="540" clip-path="url(#clipPath10)" x2="680" y1="106"/>
      <rect x="221.7482" y="-313.2704" clip-path="url(#clipPath2)" fill="white" width="124.92" height="28" stroke="none"/>
      <rect stroke-linecap="butt" x="221.7482" y="-313.2704" clip-path="url(#clipPath2)" fill="none" width="124.92" height="28" stroke-miterlimit="1.45"/>
    </g>
    <g font-size="13px" stroke-linecap="butt" transform="matrix(1,0,0,1,6,431)" text-rendering="geometricPrecision" font-family="sans-serif" shape-rendering="geometricPrecision" font-weight="bold" stroke-miterlimit="1.45">
      <text x="229.4025" xml:space="preserve" y="-296.2035" clip-path="url(#clipPath11)" stroke="none">VirtualElement</text>
    </g>
    <g fill="rgb(204,255,204)" text-rendering="geometricPrecision" shape-rendering="geometricPrecision" transform="matrix(1,0,0,1,6,431)" stroke="rgb(204,255,204)">
      <path d="M698.6326 271.5231 L999.3289 271.5231 L999.3289 286.5231 L1014.3289 286.5231 L1014.3289 303.5231 L698.6326 303.5231 Z" stroke="none" clip-path="url(#clipPath2)"/>
      <path fill="white" d="M999.3289 271.5231 L999.3289 286.5231 L1014.3289 286.5231 Z" clip-path="url(#clipPath2)" fill-rule="evenodd" stroke="none"/>
    </g>
    <g text-rendering="geometricPrecision" stroke-miterlimit="1.45" shape-rendering="geometricPrecision" transform="matrix(1,0,0,1,6,431)" stroke-linecap="butt">
      <path fill="none" d="M698.6326 271.5231 L999.3289 271.5231 L999.3289 286.5231 L1014.3289 286.5231 L1014.3289 303.5231 L698.6326 303.5231 Z" clip-path="url(#clipPath2)"/>
      <path fill="none" d="M999.3289 271.5231 L999.3289 286.5231 L1014.3289 286.5231 Z" clip-path="url(#clipPath2)" fill-rule="evenodd"/>
      <text x="700.6326" xml:space="preserve" y="291.6774" clip-path="url(#clipPath2)" font-family="sans-serif" stroke="none">Synthetic concepts can refer to virtual elements</text>
    </g>
    <g fill="rgb(204,255,204)" text-rendering="geometricPrecision" shape-rendering="geometricPrecision" transform="matrix(1,0,0,1,6,431)" stroke="rgb(204,255,204)">
      <path d="M599.7689 214.3375 L768.2489 214.3375 L768.2489 229.3375 L783.2489 229.3375 L783.2489 246.3375 L599.7689 246.3375 Z" stroke="none" clip-path="url(#clipPath2)"/>
      <path fill="white" d="M768.2489 214.3375 L768.2489 229.3375 L783.2489 229.3375 Z" clip-path="url(#clipPath2)" fill-rule="evenodd" stroke="none"/>
    </g>
    <g text-rendering="geometricPrecision" stroke-miterlimit="1.45" shape-rendering="geometricPrecision" transform="matrix(1,0,0,1,6,431)" stroke-linecap="butt">
      <path fill="none" d="M599.7689 214.3375 L768.2489 214.3375 L768.2489 229.3375 L783.2489 229.3375 L783.2489 246.3375 L599.7689 246.3375 Z" clip-path="url(#clipPath2)"/>
      <path fill="none" d="M768.2489 214.3375 L768.2489 229.3375 L783.2489 229.3375 Z" clip-path="url(#clipPath2)" fill-rule="evenodd"/>
      <text x="601.7689" xml:space="preserve" y="234.4918" clip-path="url(#clipPath2)" font-family="sans-serif" stroke="none">Supports whitelist/blacklist</text>
    </g>
    <g fill="white" text-rendering="geometricPrecision" shape-rendering="geometricPrecision" transform="matrix(1,0,0,1,6,431)" stroke="white">
      <rect x="738.1802" width="116.8" height="28" y="-185.0992" clip-path="url(#clipPath2)" stroke="none"/>
    </g>
    <g stroke-linecap="butt" transform="matrix(1,0,0,1,6,431)" fill="rgb(153,153,153)" text-rendering="geometricPrecision" shape-rendering="geometricPrecision" stroke="rgb(153,153,153)" stroke-miterlimit="1.45">
      <rect fill="none" x="738.1802" width="116.8" height="28" y="-185.0992" clip-path="url(#clipPath2)"/>
    </g>
    <g font-size="13px" stroke-linecap="butt" transform="matrix(1,0,0,1,6,431)" text-rendering="geometricPrecision" font-family="sans-serif" shape-rendering="geometricPrecision" font-weight="bold" stroke-miterlimit="1.45">
      <text x="746.97" xml:space="preserve" y="-168.0323" clip-path="url(#clipPath12)" stroke="none">ElementFilter</text>
    </g>
    <g fill="rgb(255,255,153)" text-rendering="geometricPrecision" shape-rendering="geometricPrecision" transform="matrix(1,0,0,1,6,431)" stroke="rgb(255,255,153)">
      <path d="M9.1001 235.1375 L505.1163 235.1375 L505.1163 250.1375 L520.1163 250.1375 L520.1163 267.1375 L9.1001 267.1375 Z" stroke="none" clip-path="url(#clipPath2)"/>
      <path fill="white" d="M505.1163 235.1375 L505.1163 250.1375 L520.1163 250.1375 Z" clip-path="url(#clipPath2)" fill-rule="evenodd" stroke="none"/>
    </g>
    <g text-rendering="geometricPrecision" stroke-miterlimit="1.45" shape-rendering="geometricPrecision" transform="matrix(1,0,0,1,6,431)" stroke-linecap="butt">
      <path fill="none" d="M9.1001 235.1375 L505.1163 235.1375 L505.1163 250.1375 L520.1163 250.1375 L520.1163 267.1375 L9.1001 267.1375 Z" clip-path="url(#clipPath2)"/>
      <path fill="none" d="M505.1163 235.1375 L505.1163 250.1375 L520.1163 250.1375 Z" clip-path="url(#clipPath2)" fill-rule="evenodd"/>
      <text x="11.1001" xml:space="preserve" y="255.2918" clip-path="url(#clipPath2)" font-family="sans-serif" stroke="none">Problem 2: some constraints should be added because the model is too generic</text>
      <path fill="none" d="M528.8203 -361.4482 L528.8203 -313.2973" clip-path="url(#clipPath2)"/>
      <path d="M528.8203 -368.4482 L533.8203 -361.4482 L528.8203 -354.4482 L523.8203 -361.4482 Z" clip-path="url(#clipPath2)" stroke="none"/>
      <text x="532.7103" xml:space="preserve" y="-317.0764" clip-path="url(#clipPath2)" font-family="sans-serif" stroke="none">0..*</text>
      <path fill="none" d="M430.1583 -120.5058 L430.1583 11.5342" clip-path="url(#clipPath2)"/>
      <path fill="white" d="M430.1583 -127.5058 L435.1583 -120.5058 L430.1583 -113.5058 L425.1583 -120.5058 Z" clip-path="url(#clipPath2)" stroke="none"/>
      <path fill="none" d="M430.1583 -127.5058 L435.1583 -120.5058 L430.1583 -113.5058 L425.1583 -120.5058 Z" clip-path="url(#clipPath2)"/>
      <text x="336.7784" xml:space="preserve" y="-102.0682" clip-path="url(#clipPath2)" font-family="sans-serif" stroke="none">parentConcept</text>
      <path fill="none" d="M416.0733 -188.9447 L416.0733 -220.0282 L528.8203 -220.0282 L528.8203 -251.2525" clip-path="url(#clipPath2)"/>
      <path fill="white" d="M528.8203 -266.2525 L522.8203 -250.2525 L534.8203 -250.2525 Z" clip-path="url(#clipPath2)" stroke="none"/>
      <path fill="none" d="M528.8203 -266.2525 L522.8203 -250.2525 L534.8203 -250.2525 Z" clip-path="url(#clipPath2)"/>
      <path fill="none" d="M226.9571 -188.964 L226.9571 -227.3856 L514.6555 -227.3856 L514.6555 -251.2737" clip-path="url(#clipPath2)"/>
      <path fill="white" d="M514.6555 -266.2737 L508.6555 -250.2737 L520.6555 -250.2737 Z" clip-path="url(#clipPath2)" stroke="none"/>
      <path fill="none" d="M514.6555 -266.2737 L508.6555 -250.2737 L520.6555 -250.2737 Z" clip-path="url(#clipPath2)"/>
      <path fill="none" d="M223.0491 -153.7699 L223.0491 25.5552 L367.6983 25.5552" clip-path="url(#clipPath2)"/>
      <path fill="white" d="M223.0491 -160.7699 L228.0491 -153.7699 L223.0491 -146.7699 L218.0491 -153.7699 Z" clip-path="url(#clipPath2)" stroke="none"/>
      <path fill="none" d="M223.0491 -160.7699 L228.0491 -153.7699 L223.0491 -146.7699 L218.0491 -153.7699 Z" clip-path="url(#clipPath2)"/>
      <text x="228.6154" xml:space="preserve" y="-135.6914" clip-path="url(#clipPath2)" font-family="sans-serif" stroke="none">superconcept</text>
      <text x="401.9847" xml:space="preserve" y="3.6669" clip-path="url(#clipPath2)" font-family="sans-serif" stroke="none">0..*</text>
      <text x="338.0673" xml:space="preserve" y="21.0333" clip-path="url(#clipPath2)" font-family="sans-serif" stroke="none">0..*</text>
      <path fill="none" d="M186.1179 -153.7821 L186.1179 35.9676 L367.695 35.9676" clip-path="url(#clipPath2)"/>
      <path fill="white" d="M186.1179 -160.7821 L191.1179 -153.7821 L186.1179 -146.7821 L181.1179 -153.7821 Z" clip-path="url(#clipPath2)" stroke="none"/>
      <path fill="none" d="M186.1179 -160.7821 L191.1179 -153.7821 L186.1179 -146.7821 L181.1179 -153.7821 Z" clip-path="url(#clipPath2)"/>
      <text x="339.4646" xml:space="preserve" y="47.3159" clip-path="url(#clipPath2)" font-family="sans-serif" stroke="none">0..*</text>
      <text x="107.4449" xml:space="preserve" y="-135.5211" clip-path="url(#clipPath2)" font-family="sans-serif" stroke="none">subconcepts</text>
      <path fill="none" d="M576.1483 -361.4449 L576.1483 -352.9752 L981.8012 -352.9752 L981.8012 57.7974" clip-path="url(#clipPath2)"/>
      <path d="M576.1483 -368.4449 L581.1483 -361.4449 L576.1483 -354.4449 L571.1483 -361.4449 Z" clip-path="url(#clipPath2)" stroke="none"/>
      <text x="985.6913" xml:space="preserve" y="44.075" clip-path="url(#clipPath2)" font-family="sans-serif" stroke="none">0..*</text>
      <text x="604.1015" xml:space="preserve" y="-360.7422" clip-path="url(#clipPath2)" font-family="sans-serif" stroke="none">contributing</text>
      <path fill="none" d="M496.4554 11.5356 L496.4554 -48.0388 L631.8845 -48.0388 L631.8845 -115.0152" clip-path="url(#clipPath2)"/>
      <path fill="white" d="M631.8845 -122.0152 L636.8845 -115.0152 L631.8845 -108.0152 L626.8845 -115.0152 Z" clip-path="url(#clipPath2)" stroke="none"/>
      <path fill="none" d="M631.8845 -122.0152 L636.8845 -115.0152 L631.8845 -108.0152 L626.8845 -115.0152 Z" clip-path="url(#clipPath2)"/>
      <text x="633.9289" xml:space="preserve" y="-91.9734" clip-path="url(#clipPath2)" font-family="sans-serif" stroke="none">opposite</text>
      <path fill="none" d="M581.4768 -185.133 L581.4768 -221.6666 L541.8854 -221.6666 L541.8854 -251.2579" clip-path="url(#clipPath2)"/>
      <path fill="white" d="M541.8854 -266.2579 L535.8854 -250.2579 L547.8854 -250.2579 Z" clip-path="url(#clipPath2)" stroke="none"/>
      <path fill="none" d="M541.8854 -266.2579 L535.8854 -250.2579 L547.8854 -250.2579 Z" clip-path="url(#clipPath2)"/>
      <path fill="none" d="M548.9699 -115.0123 L548.9699 -77.412 L466.7745 -77.412 L466.7745 11.5274" clip-path="url(#clipPath2)"/>
      <path fill="white" d="M548.9699 -122.0123 L553.9699 -115.0123 L548.9699 -108.0123 L543.9699 -115.0123 Z" clip-path="url(#clipPath2)" stroke="none"/>
      <path fill="none" d="M548.9699 -122.0123 L553.9699 -115.0123 L548.9699 -108.0123 L543.9699 -115.0123 Z" clip-path="url(#clipPath2)"/>
      <text x="502.1367" xml:space="preserve" y="-94.302" clip-path="url(#clipPath2)" font-family="sans-serif" stroke="none">source</text>
      <path fill="none" d="M569.8662 -115.0091 L569.8662 -62.212 L481.6667 -62.212 L481.6667 11.5539" clip-path="url(#clipPath2)"/>
      <path fill="white" d="M569.8662 -122.0091 L574.8662 -115.0091 L569.8662 -108.0091 L564.8662 -115.0091 Z" clip-path="url(#clipPath2)" stroke="none"/>
      <path fill="none" d="M569.8662 -122.0091 L574.8662 -115.0091 L569.8662 -108.0091 L564.8662 -115.0091 Z" clip-path="url(#clipPath2)"/>
      <text x="576.0412" xml:space="preserve" y="-92.6163" clip-path="url(#clipPath2)" font-family="sans-serif" stroke="none">target</text>
      <path fill="none" d="M539.7201 81.3024 L461.064 81.3024 L461.064 54.5764" clip-path="url(#clipPath2)"/>
      <path fill="white" d="M461.064 39.5764 L455.064 55.5764 L467.064 55.5764 Z" clip-path="url(#clipPath2)" stroke="none"/>
      <path fill="none" d="M461.064 39.5764 L455.064 55.5764 L467.064 55.5764 Z" clip-path="url(#clipPath2)"/>
      <path fill="none" d="M681.7365 81.3024 L861.2993 81.3024" clip-path="url(#clipPath2)"/>
      <path d="M868.2993 81.3024 L861.2993 86.3024 L854.2993 81.3024 L861.2993 76.3024 Z" clip-path="url(#clipPath2)" stroke="none"/>
      <text x="688.6962" xml:space="preserve" y="100.0596" clip-path="url(#clipPath2)" font-family="sans-serif" stroke="none">0..*</text>
      <path fill="none" d="M590.3506 -185.0929 L590.3506 -239.5456 L296.4652 -239.5456 L296.4652 -270.2509" clip-path="url(#clipPath2)"/>
      <path fill="white" d="M296.4652 -285.2509 L290.4652 -269.2509 L302.4652 -269.2509 Z" clip-path="url(#clipPath2)" stroke="none"/>
      <path fill="none" d="M296.4652 -285.2509 L290.4652 -269.2509 L302.4652 -269.2509 Z" clip-path="url(#clipPath2)"/>
      <path fill="none" d="M405.8306 -188.9561 L405.8306 -233.4042 L284.2082 -233.4042 L284.2082 -270.2548" clip-path="url(#clipPath2)"/>
      <path fill="white" d="M284.2082 -285.2548 L278.2082 -269.2548 L290.2082 -269.2548 Z" clip-path="url(#clipPath2)" stroke="none"/>
      <path fill="none" d="M284.2082 -285.2548 L278.2082 -269.2548 L290.2082 -269.2548 Z" clip-path="url(#clipPath2)"/>
      <path fill="none" d="M215.4082 -188.9284 L215.4082 -233.2647 L272.4286 -233.2647 L272.4286 -270.2562" clip-path="url(#clipPath2)"/>
      <path fill="white" d="M272.4286 -285.2562 L266.4286 -269.2562 L278.4286 -269.2562 Z" clip-path="url(#clipPath2)" stroke="none"/>
      <path fill="none" d="M272.4286 -285.2562 L266.4286 -269.2562 L278.4286 -269.2562 Z" clip-path="url(#clipPath2)"/>
      <path fill="none" d="M221.724 -299.2704 L68.502 -299.2704 L68.502 80.8326 L424.4482 80.8326 L424.4482 54.575" clip-path="url(#clipPath2)"/>
      <path fill="white" d="M424.4482 39.575 L418.4482 55.575 L430.4482 55.575 Z" clip-path="url(#clipPath2)" stroke="none"/>
      <path fill="none" d="M424.4482 39.575 L418.4482 55.575 L430.4482 55.575 Z" clip-path="url(#clipPath2)"/>
      <path fill="none" d="M796.5801 -185.1441 L796.5801 -277.0063 L614.8199 -277.0063" clip-path="url(#clipPath2)"/>
      <path fill="white" d="M599.8199 -277.0063 L615.8199 -271.0063 L615.8199 -283.0063 Z" clip-path="url(#clipPath2)" stroke="none"/>
      <path fill="none" d="M599.8199 -277.0063 L615.8199 -271.0063 L615.8199 -283.0063 Z" clip-path="url(#clipPath2)"/>
      <path fill="none" d="M796.5801 -150.0546 L796.5801 25.5552 L610.7042 25.5552 L610.7042 57.7821" clip-path="url(#clipPath2)"/>
      <path fill="white" d="M796.5801 -157.0546 L801.5801 -150.0546 L796.5801 -143.0546 L791.5801 -150.0546 Z" clip-path="url(#clipPath2)" stroke="none"/>
      <path fill="none" d="M796.5801 -157.0546 L801.5801 -150.0546 L796.5801 -143.0546 L791.5801 -150.0546 Z" clip-path="url(#clipPath2)"/>
      <text x="803.5223" xml:space="preserve" y="-118.0777" clip-path="url(#clipPath2)" font-family="sans-serif" stroke="none">target</text>
    </g>
  </g>
</svg>
