<?xml version="1.0" encoding="UTF-8"?><svg xmlns="http://www.w3.org/2000/svg" xmlns:xlink="http://www.w3.org/1999/xlink" fill-opacity="1" color-rendering="auto" color-interpolation="auto" text-rendering="auto" stroke="black" stroke-linecap="square" width="1037" stroke-miterlimit="10" shape-rendering="auto" stroke-opacity="1" fill="black" stroke-dasharray="none" font-weight="normal" stroke-width="1" height="898" font-family="'Dialog'" font-style="normal" stroke-linejoin="miter" font-size="12px" stroke-dashoffset="0" image-rendering="auto">
  <!--Generated by ySVG 2.5-->
  <defs id="genericDefs"/>
  <g>
    <defs id="defs1">
      <clipPath clipPathUnits="userSpaceOnUse" id="clipPath1">
        <path d="M0 0 L1037 0 L1037 898 L0 898 L0 0 Z"/>
      </clipPath>
      <clipPath clipPathUnits="userSpaceOnUse" id="clipPath2">
        <path d="M221 137 L1258 137 L1258 1035 L221 1035 L221 137 Z"/>
      </clipPath>
      <clipPath clipPathUnits="userSpaceOnUse" id="clipPath3">
        <path d="M541 594 L541 621 L682 621 L682 594 Z"/>
      </clipPath>
      <clipPath clipPathUnits="userSpaceOnUse" id="clipPath4">
        <path d="M672 269 L672 315 L813 315 L813 269 Z"/>
      </clipPath>
      <clipPath clipPathUnits="userSpaceOnUse" id="clipPath5">
        <path d="M672 152 L672 213 L813 213 L813 152 Z"/>
      </clipPath>
      <clipPath clipPathUnits="userSpaceOnUse" id="clipPath6">
        <path d="M558 393 L558 454 L682 454 L682 393 Z"/>
      </clipPath>
      <clipPath clipPathUnits="userSpaceOnUse" id="clipPath7">
        <path d="M367 393 L367 421 L491 421 L491 393 Z"/>
      </clipPath>
      <clipPath clipPathUnits="userSpaceOnUse" id="clipPath8">
        <path d="M1091 269 L1091 315 L1232 315 L1232 269 Z"/>
      </clipPath>
      <clipPath clipPathUnits="userSpaceOnUse" id="clipPath9">
        <path d="M742 397 L742 472 L883 472 L883 397 Z"/>
      </clipPath>
      <clipPath clipPathUnits="userSpaceOnUse" id="clipPath10">
        <path d="M1091 594 L1091 640 L1232 640 L1232 594 Z"/>
      </clipPath>
      <clipPath clipPathUnits="userSpaceOnUse" id="clipPath11">
        <path d="M982 397 L982 425 L1039 425 L1039 397 Z"/>
      </clipPath>
      <clipPath clipPathUnits="userSpaceOnUse" id="clipPath12">
        <path d="M538 741 L538 769 L685 769 L685 741 Z"/>
      </clipPath>
      <clipPath clipPathUnits="userSpaceOnUse" id="clipPath13">
        <path d="M762 594 L762 621 L863 621 L863 594 Z"/>
      </clipPath>
      <clipPath clipPathUnits="userSpaceOnUse" id="clipPath14">
        <path d="M726 741 L726 769 L901 769 L901 741 Z"/>
      </clipPath>
      <clipPath clipPathUnits="userSpaceOnUse" id="clipPath15">
        <path d="M445 269 L445 296 L569 296 L569 269 Z"/>
      </clipPath>
      <clipPath clipPathUnits="userSpaceOnUse" id="clipPath16">
        <path d="M671 652 L671 679 L756 679 L756 652 Z"/>
      </clipPath>
      <clipPath clipPathUnits="userSpaceOnUse" id="clipPath17">
        <path d="M-424.7163 18.0185 L163.6749 -835.893 L903.1276 -326.3701 L314.7365 527.5414 L-424.7163 18.0185 Z"/>
      </clipPath>
      <clipPath clipPathUnits="userSpaceOnUse" id="clipPath18">
        <path d="M-523.6107 17.814 L64.7804 -836.0975 L804.2332 -326.5746 L215.842 527.3369 L-523.6107 17.814 Z"/>
      </clipPath>
      <clipPath clipPathUnits="userSpaceOnUse" id="clipPath19">
        <path d="M-529.2529 -19.7072 L72.4391 -864.2993 L803.8216 -343.2584 L202.1297 501.3336 L-529.2529 -19.7072 Z"/>
      </clipPath>
      <clipPath clipPathUnits="userSpaceOnUse" id="clipPath20">
        <path d="M-437.684 -19.1905 L164.008 -863.7825 L895.3905 -342.7417 L293.6986 501.8504 L-437.684 -19.1905 Z"/>
      </clipPath>
      <clipPath clipPathUnits="userSpaceOnUse" id="clipPath21">
        <path d="M43.8736 -614.8589 L717.6542 173.4232 L35.0338 756.89 L-638.7468 -31.3922 L43.8736 -614.8589 Z"/>
      </clipPath>
      <clipPath clipPathUnits="userSpaceOnUse" id="clipPath22">
        <path d="M36.8112 -644.9013 L708.8557 144.8615 L24.953 726.8247 L-647.0914 -62.9381 L36.8112 -644.9013 Z"/>
      </clipPath>
    </defs>
    <g fill="white" text-rendering="geometricPrecision" shape-rendering="geometricPrecision" transform="translate(-221,-137)" stroke="white">
      <rect x="221" width="1037" height="898" y="137" clip-path="url(#clipPath2)" stroke="none"/>
    </g>
    <g fill="white" text-rendering="geometricPrecision" shape-rendering="geometricPrecision" transform="matrix(1,0,0,1,-221,-137)" stroke="white">
      <rect x="541.3066" width="141.984" height="28" y="594.0552" clip-path="url(#clipPath2)" stroke="none"/>
    </g>
    <g stroke-linecap="butt" transform="matrix(1,0,0,1,-221,-137)" fill="rgb(153,153,153)" text-rendering="geometricPrecision" shape-rendering="geometricPrecision" stroke="rgb(153,153,153)" stroke-miterlimit="1.45">
      <rect fill="none" x="541.3066" width="141.984" height="28" y="594.0552" clip-path="url(#clipPath2)"/>
    </g>
    <g stroke-linecap="butt" font-size="13px" transform="matrix(1,0,0,1,-221,-137)" text-rendering="geometricPrecision" font-family="sans-serif" shape-rendering="geometricPrecision" font-style="italic" font-weight="bold" stroke-miterlimit="1.45">
      <text x="582.4138" xml:space="preserve" y="611.1221" clip-path="url(#clipPath3)" stroke="none">Concept</text>
    </g>
    <g fill="white" text-rendering="geometricPrecision" shape-rendering="geometricPrecision" transform="matrix(1,0,0,1,-221,-137)" stroke="white">
      <rect x="672.8282" width="141.984" height="46.9952" y="269.2296" clip-path="url(#clipPath2)" stroke="none"/>
    </g>
    <g stroke-linecap="butt" transform="matrix(1,0,0,1,-221,-137)" fill="rgb(153,153,153)" text-rendering="geometricPrecision" shape-rendering="geometricPrecision" stroke="rgb(153,153,153)" stroke-miterlimit="1.45">
      <rect fill="none" x="672.8282" width="141.984" height="46.9952" y="269.2296" clip-path="url(#clipPath2)"/>
    </g>
    <g stroke-linecap="butt" font-size="13px" transform="matrix(1,0,0,1,-221,-137)" text-rendering="geometricPrecision" font-family="sans-serif" shape-rendering="geometricPrecision" font-style="italic" font-weight="bold" stroke-miterlimit="1.45">
      <text x="703.6872" xml:space="preserve" y="286.2965" clip-path="url(#clipPath4)" stroke="none">VirtualLink</text>
    </g>
    <g fill="rgb(153,153,153)" text-rendering="geometricPrecision" shape-rendering="geometricPrecision" transform="matrix(1,0,0,1,-221,-137)" stroke="rgb(153,153,153)">
      <line y2="294" fill="none" x1="673" clip-path="url(#clipPath4)" x2="813" y1="294"/>
    </g>
    <g text-rendering="geometricPrecision" stroke-miterlimit="1.45" shape-rendering="geometricPrecision" font-family="sans-serif" transform="matrix(1,0,0,1,-221,-137)" stroke-linecap="butt">
      <text x="677.8282" xml:space="preserve" y="310.5011" clip-path="url(#clipPath4)" stroke="none">name: String</text>
    </g>
    <g fill="rgb(153,153,153)" text-rendering="geometricPrecision" shape-rendering="geometricPrecision" transform="matrix(1,0,0,1,-221,-137)" stroke="rgb(153,153,153)">
      <line y2="318" fill="none" x1="673" clip-path="url(#clipPath4)" x2="813" y1="318"/>
      <rect x="672.8282" y="152.6168" clip-path="url(#clipPath2)" fill="white" width="141.984" height="61.408" stroke="none"/>
      <rect stroke-linecap="butt" x="672.8282" y="152.6168" clip-path="url(#clipPath2)" fill="none" width="141.984" height="61.408" stroke-miterlimit="1.45"/>
    </g>
    <g font-size="13px" stroke-linecap="butt" transform="matrix(1,0,0,1,-221,-137)" text-rendering="geometricPrecision" font-family="sans-serif" shape-rendering="geometricPrecision" font-weight="bold" stroke-miterlimit="1.45">
      <text x="689.8874" xml:space="preserve" y="169.6837" clip-path="url(#clipPath5)" stroke="none">WeavingModel</text>
    </g>
    <g fill="rgb(153,153,153)" text-rendering="geometricPrecision" shape-rendering="geometricPrecision" transform="matrix(1,0,0,1,-221,-137)" stroke="rgb(153,153,153)">
      <line y2="177" fill="none" x1="673" clip-path="url(#clipPath5)" x2="813" y1="177"/>
    </g>
    <g text-rendering="geometricPrecision" stroke-miterlimit="1.45" shape-rendering="geometricPrecision" font-family="sans-serif" transform="matrix(1,0,0,1,-221,-137)" stroke-linecap="butt">
      <text x="677.8282" xml:space="preserve" y="193.8883" clip-path="url(#clipPath5)" stroke="none">name: String</text>
      <text x="677.8282" xml:space="preserve" y="207.857" clip-path="url(#clipPath5)" stroke="none">blacklist: bool</text>
    </g>
    <g fill="rgb(153,153,153)" text-rendering="geometricPrecision" shape-rendering="geometricPrecision" transform="matrix(1,0,0,1,-221,-137)" stroke="rgb(153,153,153)">
      <line y2="215" fill="none" x1="673" clip-path="url(#clipPath5)" x2="813" y1="215"/>
      <rect x="558.3706" y="393.5608" clip-path="url(#clipPath2)" fill="white" width="124.92" height="61.408" stroke="none"/>
      <rect stroke-linecap="butt" x="558.3706" y="393.5608" clip-path="url(#clipPath2)" fill="none" width="124.92" height="61.408" stroke-miterlimit="1.45"/>
    </g>
    <g font-size="13px" stroke-linecap="butt" transform="matrix(1,0,0,1,-221,-137)" text-rendering="geometricPrecision" font-family="sans-serif" shape-rendering="geometricPrecision" font-weight="bold" stroke-miterlimit="1.45">
      <text x="563.9714" xml:space="preserve" y="410.6277" clip-path="url(#clipPath6)" stroke="none">VirtualProperty</text>
    </g>
    <g fill="rgb(153,153,153)" text-rendering="geometricPrecision" shape-rendering="geometricPrecision" transform="matrix(1,0,0,1,-221,-137)" stroke="rgb(153,153,153)">
      <line y2="418" fill="none" x1="559" clip-path="url(#clipPath6)" x2="682" y1="418"/>
    </g>
    <g text-rendering="geometricPrecision" stroke-miterlimit="1.45" shape-rendering="geometricPrecision" font-family="sans-serif" transform="matrix(1,0,0,1,-221,-137)" stroke-linecap="butt">
      <text x="563.3705" xml:space="preserve" y="434.8323" clip-path="url(#clipPath6)" stroke="none">type: String</text>
      <text x="563.3705" xml:space="preserve" y="448.801" clip-path="url(#clipPath6)" stroke="none">optional: bool</text>
    </g>
    <g fill="rgb(153,153,153)" text-rendering="geometricPrecision" shape-rendering="geometricPrecision" transform="matrix(1,0,0,1,-221,-137)" stroke="rgb(153,153,153)">
      <line y2="456" fill="none" x1="559" clip-path="url(#clipPath6)" x2="682" y1="456"/>
      <rect x="367.9482" y="393.5608" clip-path="url(#clipPath2)" fill="white" width="124.92" height="28.1344" stroke="none"/>
      <rect stroke-linecap="butt" x="367.9482" y="393.5608" clip-path="url(#clipPath2)" fill="none" width="124.92" height="28.1344" stroke-miterlimit="1.45"/>
    </g>
    <g font-size="13px" stroke-linecap="butt" transform="matrix(1,0,0,1,-221,-137)" text-rendering="geometricPrecision" font-family="sans-serif" shape-rendering="geometricPrecision" font-weight="bold" stroke-miterlimit="1.45">
      <text x="375.7104" xml:space="preserve" y="410.6277" clip-path="url(#clipPath7)" stroke="none">VirtualConcept</text>
    </g>
    <g fill="white" text-rendering="geometricPrecision" shape-rendering="geometricPrecision" transform="matrix(1,0,0,1,-221,-137)" stroke="white">
      <rect x="1091.1449" width="141.984" height="46.9952" y="269.2296" clip-path="url(#clipPath2)" stroke="none"/>
    </g>
    <g stroke-linecap="butt" transform="matrix(1,0,0,1,-221,-137)" fill="rgb(153,153,153)" text-rendering="geometricPrecision" shape-rendering="geometricPrecision" stroke="rgb(153,153,153)" stroke-miterlimit="1.45">
      <rect fill="none" x="1091.1449" width="141.984" height="46.9952" y="269.2296" clip-path="url(#clipPath2)"/>
    </g>
    <g font-size="13px" stroke-linecap="butt" transform="matrix(1,0,0,1,-221,-137)" text-rendering="geometricPrecision" font-family="sans-serif" shape-rendering="geometricPrecision" font-weight="bold" stroke-miterlimit="1.45">
      <text x="1093.614" xml:space="preserve" y="286.2965" clip-path="url(#clipPath8)" stroke="none">ContributingModel</text>
    </g>
    <g fill="rgb(153,153,153)" text-rendering="geometricPrecision" shape-rendering="geometricPrecision" transform="matrix(1,0,0,1,-221,-137)" stroke="rgb(153,153,153)">
      <line y2="294" fill="none" x1="1092" clip-path="url(#clipPath8)" x2="1232" y1="294"/>
    </g>
    <g text-rendering="geometricPrecision" stroke-miterlimit="1.45" shape-rendering="geometricPrecision" font-family="sans-serif" transform="matrix(1,0,0,1,-221,-137)" stroke-linecap="butt">
      <text x="1096.1449" xml:space="preserve" y="310.5011" clip-path="url(#clipPath8)" stroke="none">URI: String</text>
    </g>
    <g fill="rgb(153,153,153)" text-rendering="geometricPrecision" shape-rendering="geometricPrecision" transform="matrix(1,0,0,1,-221,-137)" stroke="rgb(153,153,153)">
      <line y2="318" fill="none" x1="1092" clip-path="url(#clipPath8)" x2="1232" y1="318"/>
      <rect x="742.8906" y="397.4008" clip-path="url(#clipPath2)" fill="white" width="141.984" height="75.072" stroke="none"/>
      <rect stroke-linecap="butt" x="742.8906" y="397.4008" clip-path="url(#clipPath2)" fill="none" width="141.984" height="75.072" stroke-miterlimit="1.45"/>
    </g>
    <g font-size="13px" stroke-linecap="butt" transform="matrix(1,0,0,1,-221,-137)" text-rendering="geometricPrecision" font-family="sans-serif" shape-rendering="geometricPrecision" font-weight="bold" stroke-miterlimit="1.45">
      <text x="746.9402" xml:space="preserve" y="414.4677" clip-path="url(#clipPath9)" stroke="none">VirtualAssociation</text>
    </g>
    <g fill="rgb(153,153,153)" text-rendering="geometricPrecision" shape-rendering="geometricPrecision" transform="matrix(1,0,0,1,-221,-137)" stroke="rgb(153,153,153)">
      <line y2="422" fill="none" x1="743" clip-path="url(#clipPath9)" x2="883" y1="422"/>
    </g>
    <g text-rendering="geometricPrecision" stroke-miterlimit="1.45" shape-rendering="geometricPrecision" font-family="sans-serif" transform="matrix(1,0,0,1,-221,-137)" stroke-linecap="butt">
      <text x="747.8906" xml:space="preserve" y="438.6723" clip-path="url(#clipPath9)" stroke="none">lowerBound: int</text>
      <text x="747.8906" xml:space="preserve" y="452.641" clip-path="url(#clipPath9)" stroke="none">upperBound: int</text>
      <text x="747.8906" xml:space="preserve" y="466.6098" clip-path="url(#clipPath9)" stroke="none">composition: bool</text>
    </g>
    <g fill="rgb(153,153,153)" text-rendering="geometricPrecision" shape-rendering="geometricPrecision" transform="matrix(1,0,0,1,-221,-137)" stroke="rgb(153,153,153)">
      <line y2="474" fill="none" x1="743" clip-path="url(#clipPath9)" x2="883" y1="474"/>
      <path fill="rgb(255,255,153)" d="M236.8481 888.6375 L666.4643 888.6375 L666.4643 903.6375 L681.4643 903.6375 L681.4643 920.6375 L236.8481 920.6375 Z" clip-path="url(#clipPath2)" stroke="none"/>
      <path fill="white" d="M666.4643 888.6375 L666.4643 903.6375 L681.4643 903.6375 Z" clip-path="url(#clipPath2)" fill-rule="evenodd" stroke="none"/>
    </g>
    <g text-rendering="geometricPrecision" stroke-miterlimit="1.45" shape-rendering="geometricPrecision" transform="matrix(1,0,0,1,-221,-137)" stroke-linecap="butt">
      <path fill="none" d="M236.8481 888.6375 L666.4643 888.6375 L666.4643 903.6375 L681.4643 903.6375 L681.4643 920.6375 L236.8481 920.6375 Z" clip-path="url(#clipPath2)"/>
      <path fill="none" d="M666.4643 888.6375 L666.4643 903.6375 L681.4643 903.6375 Z" clip-path="url(#clipPath2)" fill-rule="evenodd"/>
      <text x="238.8481" xml:space="preserve" y="908.7918" clip-path="url(#clipPath2)" font-family="sans-serif" stroke="none">Problem 1: whitelisting/blacklisting at properties level is not possible</text>
    </g>
    <g fill="rgb(204,255,204)" text-rendering="geometricPrecision" shape-rendering="geometricPrecision" transform="matrix(1,0,0,1,-221,-137)" stroke="rgb(204,255,204)">
      <path d="M1066.5969 867.8375 L1227.0769 867.8375 L1227.0769 882.8375 L1242.0769 882.8375 L1242.0769 899.8375 L1066.5969 899.8375 Z" stroke="none" clip-path="url(#clipPath2)"/>
      <path fill="white" d="M1227.0769 867.8375 L1227.0769 882.8375 L1242.0769 882.8375 Z" clip-path="url(#clipPath2)" fill-rule="evenodd" stroke="none"/>
    </g>
    <g text-rendering="geometricPrecision" stroke-miterlimit="1.45" shape-rendering="geometricPrecision" transform="matrix(1,0,0,1,-221,-137)" stroke-linecap="butt">
      <path fill="none" d="M1066.5969 867.8375 L1227.0769 867.8375 L1227.0769 882.8375 L1242.0769 882.8375 L1242.0769 899.8375 L1066.5969 899.8375 Z" clip-path="url(#clipPath2)"/>
      <path fill="none" d="M1227.0769 867.8375 L1227.0769 882.8375 L1242.0769 882.8375 Z" clip-path="url(#clipPath2)" fill-rule="evenodd"/>
      <text x="1068.5969" xml:space="preserve" y="887.9918" clip-path="url(#clipPath2)" font-family="sans-serif" stroke="none">Model is a reified concept</text>
    </g>
    <g fill="rgb(204,255,204)" text-rendering="geometricPrecision" shape-rendering="geometricPrecision" transform="matrix(1,0,0,1,-221,-137)" stroke="rgb(204,255,204)">
      <path d="M1040.9969 929.8375 L1227.0769 929.8375 L1227.0769 944.8375 L1242.0769 944.8375 L1242.0769 961.8375 L1040.9969 961.8375 Z" stroke="none" clip-path="url(#clipPath2)"/>
      <path fill="white" d="M1227.0769 929.8375 L1227.0769 944.8375 L1242.0769 944.8375 Z" clip-path="url(#clipPath2)" fill-rule="evenodd" stroke="none"/>
    </g>
    <g text-rendering="geometricPrecision" stroke-miterlimit="1.45" shape-rendering="geometricPrecision" transform="matrix(1,0,0,1,-221,-137)" stroke-linecap="butt">
      <path fill="none" d="M1040.9969 929.8375 L1227.0769 929.8375 L1227.0769 944.8375 L1242.0769 944.8375 L1242.0769 961.8375 L1040.9969 961.8375 Z" clip-path="url(#clipPath2)"/>
      <path fill="none" d="M1227.0769 929.8375 L1227.0769 944.8375 L1242.0769 944.8375 Z" clip-path="url(#clipPath2)" fill-rule="evenodd"/>
      <text x="1042.9969" xml:space="preserve" y="949.9918" clip-path="url(#clipPath2)" font-family="sans-serif" stroke="none">Extension concepts/properties</text>
    </g>
    <g fill="white" text-rendering="geometricPrecision" shape-rendering="geometricPrecision" transform="matrix(1,0,0,1,-221,-137)" stroke="white">
      <rect x="1091.1449" width="141.984" height="46.9952" y="594.0552" clip-path="url(#clipPath2)" stroke="none"/>
    </g>
    <g stroke-linecap="butt" transform="matrix(1,0,0,1,-221,-137)" fill="rgb(153,153,153)" text-rendering="geometricPrecision" shape-rendering="geometricPrecision" stroke="rgb(153,153,153)" stroke-miterlimit="1.45">
      <rect fill="none" x="1091.1449" width="141.984" height="46.9952" y="594.0552" clip-path="url(#clipPath2)"/>
    </g>
    <g font-size="13px" stroke-linecap="butt" transform="matrix(1,0,0,1,-221,-137)" text-rendering="geometricPrecision" font-family="sans-serif" shape-rendering="geometricPrecision" font-weight="bold" stroke-miterlimit="1.45">
      <text x="1099.2983" xml:space="preserve" y="611.1221" clip-path="url(#clipPath10)" stroke="none">ConcreteElement</text>
    </g>
    <g fill="rgb(153,153,153)" text-rendering="geometricPrecision" shape-rendering="geometricPrecision" transform="matrix(1,0,0,1,-221,-137)" stroke="rgb(153,153,153)">
      <line y2="619" fill="none" x1="1092" clip-path="url(#clipPath10)" x2="1232" y1="619"/>
    </g>
    <g text-rendering="geometricPrecision" stroke-miterlimit="1.45" shape-rendering="geometricPrecision" font-family="sans-serif" transform="matrix(1,0,0,1,-221,-137)" stroke-linecap="butt">
      <text x="1096.1449" xml:space="preserve" y="635.3267" clip-path="url(#clipPath10)" stroke="none">path: String (FQN)</text>
    </g>
    <g fill="rgb(153,153,153)" text-rendering="geometricPrecision" shape-rendering="geometricPrecision" transform="matrix(1,0,0,1,-221,-137)" stroke="rgb(153,153,153)">
      <line y2="643" fill="none" x1="1092" clip-path="url(#clipPath10)" x2="1232" y1="643"/>
      <path fill="rgb(204,255,204)" d="M926.3806 987.0231 L1227.0769 987.0231 L1227.0769 1002.0231 L1242.0769 1002.0231 L1242.0769 1019.0231 L926.3806 1019.0231 Z" clip-path="url(#clipPath2)" stroke="none"/>
      <path fill="white" d="M1227.0769 987.0231 L1227.0769 1002.0231 L1242.0769 1002.0231 Z" clip-path="url(#clipPath2)" fill-rule="evenodd" stroke="none"/>
    </g>
    <g text-rendering="geometricPrecision" stroke-miterlimit="1.45" shape-rendering="geometricPrecision" transform="matrix(1,0,0,1,-221,-137)" stroke-linecap="butt">
      <path fill="none" d="M926.3806 987.0231 L1227.0769 987.0231 L1227.0769 1002.0231 L1242.0769 1002.0231 L1242.0769 1019.0231 L926.3806 1019.0231 Z" clip-path="url(#clipPath2)"/>
      <path fill="none" d="M1227.0769 987.0231 L1227.0769 1002.0231 L1242.0769 1002.0231 Z" clip-path="url(#clipPath2)" fill-rule="evenodd"/>
      <text x="928.3806" xml:space="preserve" y="1007.1774" clip-path="url(#clipPath2)" font-family="sans-serif" stroke="none">Synthetic concepts can refer to virtual elements</text>
    </g>
    <g fill="rgb(204,255,204)" text-rendering="geometricPrecision" shape-rendering="geometricPrecision" transform="matrix(1,0,0,1,-221,-137)" stroke="rgb(204,255,204)">
      <path d="M827.5169 929.8375 L995.9969 929.8375 L995.9969 944.8375 L1010.9969 944.8375 L1010.9969 961.8375 L827.5169 961.8375 Z" stroke="none" clip-path="url(#clipPath2)"/>
      <path fill="white" d="M995.9969 929.8375 L995.9969 944.8375 L1010.9969 944.8375 Z" clip-path="url(#clipPath2)" fill-rule="evenodd" stroke="none"/>
    </g>
    <g text-rendering="geometricPrecision" stroke-miterlimit="1.45" shape-rendering="geometricPrecision" transform="matrix(1,0,0,1,-221,-137)" stroke-linecap="butt">
      <path fill="none" d="M827.5169 929.8375 L995.9969 929.8375 L995.9969 944.8375 L1010.9969 944.8375 L1010.9969 961.8375 L827.5169 961.8375 Z" clip-path="url(#clipPath2)"/>
      <path fill="none" d="M995.9969 929.8375 L995.9969 944.8375 L1010.9969 944.8375 Z" clip-path="url(#clipPath2)" fill-rule="evenodd"/>
      <text x="829.5169" xml:space="preserve" y="949.9918" clip-path="url(#clipPath2)" font-family="sans-serif" stroke="none">Supports whitelist/blacklist</text>
    </g>
    <g fill="white" text-rendering="geometricPrecision" shape-rendering="geometricPrecision" transform="matrix(1,0,0,1,-221,-137)" stroke="white">
      <rect x="982.6718" width="57.8167" height="28" y="397.4008" clip-path="url(#clipPath2)" stroke="none"/>
    </g>
    <g stroke-linecap="butt" transform="matrix(1,0,0,1,-221,-137)" fill="rgb(153,153,153)" text-rendering="geometricPrecision" shape-rendering="geometricPrecision" stroke="rgb(153,153,153)" stroke-miterlimit="1.45">
      <rect fill="none" x="982.6718" width="57.8167" height="28" y="397.4008" clip-path="url(#clipPath2)"/>
    </g>
    <g font-size="13px" stroke-linecap="butt" transform="matrix(1,0,0,1,-221,-137)" text-rendering="geometricPrecision" font-family="sans-serif" shape-rendering="geometricPrecision" font-weight="bold" stroke-miterlimit="1.45">
      <text x="991.9627" xml:space="preserve" y="414.4677" clip-path="url(#clipPath11)" stroke="none">Filter</text>
    </g>
    <g fill="white" text-rendering="geometricPrecision" shape-rendering="geometricPrecision" transform="matrix(1,0,0,1,-221,-137)" stroke="white">
      <rect x="538.3986" width="147.8" height="28" y="741.3463" clip-path="url(#clipPath2)" stroke="none"/>
    </g>
    <g stroke-linecap="butt" transform="matrix(1,0,0,1,-221,-137)" fill="rgb(153,153,153)" text-rendering="geometricPrecision" shape-rendering="geometricPrecision" stroke="rgb(153,153,153)" stroke-miterlimit="1.45">
      <rect fill="none" x="538.3986" width="147.8" height="28" y="741.3463" clip-path="url(#clipPath2)"/>
    </g>
    <g font-size="13px" stroke-linecap="butt" transform="matrix(1,0,0,1,-221,-137)" text-rendering="geometricPrecision" font-family="sans-serif" shape-rendering="geometricPrecision" font-weight="bold" stroke-miterlimit="1.45">
      <text x="549.5679" xml:space="preserve" y="758.4133" clip-path="url(#clipPath12)" stroke="none">ConcreteConcept</text>
    </g>
    <g fill="white" text-rendering="geometricPrecision" shape-rendering="geometricPrecision" transform="matrix(1,0,0,1,-221,-137)" stroke="white">
      <rect x="762.8906" width="101.984" height="28" y="594.0552" clip-path="url(#clipPath2)" stroke="none"/>
    </g>
    <g stroke-linecap="butt" transform="matrix(1,0,0,1,-221,-137)" fill="rgb(153,153,153)" text-rendering="geometricPrecision" shape-rendering="geometricPrecision" stroke="rgb(153,153,153)" stroke-miterlimit="1.45">
      <rect fill="none" x="762.8906" width="101.984" height="28" y="594.0552" clip-path="url(#clipPath2)"/>
    </g>
    <g stroke-linecap="butt" font-size="13px" transform="matrix(1,0,0,1,-221,-137)" text-rendering="geometricPrecision" font-family="sans-serif" shape-rendering="geometricPrecision" font-style="italic" font-weight="bold" stroke-miterlimit="1.45">
      <text x="771.7532" xml:space="preserve" y="611.1221" clip-path="url(#clipPath13)" stroke="none">Association</text>
    </g>
    <g fill="white" text-rendering="geometricPrecision" shape-rendering="geometricPrecision" transform="matrix(1,0,0,1,-221,-137)" stroke="white">
      <rect x="726.1426" width="175.48" height="28" y="741.3463" clip-path="url(#clipPath2)" stroke="none"/>
    </g>
    <g stroke-linecap="butt" transform="matrix(1,0,0,1,-221,-137)" fill="rgb(153,153,153)" text-rendering="geometricPrecision" shape-rendering="geometricPrecision" stroke="rgb(153,153,153)" stroke-miterlimit="1.45">
      <rect fill="none" x="726.1426" width="175.48" height="28" y="741.3463" clip-path="url(#clipPath2)"/>
    </g>
    <g font-size="13px" stroke-linecap="butt" transform="matrix(1,0,0,1,-221,-137)" text-rendering="geometricPrecision" font-family="sans-serif" shape-rendering="geometricPrecision" font-weight="bold" stroke-miterlimit="1.45">
      <text x="738.9072" xml:space="preserve" y="758.4133" clip-path="url(#clipPath14)" stroke="none">ConcreteAssociation</text>
    </g>
    <g fill="rgb(204,255,204)" text-rendering="geometricPrecision" shape-rendering="geometricPrecision" transform="matrix(1,0,0,1,-221,-137)" stroke="rgb(204,255,204)">
      <path d="M835.2753 872.6519 L988.2385 872.6519 L988.2385 887.6519 L1003.2385 887.6519 L1003.2385 904.6519 L835.2753 904.6519 Z" stroke="none" clip-path="url(#clipPath2)"/>
      <path fill="white" d="M988.2385 872.6519 L988.2385 887.6519 L1003.2385 887.6519 Z" clip-path="url(#clipPath2)" fill-rule="evenodd" stroke="none"/>
    </g>
    <g text-rendering="geometricPrecision" stroke-miterlimit="1.45" shape-rendering="geometricPrecision" transform="matrix(1,0,0,1,-221,-137)" stroke-linecap="butt">
      <path fill="none" d="M835.2753 872.6519 L988.2385 872.6519 L988.2385 887.6519 L1003.2385 887.6519 L1003.2385 904.6519 L835.2753 904.6519 Z" clip-path="url(#clipPath2)"/>
      <path fill="none" d="M988.2385 872.6519 L988.2385 887.6519 L1003.2385 887.6519 Z" clip-path="url(#clipPath2)" fill-rule="evenodd"/>
      <text x="837.2753" xml:space="preserve" y="892.8062" clip-path="url(#clipPath2)" font-family="sans-serif" stroke="none">Correct by construction</text>
    </g>
    <g fill="white" text-rendering="geometricPrecision" shape-rendering="geometricPrecision" transform="matrix(1,0,0,1,-221,-137)" stroke="white">
      <rect x="445.2909" width="124.92" height="28" y="269.2296" clip-path="url(#clipPath2)" stroke="none"/>
    </g>
    <g stroke-linecap="butt" transform="matrix(1,0,0,1,-221,-137)" fill="rgb(153,153,153)" text-rendering="geometricPrecision" shape-rendering="geometricPrecision" stroke="rgb(153,153,153)" stroke-miterlimit="1.45">
      <rect fill="none" x="445.2909" width="124.92" height="28" y="269.2296" clip-path="url(#clipPath2)"/>
    </g>
    <g stroke-linecap="butt" font-size="13px" transform="matrix(1,0,0,1,-221,-137)" text-rendering="geometricPrecision" font-family="sans-serif" shape-rendering="geometricPrecision" font-style="italic" font-weight="bold" stroke-miterlimit="1.45">
      <text x="452.9453" xml:space="preserve" y="286.2965" clip-path="url(#clipPath15)" stroke="none">VirtualElement</text>
    </g>
    <g fill="white" text-rendering="geometricPrecision" shape-rendering="geometricPrecision" transform="matrix(1,0,0,1,-221,-137)" stroke="white">
      <rect x="671.3819" width="85.72" height="28" y="652.0552" clip-path="url(#clipPath2)" stroke="none"/>
    </g>
    <g stroke-linecap="butt" transform="matrix(1,0,0,1,-221,-137)" fill="rgb(153,153,153)" text-rendering="geometricPrecision" shape-rendering="geometricPrecision" stroke="rgb(153,153,153)" stroke-miterlimit="1.45">
      <rect fill="none" x="671.3819" width="85.72" height="28" y="652.0552" clip-path="url(#clipPath2)"/>
    </g>
    <g stroke-linecap="butt" font-size="13px" transform="matrix(1,0,0,1,-221,-137)" text-rendering="geometricPrecision" font-family="sans-serif" shape-rendering="geometricPrecision" font-style="italic" font-weight="bold" stroke-miterlimit="1.45">
      <text x="684.2492" xml:space="preserve" y="669.1221" clip-path="url(#clipPath16)" stroke="none">Element</text>
    </g>
    <g text-rendering="geometricPrecision" stroke-miterlimit="1.45" shape-rendering="geometricPrecision" transform="matrix(1,0,0,1,-221,-137)" stroke-linecap="butt">
      <path fill="none" d="M743.8203 221.0518 L743.8203 269.2027" clip-path="url(#clipPath2)"/>
      <path d="M743.8203 214.0518 L748.8203 221.0518 L743.8203 228.0518 L738.8203 221.0518 Z" clip-path="url(#clipPath2)" stroke="none"/>
      <text x="747.7103" xml:space="preserve" y="265.4236" clip-path="url(#clipPath2)" font-family="sans-serif" stroke="none">0..*</text>
      <path fill="none" d="M603.7366 454.9922 L603.7366 594.0342" clip-path="url(#clipPath2)"/>
      <text x="562.8274" xml:space="preserve" y="580.0622" clip-path="url(#clipPath2)" font-family="sans-serif" stroke="none">parent</text>
      <path fill="none" d="M631.0732 393.5553 L631.0732 362.4718 L743.8203 362.4718 L743.8203 331.2475" clip-path="url(#clipPath2)"/>
      <path fill="white" d="M743.8203 316.2475 L737.8203 332.2475 L749.8203 332.2475 Z" clip-path="url(#clipPath2)" stroke="none"/>
      <path fill="none" d="M743.8203 316.2475 L737.8203 332.2475 L749.8203 332.2475 Z" clip-path="url(#clipPath2)"/>
      <path fill="none" d="M441.9571 393.536 L441.9571 355.1144 L729.6555 355.1144 L729.6555 331.2263" clip-path="url(#clipPath2)"/>
      <path fill="white" d="M729.6555 316.2263 L723.6555 332.2263 L735.6555 332.2263 Z" clip-path="url(#clipPath2)" stroke="none"/>
      <path fill="none" d="M729.6555 316.2263 L723.6555 332.2263 L735.6555 332.2263 Z" clip-path="url(#clipPath2)"/>
      <path fill="none" d="M412.9111 421.7116 L541.2963 608.0324" clip-path="url(#clipPath2)"/>
    </g>
    <g text-rendering="geometricPrecision" stroke-miterlimit="1.45" shape-rendering="geometricPrecision" font-family="sans-serif" transform="matrix(0.5674,0.8234,-0.8234,0.5674,255.8201,339.5065)" stroke-linecap="butt">
      <text x="2" xml:space="preserve" y="13.1387" clip-path="url(#clipPath17)" stroke="none">superConcepts</text>
    </g>
    <g text-rendering="geometricPrecision" stroke-miterlimit="1.45" shape-rendering="geometricPrecision" font-family="sans-serif" transform="matrix(0.5674,0.8234,-0.8234,0.5674,311.7642,421.0565)" stroke-linecap="butt">
      <text x="2" xml:space="preserve" y="13.1387" clip-path="url(#clipPath18)" stroke="none">0..*</text>
    </g>
    <g text-rendering="geometricPrecision" stroke-miterlimit="1.45" shape-rendering="geometricPrecision" transform="matrix(1,0,0,1,-221,-137)" stroke-linecap="butt">
      <path fill="none" d="M401.135 421.6938 L541.3006 618.4435" clip-path="url(#clipPath2)"/>
    </g>
    <g text-rendering="geometricPrecision" stroke-miterlimit="1.45" shape-rendering="geometricPrecision" font-family="sans-serif" transform="matrix(0.5802,0.8145,-0.8145,0.5802,291.0344,442.4884)" stroke-linecap="butt">
      <text x="2" xml:space="preserve" y="13.1387" clip-path="url(#clipPath19)" stroke="none">0..*</text>
    </g>
    <g text-rendering="geometricPrecision" stroke-miterlimit="1.45" shape-rendering="geometricPrecision" font-family="sans-serif" transform="matrix(0.5802,0.8145,-0.8145,0.5802,238.3248,367.6096)" stroke-linecap="butt">
      <text x="2" xml:space="preserve" y="13.1387" clip-path="url(#clipPath20)" stroke="none">subConcepts</text>
    </g>
    <g text-rendering="geometricPrecision" stroke-miterlimit="1.45" shape-rendering="geometricPrecision" transform="matrix(1,0,0,1,-221,-137)" stroke-linecap="butt">
      <path fill="none" d="M367.9221 407.628 L338.01 407.628 L338.01 656.036 L596.4037 656.036 L596.4037 637.0807" clip-path="url(#clipPath2)"/>
      <path fill="white" d="M596.4037 622.0807 L590.4037 638.0807 L602.4037 638.0807 Z" clip-path="url(#clipPath2)" stroke="none"/>
      <path fill="none" d="M596.4037 622.0807 L590.4037 638.0807 L602.4037 638.0807 Z" clip-path="url(#clipPath2)"/>
      <path fill="none" d="M821.8493 183.3208 L1162.137 183.3208 L1162.137 269.2069" clip-path="url(#clipPath2)"/>
      <path d="M814.8493 183.3208 L821.8493 178.3208 L828.8493 183.3208 L821.8493 188.3208 Z" clip-path="url(#clipPath2)" stroke="none"/>
      <text x="1166.027" xml:space="preserve" y="259.3995" clip-path="url(#clipPath2)" font-family="sans-serif" stroke="none">0..*</text>
      <path fill="none" d="M803.7967 397.3674 L803.7967 360.8334 L756.8854 360.8334 L756.8854 331.2421" clip-path="url(#clipPath2)"/>
      <path fill="white" d="M756.8854 316.2421 L750.8854 332.2421 L762.8854 332.2421 Z" clip-path="url(#clipPath2)" stroke="none"/>
      <path fill="none" d="M756.8854 316.2421 L750.8854 332.2421 L762.8854 332.2421 Z" clip-path="url(#clipPath2)"/>
      <path fill="none" d="M766.8493 472.4906 L662.944 594.0535" clip-path="url(#clipPath2)"/>
    </g>
    <g text-rendering="geometricPrecision" stroke-miterlimit="1.45" shape-rendering="geometricPrecision" font-family="sans-serif" transform="matrix(0.6497,-0.7602,0.7602,0.6497,438.8824,432.8493)" stroke-linecap="butt">
      <text x="2" xml:space="preserve" y="13.1387" clip-path="url(#clipPath21)" stroke="none">source</text>
    </g>
    <g text-rendering="geometricPrecision" stroke-miterlimit="1.45" shape-rendering="geometricPrecision" transform="matrix(1,0,0,1,-221,-137)" stroke-linecap="butt">
      <path fill="none" d="M776.8173 472.4977 L673.397 594.0335" clip-path="url(#clipPath2)"/>
    </g>
    <g text-rendering="geometricPrecision" stroke-miterlimit="1.45" shape-rendering="geometricPrecision" font-family="sans-serif" transform="matrix(0.6481,-0.7616,0.7616,0.6481,467.2906,445.9735)" stroke-linecap="butt">
      <text x="2" xml:space="preserve" y="13.1387" clip-path="url(#clipPath22)" stroke="none">target</text>
    </g>
    <g text-rendering="geometricPrecision" stroke-miterlimit="1.45" shape-rendering="geometricPrecision" transform="matrix(1,0,0,1,-221,-137)" stroke-linecap="butt">
      <path fill="none" d="M1162.137 594.0325 L1162.137 323.2475" clip-path="url(#clipPath2)"/>
      <path d="M1162.137 316.2475 L1167.137 323.2475 L1162.137 330.2475 L1157.137 323.2475 Z" clip-path="url(#clipPath2)" stroke="none"/>
      <text x="1166.1079" xml:space="preserve" y="584.2251" clip-path="url(#clipPath2)" font-family="sans-serif" stroke="none">0..*</text>
      <path fill="none" d="M1011.5801 397.358 L1011.5801 353.6217 L771.9642 353.6217 L771.9642 331.2405" clip-path="url(#clipPath2)"/>
      <path fill="white" d="M771.9642 316.2405 L765.9642 332.2405 L777.9642 332.2405 Z" clip-path="url(#clipPath2)" stroke="none"/>
      <path fill="none" d="M771.9642 316.2405 L765.9642 332.2405 L777.9642 332.2405 Z" clip-path="url(#clipPath2)"/>
      <path fill="none" d="M1011.5801 425.4454 L1011.5801 608.0552 L1091.1204 608.0552" clip-path="url(#clipPath2)"/>
      <text x="1047.4476" xml:space="preserve" y="598.2829" clip-path="url(#clipPath2)" font-family="sans-serif" stroke="none">target</text>
      <path fill="none" d="M612.2986 741.358 L612.2986 637.0819" clip-path="url(#clipPath2)"/>
      <path fill="white" d="M612.2986 622.0819 L606.2986 638.0819 L618.2986 638.0819 Z" clip-path="url(#clipPath2)" stroke="none"/>
      <path fill="none" d="M612.2986 622.0819 L606.2986 638.0819 L618.2986 638.0819 Z" clip-path="url(#clipPath2)"/>
      <path fill="none" d="M612.2986 769.3695 L612.2986 784.1234 L1162.137 784.1234 L1162.137 656.0731" clip-path="url(#clipPath2)"/>
      <path fill="white" d="M1162.137 641.0731 L1156.137 657.0731 L1168.137 657.0731 Z" clip-path="url(#clipPath2)" stroke="none"/>
      <path fill="none" d="M1162.137 641.0731 L1156.137 657.0731 L1168.137 657.0731 Z" clip-path="url(#clipPath2)"/>
      <path fill="none" d="M884.8433 434.9368 L910.8322 434.9368 L910.8322 656.3154 L830.8875 656.3154 L830.8875 637.0819" clip-path="url(#clipPath2)"/>
      <path fill="white" d="M830.8875 622.0819 L824.8875 638.0819 L836.8875 638.0819 Z" clip-path="url(#clipPath2)" stroke="none"/>
      <path fill="none" d="M830.8875 622.0819 L824.8875 638.0819 L836.8875 638.0819 Z" clip-path="url(#clipPath2)"/>
      <path fill="none" d="M852.6965 594.0359 L852.6965 472.4828" clip-path="url(#clipPath2)"/>
      <text x="799.0604" xml:space="preserve" y="570.043" clip-path="url(#clipPath2)" font-family="sans-serif" stroke="none">opposite</text>
      <text x="827.1646" xml:space="preserve" y="584.2251" clip-path="url(#clipPath2)" font-family="sans-serif" stroke="none">0..1</text>
      <path fill="none" d="M813.8826 741.358 L813.8826 637.0819" clip-path="url(#clipPath2)"/>
      <path fill="white" d="M813.8826 622.0819 L807.8826 638.0819 L819.8826 638.0819 Z" clip-path="url(#clipPath2)" stroke="none"/>
      <path fill="none" d="M813.8826 622.0819 L807.8826 638.0819 L819.8826 638.0819 Z" clip-path="url(#clipPath2)"/>
      <path fill="none" d="M901.6506 755.3464 L1143.8484 755.3464 L1143.8484 656.0643" clip-path="url(#clipPath2)"/>
      <path fill="white" d="M1143.8484 641.0643 L1137.8484 657.0643 L1149.8484 657.0643 Z" clip-path="url(#clipPath2)" stroke="none"/>
      <path fill="none" d="M1143.8484 641.0643 L1137.8484 657.0643 L1149.8484 657.0643 Z" clip-path="url(#clipPath2)"/>
      <path fill="none" d="M430.4082 393.529 L430.4082 360.7761 L495.9438 360.7761 L495.9438 312.2445" clip-path="url(#clipPath2)"/>
      <path fill="white" d="M495.9438 297.2445 L489.9438 313.2445 L501.9438 313.2445 Z" clip-path="url(#clipPath2)" stroke="none"/>
      <path fill="none" d="M495.9438 297.2445 L489.9438 313.2445 L501.9438 313.2445 Z" clip-path="url(#clipPath2)"/>
      <path fill="none" d="M620.8306 393.5679 L620.8306 361.2084 L520.2968 361.2084 L520.2968 312.2328" clip-path="url(#clipPath2)"/>
      <path fill="white" d="M520.2968 297.2328 L514.2968 313.2328 L526.2968 313.2328 Z" clip-path="url(#clipPath2)" stroke="none"/>
      <path fill="none" d="M520.2968 297.2328 L514.2968 313.2328 L526.2968 313.2328 Z" clip-path="url(#clipPath2)"/>
      <path fill="none" d="M796.4904 397.3701 L796.4904 368.2682 L507.7509 368.2682 L507.7509 312.2452" clip-path="url(#clipPath2)"/>
      <path fill="white" d="M507.7509 297.2452 L501.7509 313.2452 L513.751 313.2452 Z" clip-path="url(#clipPath2)" stroke="none"/>
      <path fill="none" d="M507.7509 297.2452 L501.7509 313.2452 L513.751 313.2452 Z" clip-path="url(#clipPath2)"/>
      <path fill="none" d="M788.8727 622.0874 L788.8727 710.0154 L728.1561 710.0154 L728.1561 695.0576" clip-path="url(#clipPath2)"/>
      <path fill="white" d="M728.1561 680.0576 L722.1561 696.0576 L734.1561 696.0576 Z" clip-path="url(#clipPath2)" stroke="none"/>
      <path fill="none" d="M728.1561 680.0576 L722.1561 696.0576 L734.1561 696.0576 Z" clip-path="url(#clipPath2)"/>
      <path fill="none" d="M645.7194 622.0688 L645.7194 708.4154 L716.6588 708.4154 L716.6588 695.065" clip-path="url(#clipPath2)"/>
      <path fill="white" d="M716.6588 680.065 L710.6588 696.065 L722.6588 696.065 Z" clip-path="url(#clipPath2)" stroke="none"/>
      <path fill="none" d="M716.6588 680.065 L710.6588 696.065 L722.6588 696.065 Z" clip-path="url(#clipPath2)"/>
      <path fill="none" d="M445.3071 283.2296 L291.272 283.2296 L291.272 713.7786 L703.272 713.7786 L703.272 695.0841" clip-path="url(#clipPath2)"/>
      <path fill="white" d="M703.272 680.0841 L697.272 696.0841 L709.272 696.0841 Z" clip-path="url(#clipPath2)" stroke="none"/>
      <path fill="none" d="M703.272 680.0841 L697.272 696.0841 L709.272 696.0841 Z" clip-path="url(#clipPath2)"/>
      <path fill="none" d="M1108.3387 641.0664 L1108.3387 718.5415 L741.5265 718.5415 L741.5265 695.0698" clip-path="url(#clipPath2)"/>
      <path fill="white" d="M741.5265 680.0698 L735.5265 696.0698 L747.5265 696.0698 Z" clip-path="url(#clipPath2)" stroke="none"/>
      <path fill="none" d="M741.5265 680.0698 L735.5265 696.0698 L747.5265 696.0698 Z" clip-path="url(#clipPath2)"/>
    </g>
  </g>
</svg>
